<svg width="178" height="184" viewBox="0 0 178 184" fill="none" xmlns="http://www.w3.org/2000/svg">
<g filter="url(#filter0_d_211_2)">
<rect x="4" width="170" height="170" rx="85" fill="#157A6E"/>
<path d="M112.73 120.823C114.43 120.823 116.041 120.691 117.564 120.428C119.117 120.164 120.743 120.032 122.442 120.032C124.171 120.032 125.035 121.014 125.035 122.977C125.035 123.504 124.903 124.412 124.64 125.701C124.376 126.99 124.083 127.913 123.761 128.47C123.438 129.056 123.014 129.51 122.486 129.832C121.578 130.447 120.26 130.755 118.531 130.755C116.803 130.755 115.074 130.682 113.346 130.535C111.617 130.389 109.786 130.125 107.853 129.744C105.919 129.363 103.941 128.851 101.92 128.206C99.8984 127.591 97.8916 126.814 95.8994 125.877C91.5342 123.768 87.9014 121.102 85.001 117.879C76.3291 116.971 69.3564 113.104 64.083 106.277C59.1025 99.8027 56.6123 91.9658 56.6123 82.7666C56.6123 72.7764 59.6152 64.5879 65.6211 58.2012C71.6855 51.7559 79.5371 48.5332 89.1758 48.5332C99.4297 48.5332 107.472 51.8291 113.302 58.4209C118.839 64.6611 121.607 72.8057 121.607 82.8545C121.607 91.5264 119.425 98.9092 115.06 105.003C110.46 111.419 104.249 115.257 96.4268 116.517C101.964 119.388 107.398 120.823 112.73 120.823ZM68.5215 82.6348C68.5215 86.0625 68.917 89.3145 69.708 92.3906C70.5283 95.4668 71.7734 98.1914 73.4434 100.564C77.1348 105.809 82.335 108.431 89.0439 108.431C95.7822 108.431 100.997 105.926 104.688 100.916C108.028 96.375 109.698 90.3398 109.698 82.8105C109.698 75.9551 107.984 70.3008 104.557 65.8477C100.777 61.0137 95.6211 58.5967 89.0879 58.5967C82.7891 58.5967 77.7793 60.8525 74.0586 65.3643C70.3672 69.7881 68.5215 75.5449 68.5215 82.6348Z" fill="white"/>
<rect x="13.5" y="9.5" width="151" height="151" rx="75.5" stroke="#FFC107" stroke-width="19"/>
</g>
<defs>
<filter id="filter0_d_211_2" x="0" y="0" width="178" height="184" filterUnits="userSpaceOnUse" color-interpolation-filters="sRGB">
<feFlood flood-opacity="0" result="BackgroundImageFix"/>
<feColorMatrix in="SourceAlpha" type="matrix" values="0 0 0 0 0 0 0 0 0 0 0 0 0 0 0 0 0 0 127 0" result="hardAlpha"/>
<feOffset dy="10"/>
<feGaussianBlur stdDeviation="2"/>
<feComposite in2="hardAlpha" operator="out"/>
<feColorMatrix type="matrix" values="0 0 0 0 0 0 0 0 0 0 0 0 0 0 0 0 0 0 0.25 0"/>
<feBlend mode="normal" in2="BackgroundImageFix" result="effect1_dropShadow_211_2"/>
<feBlend mode="normal" in="SourceGraphic" in2="effect1_dropShadow_211_2" result="shape"/>
</filter>
</defs>
</svg>
