<svg width="425" height="483" viewBox="0 0 425 483" fill="none" xmlns="http://www.w3.org/2000/svg">
<path d="M210.7 260.2C211.2 260.2 211.7 260.2 212.3 260.2C212.5 260.2 212.7 260.2 212.9 260.2C213.2 260.2 213.6 260.2 213.9 260.2C243.2 259.7 266.9 249.4 284.4 229.7C322.9 186.3 316.5 111.9 315.8 104.8C313.3 51.5 288.1 26 267.3 14.1C251.8 5.2 233.7 0.4 213.5 0H212.8C212.7 0 212.5 0 212.4 0H211.8C200.7 0 178.9 1.8 158 13.7C137 25.6 111.4 51.1 108.9 104.8C108.2 111.9 101.8 186.3 140.3 229.7C157.7 249.4 181.4 259.7 210.7 260.2ZM135.6 107.3C135.6 107 135.7 106.7 135.7 106.5C139 34.8 189.9 27.1 211.7 27.1H212.1C212.3 27.1 212.6 27.1 212.9 27.1C239.9 27.7 285.8 38.7 288.9 106.5C288.9 106.8 288.9 107.1 289 107.3C289.1 108 296.1 176 264.3 211.8C251.7 226 234.9 233 212.8 233.2C212.6 233.2 212.5 233.2 212.3 233.2C212.1 233.2 212 233.2 211.8 233.2C189.8 233 172.9 226 160.4 211.8C128.7 176.2 135.5 107.9 135.6 107.3Z" fill="#157A6E" stroke="#157A6E" stroke-width="14"/>
<path d="M417.8 383.6C417.8 383.5 417.8 383.4 417.8 383.3C417.8 382.5 417.7 381.7 417.7 380.8C417.1 361 415.8 314.7 372.4 299.9C372.1 299.8 371.7 299.7 371.4 299.6C326.3 288.1 288.8 262.1 288.4 261.8C282.3 257.5 273.9 259 269.6 265.1C265.3 271.2 266.8 279.6 272.9 283.9C274.6 285.1 314.4 312.8 364.2 325.6C387.5 333.9 390.1 358.8 390.8 381.6C390.8 382.5 390.8 383.3 390.9 384.1C391 393.1 390.4 407 388.8 415C372.6 424.2 309.1 456 212.5 456C116.3 456 52.4 424.1 36.1 414.9C34.5 406.9 33.8 393 34 384C34 383.2 34.1 382.4 34.1 381.5C34.8 358.7 37.4 333.8 60.7 325.5C110.5 312.7 150.3 284.9 152 283.8C158.1 279.5 159.6 271.1 155.3 265C151 258.9 142.6 257.4 136.5 261.7C136.1 262 98.8 288 53.5 299.5C53.1 299.6 52.8 299.7 52.5 299.8C9.09997 314.7 7.79997 361 7.19997 380.7C7.19997 381.6 7.19997 382.4 7.09997 383.2C7.09997 383.3 7.09997 383.4 7.09997 383.5C6.99997 388.7 6.89997 415.4 12.2 428.8C13.2 431.4 15 433.6 17.4 435.1C20.4 437.1 92.3 482.9 212.6 482.9C332.9 482.9 404.8 437 407.8 435.1C410.1 433.6 412 431.4 413 428.8C418 415.5 417.9 388.8 417.8 383.6Z" fill="#157A6E" stroke="#157A6E" stroke-width="14"/>
</svg>
