<svg width="1080" height="608" viewBox="0 0 1080 608" fill="none" xmlns="http://www.w3.org/2000/svg">
<rect width="1080" height="608" fill="#157A6E"/>
<path d="M370.408 194.776C368.168 197.528 365.416 199.608 362.152 201.016C358.952 202.488 355.432 203.224 351.592 203.224C347.88 203.224 344.52 202.744 341.512 201.784C338.504 200.824 335.464 199.224 332.392 196.984C329.384 194.808 325.992 191.736 322.216 187.768C316.392 186.808 311.208 184.728 306.664 181.528C302.12 178.328 298.568 174.296 296.008 169.432C293.512 164.568 292.264 159.224 292.264 153.4C292.264 146.744 293.864 140.76 297.064 135.448C300.328 130.136 304.776 125.976 310.408 122.968C316.104 119.96 322.504 118.456 329.608 118.456C336.712 118.456 343.08 119.96 348.712 122.968C354.408 125.976 358.856 130.136 362.056 135.448C365.32 140.76 366.952 146.744 366.952 153.4C366.952 160.952 364.872 167.64 360.712 173.464C356.616 179.224 351.08 183.352 344.104 185.848C345.384 187.256 346.632 188.248 347.848 188.824C349.128 189.4 350.504 189.688 351.976 189.688C355.752 189.688 359.144 188.12 362.152 184.984L370.408 194.776ZM311.464 153.4C311.464 157.176 312.264 160.536 313.864 163.48C315.464 166.36 317.64 168.6 320.392 170.2C323.144 171.8 326.216 172.6 329.608 172.6C333 172.6 336.072 171.8 338.824 170.2C341.576 168.6 343.752 166.36 345.352 163.48C346.952 160.536 347.752 157.176 347.752 153.4C347.752 149.624 346.952 146.296 345.352 143.416C343.752 140.472 341.576 138.2 338.824 136.6C336.072 135 333 134.2 329.608 134.2C326.216 134.2 323.144 135 320.392 136.6C317.64 138.2 315.464 140.472 313.864 143.416C312.264 146.296 311.464 149.624 311.464 153.4ZM430.764 134.968V187H413.388V181.432C411.468 183.544 409.164 185.144 406.476 186.232C403.788 187.32 400.94 187.864 397.932 187.864C391.212 187.864 385.836 185.88 381.804 181.912C377.836 177.944 375.852 171.992 375.852 164.056V134.968H394.092V161.08C394.092 164.984 394.828 167.832 396.3 169.624C397.772 171.416 399.916 172.312 402.732 172.312C405.612 172.312 407.948 171.32 409.74 169.336C411.596 167.288 412.524 164.184 412.524 160.024V134.968H430.764ZM442.512 134.968H460.752V187H442.512V134.968ZM451.632 129.208C448.304 129.208 445.616 128.28 443.568 126.424C441.52 124.568 440.496 122.264 440.496 119.512C440.496 116.76 441.52 114.456 443.568 112.6C445.616 110.744 448.304 109.816 451.632 109.816C454.96 109.816 457.648 110.712 459.696 112.504C461.744 114.232 462.768 116.472 462.768 119.224C462.768 122.104 461.744 124.504 459.696 126.424C457.648 128.28 454.96 129.208 451.632 129.208ZM517.918 173.368V187H469.918V176.248L494.014 148.504H470.59V134.968H516.958V145.624L492.862 173.368H517.918ZM523.671 152.632H551.703V166.648H523.671V152.632ZM614.649 151.96C618.489 153.304 621.497 155.416 623.673 158.296C625.849 161.112 626.937 164.536 626.937 168.568C626.937 174.456 624.569 179 619.833 182.2C615.097 185.4 608.249 187 599.289 187H563.001V119.8H597.369C605.945 119.8 612.473 121.4 616.953 124.6C621.433 127.736 623.673 131.992 623.673 137.368C623.673 140.568 622.873 143.448 621.273 146.008C619.737 148.504 617.529 150.488 614.649 151.96ZM581.817 133.528V146.488H594.873C601.273 146.488 604.473 144.312 604.473 139.96C604.473 135.672 601.273 133.528 594.873 133.528H581.817ZM597.753 173.272C604.409 173.272 607.737 171 607.737 166.456C607.737 161.912 604.409 159.64 597.753 159.64H581.817V173.272H597.753ZM635.919 115.768H654.159V187H635.919V115.768ZM692.124 187.864C686.556 187.864 681.532 186.712 677.052 184.408C672.572 182.104 669.052 178.904 666.492 174.808C663.996 170.712 662.748 166.072 662.748 160.888C662.748 155.768 663.996 151.16 666.492 147.064C669.052 142.968 672.54 139.8 676.956 137.56C681.436 135.256 686.492 134.104 692.124 134.104C697.756 134.104 702.812 135.256 707.292 137.56C711.772 139.8 715.26 142.968 717.756 147.064C720.252 151.096 721.5 155.704 721.5 160.888C721.5 166.072 720.252 170.712 717.756 174.808C715.26 178.904 711.772 182.104 707.292 184.408C702.812 186.712 697.756 187.864 692.124 187.864ZM692.124 173.368C695.324 173.368 697.948 172.28 699.996 170.104C702.044 167.864 703.068 164.792 703.068 160.888C703.068 157.048 702.044 154.04 699.996 151.864C697.948 149.688 695.324 148.6 692.124 148.6C688.924 148.6 686.3 149.688 684.252 151.864C682.204 154.04 681.18 157.048 681.18 160.888C681.18 164.792 682.204 167.864 684.252 170.104C686.3 172.28 688.924 173.368 692.124 173.368ZM785.918 134.968V177.496C785.918 187.16 783.294 194.392 778.046 199.192C772.798 204.056 765.246 206.488 755.39 206.488C750.27 206.488 745.47 205.912 740.99 204.76C736.51 203.608 732.702 201.912 729.566 199.672L736.19 186.904C738.302 188.632 740.958 189.976 744.158 190.936C747.422 191.96 750.622 192.472 753.758 192.472C758.558 192.472 762.078 191.416 764.318 189.304C766.558 187.192 767.678 184.056 767.678 179.896V178.168C764.158 182.264 759.006 184.312 752.222 184.312C747.614 184.312 743.358 183.288 739.454 181.24C735.55 179.128 732.446 176.184 730.142 172.408C727.838 168.568 726.686 164.152 726.686 159.16C726.686 154.232 727.838 149.88 730.142 146.104C732.446 142.264 735.55 139.32 739.454 137.272C743.358 135.16 747.614 134.104 752.222 134.104C759.646 134.104 765.086 136.504 768.542 141.304V134.968H785.918ZM756.542 169.816C759.806 169.816 762.494 168.824 764.606 166.84C766.782 164.856 767.87 162.296 767.87 159.16C767.87 156.024 766.814 153.496 764.702 151.576C762.59 149.592 759.87 148.6 756.542 148.6C753.214 148.6 750.462 149.592 748.286 151.576C746.174 153.496 745.118 156.024 745.118 159.16C745.118 162.296 746.206 164.856 748.382 166.84C750.558 168.824 753.278 169.816 756.542 169.816Z" fill="white"/>
<path d="M325.574 300.672C322.854 300.672 320.214 300.336 317.654 299.664C315.094 298.992 313.014 298.096 311.414 296.976L314.534 289.968C316.038 290.96 317.782 291.76 319.766 292.368C321.75 292.976 323.702 293.28 325.622 293.28C329.27 293.28 331.094 292.368 331.094 290.544C331.094 289.584 330.566 288.88 329.51 288.432C328.486 287.952 326.822 287.456 324.518 286.944C321.99 286.4 319.878 285.824 318.182 285.216C316.486 284.576 315.03 283.568 313.814 282.192C312.598 280.816 311.99 278.96 311.99 276.624C311.99 274.576 312.55 272.736 313.67 271.104C314.79 269.44 316.454 268.128 318.662 267.168C320.902 266.208 323.638 265.728 326.87 265.728C329.078 265.728 331.254 265.984 333.398 266.496C335.542 266.976 337.43 267.696 339.062 268.656L336.134 275.712C332.934 273.984 329.83 273.12 326.822 273.12C324.934 273.12 323.558 273.408 322.694 273.984C321.83 274.528 321.398 275.248 321.398 276.144C321.398 277.04 321.91 277.712 322.934 278.16C323.958 278.608 325.606 279.072 327.878 279.552C330.438 280.096 332.55 280.688 334.214 281.328C335.91 281.936 337.366 282.928 338.582 284.304C339.83 285.648 340.454 287.488 340.454 289.824C340.454 291.84 339.894 293.664 338.774 295.296C337.654 296.928 335.974 298.24 333.734 299.232C331.494 300.192 328.774 300.672 325.574 300.672ZM356.22 290.88L353.532 293.616V300H344.412V264.384H353.532V283.056L362.844 273.984H373.644L362.844 285.12L374.556 300H363.516L356.22 290.88ZM377.225 273.984H386.345V300H377.225V273.984ZM381.785 271.104C380.121 271.104 378.777 270.64 377.753 269.712C376.729 268.784 376.217 267.632 376.217 266.256C376.217 264.88 376.729 263.728 377.753 262.8C378.777 261.872 380.121 261.408 381.785 261.408C383.449 261.408 384.793 261.856 385.817 262.752C386.841 263.616 387.353 264.736 387.353 266.112C387.353 267.552 386.841 268.752 385.817 269.712C384.793 270.64 383.449 271.104 381.785 271.104ZM392.272 264.384H401.392V300H392.272V264.384ZM407.319 264.384H416.439V300H407.319V264.384ZM431.822 300.432C429.646 300.432 427.502 300.192 425.39 299.712C423.278 299.2 421.582 298.544 420.302 297.744L423.038 291.504C424.222 292.24 425.63 292.832 427.262 293.28C428.894 293.696 430.51 293.904 432.109 293.904C433.582 293.904 434.622 293.76 435.23 293.472C435.87 293.152 436.19 292.704 436.19 292.128C436.19 291.552 435.806 291.152 435.038 290.928C434.302 290.672 433.118 290.432 431.486 290.208C429.406 289.952 427.63 289.616 426.158 289.2C424.718 288.784 423.47 288.016 422.414 286.896C421.358 285.776 420.83 284.208 420.83 282.192C420.83 280.528 421.326 279.056 422.318 277.776C423.31 276.464 424.75 275.44 426.638 274.704C428.558 273.936 430.846 273.552 433.502 273.552C435.39 273.552 437.262 273.744 439.118 274.128C440.974 274.512 442.526 275.056 443.774 275.76L441.038 281.952C438.734 280.672 436.238 280.032 433.549 280.032C432.11 280.032 431.054 280.208 430.382 280.56C429.71 280.88 429.374 281.312 429.374 281.856C429.374 282.464 429.742 282.896 430.478 283.152C431.214 283.376 432.43 283.616 434.126 283.872C436.27 284.192 438.046 284.56 439.454 284.976C440.862 285.392 442.078 286.16 443.102 287.28C444.158 288.368 444.686 289.904 444.686 291.888C444.686 293.52 444.19 294.992 443.198 296.304C442.206 297.584 440.734 298.592 438.782 299.328C436.862 300.064 434.542 300.432 431.822 300.432ZM489.608 300.576L485.816 297.216C484.248 298.336 482.504 299.2 480.584 299.808C478.664 300.384 476.648 300.672 474.536 300.672C472.008 300.672 469.72 300.272 467.672 299.472C465.624 298.64 464.024 297.504 462.872 296.064C461.72 294.624 461.144 293.008 461.144 291.216C461.144 289.104 461.704 287.264 462.824 285.696C463.944 284.096 465.72 282.64 468.152 281.328C466.008 279.152 464.936 276.896 464.936 274.56C464.936 272.864 465.4 271.36 466.328 270.048C467.256 268.736 468.568 267.728 470.264 267.024C471.992 266.288 473.976 265.92 476.216 265.92C479.32 265.92 481.816 266.656 483.704 268.128C485.624 269.568 486.584 271.52 486.584 273.984C486.584 275.712 486.072 277.248 485.048 278.592C484.056 279.936 482.488 281.2 480.344 282.384L485.24 286.752C485.88 285.344 486.376 283.744 486.728 281.952L494.072 284.16C493.432 287.04 492.392 289.584 490.952 291.792L494.504 294.96L489.608 300.576ZM476.216 271.92C475.288 271.92 474.552 272.16 474.008 272.64C473.496 273.088 473.24 273.68 473.24 274.416C473.24 274.96 473.384 275.488 473.672 276C473.992 276.48 474.568 277.12 475.4 277.92C476.68 277.248 477.576 276.624 478.088 276.048C478.632 275.44 478.904 274.816 478.904 274.176C478.904 273.472 478.664 272.928 478.184 272.544C477.736 272.128 477.08 271.92 476.216 271.92ZM475.208 293.712C477.064 293.712 478.776 293.248 480.344 292.32L473.096 285.888C472.04 286.528 471.272 287.2 470.792 287.904C470.312 288.576 470.072 289.344 470.072 290.208C470.072 291.232 470.536 292.08 471.464 292.752C472.392 293.392 473.64 293.712 475.208 293.712ZM540.055 292.656V300H513.079V266.4H539.431V273.744H522.487V279.408H537.415V286.512H522.487V292.656H540.055ZM572.451 264.384V300H563.763V297.408C562.067 299.424 559.523 300.432 556.131 300.432C553.763 300.432 551.603 299.888 549.651 298.8C547.699 297.68 546.147 296.096 544.995 294.048C543.875 292 543.315 289.632 543.315 286.944C543.315 284.256 543.875 281.904 544.995 279.888C546.147 277.84 547.699 276.272 549.651 275.184C551.603 274.096 553.763 273.552 556.131 273.552C559.235 273.552 561.635 274.448 563.331 276.24V264.384H572.451ZM558.051 293.184C559.619 293.184 560.915 292.64 561.939 291.552C562.963 290.432 563.475 288.896 563.475 286.944C563.475 285.024 562.963 283.52 561.939 282.432C560.947 281.344 559.651 280.8 558.051 280.8C556.451 280.8 555.139 281.344 554.115 282.432C553.091 283.52 552.579 285.024 552.579 286.944C552.579 288.896 553.091 290.432 554.115 291.552C555.139 292.64 556.451 293.184 558.051 293.184ZM605.679 273.984V300H596.991V297.216C596.031 298.272 594.879 299.072 593.535 299.616C592.191 300.16 590.767 300.432 589.263 300.432C585.903 300.432 583.215 299.44 581.199 297.456C579.215 295.472 578.223 292.496 578.223 288.528V273.984H587.343V287.04C587.343 288.992 587.711 290.416 588.447 291.312C589.183 292.208 590.255 292.656 591.663 292.656C593.103 292.656 594.271 292.16 595.167 291.168C596.095 290.144 596.559 288.592 596.559 286.512V273.984H605.679ZM624.849 300.432C621.969 300.432 619.393 299.856 617.121 298.704C614.849 297.552 613.073 295.952 611.793 293.904C610.545 291.856 609.921 289.536 609.921 286.944C609.921 284.352 610.545 282.048 611.793 280.032C613.073 277.984 614.849 276.4 617.121 275.28C619.393 274.128 621.969 273.552 624.849 273.552C627.793 273.552 630.337 274.192 632.481 275.472C634.625 276.72 636.145 278.464 637.041 280.704L629.985 284.304C628.801 281.968 627.073 280.8 624.801 280.8C623.169 280.8 621.809 281.344 620.721 282.432C619.665 283.52 619.137 285.024 619.137 286.944C619.137 288.896 619.665 290.432 620.721 291.552C621.809 292.64 623.169 293.184 624.801 293.184C627.073 293.184 628.801 292.016 629.985 289.68L637.041 293.28C636.145 295.52 634.625 297.28 632.481 298.56C630.337 299.808 627.793 300.432 624.849 300.432ZM651.563 273.552C655.883 273.552 659.179 274.544 661.451 276.528C663.723 278.48 664.859 281.488 664.859 285.552V300H656.363V296.64C655.051 299.168 652.491 300.432 648.683 300.432C646.667 300.432 644.923 300.08 643.451 299.376C641.979 298.672 640.859 297.728 640.091 296.544C639.355 295.328 638.987 293.952 638.987 292.416C638.987 289.952 639.931 288.048 641.819 286.704C643.707 285.328 646.619 284.64 650.555 284.64H655.739C655.579 281.888 653.739 280.512 650.219 280.512C648.971 280.512 647.707 280.72 646.427 281.136C645.147 281.52 644.059 282.064 643.163 282.768L640.091 276.576C641.531 275.616 643.275 274.88 645.323 274.368C647.403 273.824 649.483 273.552 651.563 273.552ZM651.227 294.672C652.283 294.672 653.211 294.416 654.011 293.904C654.811 293.392 655.387 292.64 655.739 291.648V289.392H651.803C649.147 289.392 647.819 290.272 647.819 292.032C647.819 292.832 648.123 293.472 648.731 293.952C649.339 294.432 650.171 294.672 651.227 294.672ZM688.568 298.944C687.8 299.424 686.856 299.792 685.736 300.048C684.648 300.304 683.48 300.432 682.232 300.432C678.84 300.432 676.232 299.6 674.408 297.936C672.584 296.272 671.672 293.792 671.672 290.496V281.76H667.88V274.944H671.672V268.176H680.792V274.944H686.744V281.76H680.792V290.4C680.792 291.328 681.032 292.064 681.512 292.608C682.024 293.12 682.696 293.376 683.528 293.376C684.584 293.376 685.512 293.104 686.312 292.56L688.568 298.944ZM692.084 273.984H701.204V300H692.084V273.984ZM696.644 271.104C694.98 271.104 693.636 270.64 692.612 269.712C691.588 268.784 691.076 267.632 691.076 266.256C691.076 264.88 691.588 263.728 692.612 262.8C693.636 261.872 694.98 261.408 696.644 261.408C698.308 261.408 699.652 261.856 700.676 262.752C701.7 263.616 702.212 264.736 702.212 266.112C702.212 267.552 701.7 268.752 700.676 269.712C699.652 270.64 698.308 271.104 696.644 271.104ZM720.187 300.432C717.403 300.432 714.891 299.856 712.651 298.704C710.411 297.552 708.651 295.952 707.371 293.904C706.123 291.856 705.499 289.536 705.499 286.944C705.499 284.384 706.123 282.08 707.371 280.032C708.651 277.984 710.395 276.4 712.603 275.28C714.843 274.128 717.371 273.552 720.187 273.552C723.003 273.552 725.531 274.128 727.771 275.28C730.011 276.4 731.755 277.984 733.003 280.032C734.251 282.048 734.875 284.352 734.875 286.944C734.875 289.536 734.251 291.856 733.003 293.904C731.755 295.952 730.011 297.552 727.771 298.704C725.531 299.856 723.003 300.432 720.187 300.432ZM720.187 293.184C721.787 293.184 723.099 292.64 724.123 291.552C725.147 290.432 725.659 288.896 725.659 286.944C725.659 285.024 725.147 283.52 724.123 282.432C723.099 281.344 721.787 280.8 720.187 280.8C718.587 280.8 717.275 281.344 716.251 282.432C715.227 283.52 714.715 285.024 714.715 286.944C714.715 288.896 715.227 290.432 716.251 291.552C717.275 292.64 718.587 293.184 720.187 293.184ZM756.044 273.552C759.276 273.552 761.868 274.512 763.82 276.432C765.804 278.352 766.796 281.248 766.796 285.12V300H757.676V286.608C757.676 283.056 756.252 281.28 753.404 281.28C751.836 281.28 750.572 281.792 749.612 282.816C748.684 283.84 748.22 285.376 748.22 287.424V300H739.1V273.984H747.788V276.816C748.812 275.76 750.028 274.96 751.436 274.416C752.844 273.84 754.38 273.552 756.044 273.552Z" fill="white"/>
</svg>
