<svg width="1080" height="608" viewBox="0 0 1080 608" fill="none" xmlns="http://www.w3.org/2000/svg">
<g clip-path="url(#clip0_902_2)">
<path d="M1080 0H0V608H1080V0Z" fill="#157A6E"/>
<path d="M371.144 158.776C368.904 161.528 366.152 163.608 362.888 165.016C359.688 166.488 356.168 167.224 352.328 167.224C348.616 167.224 345.256 166.744 342.248 165.784C339.24 164.824 336.2 163.224 333.128 160.984C330.12 158.808 326.728 155.736 322.952 151.768C317.128 150.808 311.944 148.728 307.4 145.528C302.856 142.328 299.304 138.296 296.744 133.432C294.248 128.568 293 123.224 293 117.4C293 110.744 294.6 104.76 297.8 99.448C301.064 94.136 305.512 89.976 311.144 86.968C316.84 83.96 323.24 82.456 330.344 82.456C337.448 82.456 343.816 83.96 349.448 86.968C355.144 89.976 359.592 94.136 362.792 99.448C366.056 104.76 367.688 110.744 367.688 117.4C367.688 124.952 365.608 131.64 361.448 137.464C357.352 143.224 351.816 147.352 344.84 149.848C346.12 151.256 347.368 152.248 348.584 152.824C349.864 153.4 351.24 153.688 352.712 153.688C356.488 153.688 359.88 152.12 362.888 148.984L371.144 158.776ZM312.2 117.4C312.2 121.176 313 124.536 314.6 127.48C316.2 130.36 318.376 132.6 321.128 134.2C323.88 135.8 326.952 136.6 330.344 136.6C333.736 136.6 336.808 135.8 339.56 134.2C342.312 132.6 344.488 130.36 346.088 127.48C347.688 124.536 348.488 121.176 348.488 117.4C348.488 113.624 347.688 110.296 346.088 107.416C344.488 104.472 342.312 102.2 339.56 100.6C336.808 99 333.736 98.2 330.344 98.2C326.952 98.2 323.88 99 321.128 100.6C318.376 102.2 316.2 104.472 314.6 107.416C313 110.296 312.2 113.624 312.2 117.4ZM431.5 98.968V151H414.124V145.432C412.204 147.544 409.9 149.144 407.212 150.232C404.524 151.32 401.676 151.864 398.668 151.864C391.948 151.864 386.572 149.88 382.54 145.912C378.572 141.944 376.588 135.992 376.588 128.056V98.968H394.828V125.08C394.828 128.984 395.564 131.832 397.036 133.624C398.508 135.416 400.652 136.312 403.468 136.312C406.348 136.312 408.684 135.32 410.476 133.336C412.332 131.288 413.26 128.184 413.26 124.024V98.968H431.5ZM443.248 98.968H461.488V151H443.248V98.968ZM452.368 93.208C449.04 93.208 446.352 92.28 444.304 90.424C442.256 88.568 441.232 86.264 441.232 83.512C441.232 80.76 442.256 78.456 444.304 76.6C446.352 74.744 449.04 73.816 452.368 73.816C455.696 73.816 458.384 74.712 460.432 76.504C462.48 78.232 463.504 80.472 463.504 83.224C463.504 86.104 462.48 88.504 460.432 90.424C458.384 92.28 455.696 93.208 452.368 93.208ZM518.654 137.368V151H470.654V140.248L494.75 112.504H471.326V98.968H517.694V109.624L493.598 137.368H518.654ZM524.407 116.632H552.439V130.648H524.407V116.632ZM615.385 115.96C619.225 117.304 622.233 119.416 624.409 122.296C626.585 125.112 627.673 128.536 627.673 132.568C627.673 138.456 625.305 143 620.569 146.2C615.833 149.4 608.985 151 600.025 151H563.737V83.8H598.105C606.681 83.8 613.209 85.4 617.689 88.6C622.169 91.736 624.409 95.992 624.409 101.368C624.409 104.568 623.609 107.448 622.009 110.008C620.473 112.504 618.265 114.488 615.385 115.96ZM582.553 97.528V110.488H595.609C602.009 110.488 605.209 108.312 605.209 103.96C605.209 99.672 602.009 97.528 595.609 97.528H582.553ZM598.489 137.272C605.145 137.272 608.473 135 608.473 130.456C608.473 125.912 605.145 123.64 598.489 123.64H582.553V137.272H598.489ZM636.655 79.768H654.895V151H636.655V79.768ZM692.86 151.864C687.292 151.864 682.268 150.712 677.788 148.408C673.308 146.104 669.788 142.904 667.228 138.808C664.732 134.712 663.484 130.072 663.484 124.888C663.484 119.768 664.732 115.16 667.228 111.064C669.788 106.968 673.276 103.8 677.692 101.56C682.172 99.256 687.228 98.104 692.86 98.104C698.492 98.104 703.548 99.256 708.028 101.56C712.508 103.8 715.996 106.968 718.492 111.064C720.988 115.096 722.236 119.704 722.236 124.888C722.236 130.072 720.988 134.712 718.492 138.808C715.996 142.904 712.508 146.104 708.028 148.408C703.548 150.712 698.492 151.864 692.86 151.864ZM692.86 137.368C696.06 137.368 698.684 136.28 700.732 134.104C702.78 131.864 703.804 128.792 703.804 124.888C703.804 121.048 702.78 118.04 700.732 115.864C698.684 113.688 696.06 112.6 692.86 112.6C689.66 112.6 687.036 113.688 684.988 115.864C682.94 118.04 681.916 121.048 681.916 124.888C681.916 128.792 682.94 131.864 684.988 134.104C687.036 136.28 689.66 137.368 692.86 137.368ZM786.654 98.968V141.496C786.654 151.16 784.03 158.392 778.782 163.192C773.534 168.056 765.982 170.488 756.126 170.488C751.006 170.488 746.206 169.912 741.726 168.76C737.246 167.608 733.438 165.912 730.302 163.672L736.926 150.904C739.038 152.632 741.694 153.976 744.894 154.936C748.158 155.96 751.358 156.472 754.494 156.472C759.294 156.472 762.814 155.416 765.054 153.304C767.294 151.192 768.414 148.056 768.414 143.896V142.168C764.894 146.264 759.742 148.312 752.958 148.312C748.35 148.312 744.094 147.288 740.19 145.24C736.286 143.128 733.182 140.184 730.878 136.408C728.574 132.568 727.422 128.152 727.422 123.16C727.422 118.232 728.574 113.88 730.878 110.104C733.182 106.264 736.286 103.32 740.19 101.272C744.094 99.16 748.35 98.104 752.958 98.104C760.382 98.104 765.822 100.504 769.278 105.304V98.968H786.654ZM757.278 133.816C760.542 133.816 763.23 132.824 765.342 130.84C767.518 128.856 768.606 126.296 768.606 123.16C768.606 120.024 767.55 117.496 765.438 115.576C763.326 113.592 760.606 112.6 757.278 112.6C753.95 112.6 751.198 113.592 749.022 115.576C746.91 117.496 745.854 120.024 745.854 123.16C745.854 126.296 746.942 128.856 749.118 130.84C751.294 132.824 754.014 133.816 757.278 133.816Z" fill="white"/>
<path d="M326.16 226.672C323.44 226.672 320.8 226.336 318.24 225.664C315.68 224.992 313.6 224.096 312 222.976L315.12 215.968C316.624 216.96 318.368 217.76 320.352 218.368C322.336 218.976 324.288 219.28 326.208 219.28C329.856 219.28 331.68 218.368 331.68 216.544C331.68 215.584 331.152 214.88 330.096 214.432C329.072 213.952 327.408 213.456 325.104 212.944C322.576 212.4 320.464 211.824 318.768 211.216C317.072 210.576 315.616 209.568 314.4 208.192C313.184 206.816 312.576 204.96 312.576 202.624C312.576 200.576 313.136 198.736 314.256 197.104C315.376 195.44 317.04 194.128 319.248 193.168C321.488 192.208 324.224 191.728 327.456 191.728C329.664 191.728 331.84 191.984 333.984 192.496C336.128 192.976 338.016 193.696 339.648 194.656L336.72 201.712C333.52 199.984 330.416 199.12 327.408 199.12C325.52 199.12 324.144 199.408 323.28 199.984C322.416 200.528 321.984 201.248 321.984 202.144C321.984 203.04 322.496 203.712 323.52 204.16C324.544 204.608 326.192 205.072 328.464 205.552C331.024 206.096 333.136 206.688 334.8 207.328C336.496 207.936 337.952 208.928 339.168 210.304C340.416 211.648 341.04 213.488 341.04 215.824C341.04 217.84 340.48 219.664 339.36 221.296C338.24 222.928 336.56 224.24 334.32 225.232C332.08 226.192 329.36 226.672 326.16 226.672ZM356.806 216.88L354.118 219.616V226H344.998V190.384H354.118V209.056L363.43 199.984H374.23L363.43 211.12L375.142 226H364.102L356.806 216.88ZM377.811 199.984H386.931V226H377.811V199.984ZM382.371 197.104C380.707 197.104 379.363 196.64 378.339 195.712C377.315 194.784 376.803 193.632 376.803 192.256C376.803 190.88 377.315 189.728 378.339 188.8C379.363 187.872 380.707 187.408 382.371 187.408C384.035 187.408 385.379 187.856 386.403 188.752C387.427 189.616 387.939 190.736 387.939 192.112C387.939 193.552 387.427 194.752 386.403 195.712C385.379 196.64 384.035 197.104 382.371 197.104ZM392.858 190.384H401.978V226H392.858V190.384ZM407.905 190.384H417.025V226H407.905V190.384ZM432.408 226.432C430.232 226.432 428.088 226.192 425.976 225.712C423.864 225.2 422.168 224.544 420.888 223.744L423.624 217.504C424.808 218.24 426.216 218.832 427.848 219.28C429.48 219.696 431.096 219.904 432.695 219.904C434.168 219.904 435.208 219.76 435.816 219.472C436.456 219.152 436.776 218.704 436.776 218.128C436.776 217.552 436.392 217.152 435.624 216.928C434.888 216.672 433.704 216.432 432.072 216.208C429.992 215.952 428.216 215.616 426.744 215.2C425.304 214.784 424.056 214.016 423 212.896C421.944 211.776 421.416 210.208 421.416 208.192C421.416 206.528 421.912 205.056 422.904 203.776C423.896 202.464 425.336 201.44 427.224 200.704C429.144 199.936 431.432 199.552 434.088 199.552C435.976 199.552 437.848 199.744 439.704 200.128C441.56 200.512 443.112 201.056 444.36 201.76L441.624 207.952C439.32 206.672 436.824 206.032 434.135 206.032C432.696 206.032 431.64 206.208 430.968 206.56C430.296 206.88 429.96 207.312 429.96 207.856C429.96 208.464 430.328 208.896 431.064 209.152C431.8 209.376 433.016 209.616 434.712 209.872C436.856 210.192 438.632 210.56 440.04 210.976C441.448 211.392 442.664 212.16 443.688 213.28C444.744 214.368 445.272 215.904 445.272 217.888C445.272 219.52 444.776 220.992 443.784 222.304C442.792 223.584 441.32 224.592 439.368 225.328C437.448 226.064 435.128 226.432 432.408 226.432ZM490.194 226.576L486.402 223.216C484.834 224.336 483.09 225.2 481.17 225.808C479.25 226.384 477.234 226.672 475.122 226.672C472.594 226.672 470.306 226.272 468.258 225.472C466.21 224.64 464.61 223.504 463.458 222.064C462.306 220.624 461.73 219.008 461.73 217.216C461.73 215.104 462.29 213.264 463.41 211.696C464.53 210.096 466.306 208.64 468.738 207.328C466.594 205.152 465.522 202.896 465.522 200.56C465.522 198.864 465.986 197.36 466.914 196.048C467.842 194.736 469.154 193.728 470.85 193.024C472.578 192.288 474.562 191.92 476.802 191.92C479.906 191.92 482.402 192.656 484.29 194.128C486.21 195.568 487.17 197.52 487.17 199.984C487.17 201.712 486.658 203.248 485.634 204.592C484.642 205.936 483.074 207.2 480.93 208.384L485.826 212.752C486.466 211.344 486.962 209.744 487.314 207.952L494.658 210.16C494.018 213.04 492.978 215.584 491.538 217.792L495.09 220.96L490.194 226.576ZM476.802 197.92C475.874 197.92 475.138 198.16 474.594 198.64C474.082 199.088 473.826 199.68 473.826 200.416C473.826 200.96 473.97 201.488 474.258 202C474.578 202.48 475.154 203.12 475.986 203.92C477.266 203.248 478.162 202.624 478.674 202.048C479.218 201.44 479.49 200.816 479.49 200.176C479.49 199.472 479.25 198.928 478.77 198.544C478.322 198.128 477.666 197.92 476.802 197.92ZM475.794 219.712C477.65 219.712 479.362 219.248 480.93 218.32L473.682 211.888C472.626 212.528 471.858 213.2 471.378 213.904C470.898 214.576 470.658 215.344 470.658 216.208C470.658 217.232 471.122 218.08 472.05 218.752C472.978 219.392 474.226 219.712 475.794 219.712ZM540.641 218.656V226H513.665V192.4H540.017V199.744H523.073V205.408H538.001V212.512H523.073V218.656H540.641ZM573.037 190.384V226H564.349V223.408C562.653 225.424 560.109 226.432 556.717 226.432C554.349 226.432 552.189 225.888 550.237 224.8C548.285 223.68 546.733 222.096 545.581 220.048C544.461 218 543.901 215.632 543.901 212.944C543.901 210.256 544.461 207.904 545.581 205.888C546.733 203.84 548.285 202.272 550.237 201.184C552.189 200.096 554.349 199.552 556.717 199.552C559.821 199.552 562.221 200.448 563.917 202.24V190.384H573.037ZM558.637 219.184C560.205 219.184 561.501 218.64 562.525 217.552C563.549 216.432 564.061 214.896 564.061 212.944C564.061 211.024 563.549 209.52 562.525 208.432C561.533 207.344 560.237 206.8 558.637 206.8C557.037 206.8 555.725 207.344 554.701 208.432C553.677 209.52 553.165 211.024 553.165 212.944C553.165 214.896 553.677 216.432 554.701 217.552C555.725 218.64 557.037 219.184 558.637 219.184ZM606.265 199.984V226H597.577V223.216C596.617 224.272 595.465 225.072 594.121 225.616C592.777 226.16 591.353 226.432 589.849 226.432C586.489 226.432 583.801 225.44 581.785 223.456C579.801 221.472 578.809 218.496 578.809 214.528V199.984H587.929V213.04C587.929 214.992 588.297 216.416 589.033 217.312C589.769 218.208 590.841 218.656 592.249 218.656C593.689 218.656 594.857 218.16 595.753 217.168C596.681 216.144 597.145 214.592 597.145 212.512V199.984H606.265ZM625.435 226.432C622.555 226.432 619.979 225.856 617.707 224.704C615.435 223.552 613.659 221.952 612.379 219.904C611.131 217.856 610.507 215.536 610.507 212.944C610.507 210.352 611.131 208.048 612.379 206.032C613.659 203.984 615.435 202.4 617.707 201.28C619.979 200.128 622.555 199.552 625.435 199.552C628.379 199.552 630.923 200.192 633.067 201.472C635.211 202.72 636.731 204.464 637.627 206.704L630.571 210.304C629.387 207.968 627.659 206.8 625.387 206.8C623.755 206.8 622.395 207.344 621.307 208.432C620.251 209.52 619.723 211.024 619.723 212.944C619.723 214.896 620.251 216.432 621.307 217.552C622.395 218.64 623.755 219.184 625.387 219.184C627.659 219.184 629.387 218.016 630.571 215.68L637.627 219.28C636.731 221.52 635.211 223.28 633.067 224.56C630.923 225.808 628.379 226.432 625.435 226.432ZM652.149 199.552C656.469 199.552 659.765 200.544 662.037 202.528C664.309 204.48 665.445 207.488 665.445 211.552V226H656.949V222.64C655.637 225.168 653.077 226.432 649.269 226.432C647.253 226.432 645.509 226.08 644.037 225.376C642.565 224.672 641.445 223.728 640.677 222.544C639.941 221.328 639.573 219.952 639.573 218.416C639.573 215.952 640.517 214.048 642.405 212.704C644.293 211.328 647.205 210.64 651.141 210.64H656.325C656.165 207.888 654.325 206.512 650.805 206.512C649.557 206.512 648.293 206.72 647.013 207.136C645.733 207.52 644.645 208.064 643.749 208.768L640.677 202.576C642.117 201.616 643.861 200.88 645.909 200.368C647.989 199.824 650.069 199.552 652.149 199.552ZM651.813 220.672C652.869 220.672 653.797 220.416 654.597 219.904C655.397 219.392 655.973 218.64 656.325 217.648V215.392H652.389C649.733 215.392 648.405 216.272 648.405 218.032C648.405 218.832 648.709 219.472 649.317 219.952C649.925 220.432 650.757 220.672 651.813 220.672ZM689.154 224.944C688.386 225.424 687.442 225.792 686.322 226.048C685.234 226.304 684.066 226.432 682.818 226.432C679.426 226.432 676.818 225.6 674.994 223.936C673.17 222.272 672.258 219.792 672.258 216.496V207.76H668.466V200.944H672.258V194.176H681.378V200.944H687.33V207.76H681.378V216.4C681.378 217.328 681.618 218.064 682.098 218.608C682.61 219.12 683.282 219.376 684.114 219.376C685.17 219.376 686.098 219.104 686.898 218.56L689.154 224.944ZM692.67 199.984H701.79V226H692.67V199.984ZM697.23 197.104C695.566 197.104 694.222 196.64 693.198 195.712C692.174 194.784 691.662 193.632 691.662 192.256C691.662 190.88 692.174 189.728 693.198 188.8C694.222 187.872 695.566 187.408 697.23 187.408C698.894 187.408 700.238 187.856 701.262 188.752C702.286 189.616 702.798 190.736 702.798 192.112C702.798 193.552 702.286 194.752 701.262 195.712C700.238 196.64 698.894 197.104 697.23 197.104ZM720.773 226.432C717.989 226.432 715.477 225.856 713.237 224.704C710.997 223.552 709.237 221.952 707.957 219.904C706.709 217.856 706.085 215.536 706.085 212.944C706.085 210.384 706.709 208.08 707.957 206.032C709.237 203.984 710.981 202.4 713.189 201.28C715.429 200.128 717.957 199.552 720.773 199.552C723.589 199.552 726.117 200.128 728.357 201.28C730.597 202.4 732.341 203.984 733.589 206.032C734.837 208.048 735.461 210.352 735.461 212.944C735.461 215.536 734.837 217.856 733.589 219.904C732.341 221.952 730.597 223.552 728.357 224.704C726.117 225.856 723.589 226.432 720.773 226.432ZM720.773 219.184C722.373 219.184 723.685 218.64 724.709 217.552C725.733 216.432 726.245 214.896 726.245 212.944C726.245 211.024 725.733 209.52 724.709 208.432C723.685 207.344 722.373 206.8 720.773 206.8C719.173 206.8 717.861 207.344 716.837 208.432C715.813 209.52 715.301 211.024 715.301 212.944C715.301 214.896 715.813 216.432 716.837 217.552C717.861 218.64 719.173 219.184 720.773 219.184ZM756.63 199.552C759.862 199.552 762.454 200.512 764.406 202.432C766.39 204.352 767.382 207.248 767.382 211.12V226H758.262V212.608C758.262 209.056 756.838 207.28 753.99 207.28C752.422 207.28 751.158 207.792 750.198 208.816C749.27 209.84 748.806 211.376 748.806 213.424V226H739.686V199.984H748.374V202.816C749.398 201.76 750.614 200.96 752.022 200.416C753.43 199.84 754.966 199.552 756.63 199.552Z" fill="white"/>
<path d="M341.039 370V321H352.379V360.76H376.949V370H341.039ZM401.001 370.56C396.707 370.56 392.927 369.72 389.661 368.04C386.441 366.36 383.944 364.073 382.171 361.18C380.397 358.24 379.511 354.903 379.511 351.17C379.511 347.39 380.374 344.053 382.101 341.16C383.874 338.22 386.277 335.933 389.311 334.3C392.344 332.62 395.774 331.78 399.601 331.78C403.287 331.78 406.601 332.573 409.541 334.16C412.527 335.7 414.884 337.94 416.611 340.88C418.337 343.773 419.201 347.25 419.201 351.31C419.201 351.73 419.177 352.22 419.131 352.78C419.084 353.293 419.037 353.783 418.991 354.25H388.401V347.88H413.251L409.051 349.77C409.051 347.81 408.654 346.107 407.861 344.66C407.067 343.213 405.971 342.093 404.571 341.3C403.171 340.46 401.537 340.04 399.671 340.04C397.804 340.04 396.147 340.46 394.701 341.3C393.301 342.093 392.204 343.237 391.411 344.73C390.617 346.177 390.221 347.903 390.221 349.91V351.59C390.221 353.643 390.664 355.463 391.551 357.05C392.484 358.59 393.767 359.78 395.401 360.62C397.081 361.413 399.041 361.81 401.281 361.81C403.287 361.81 405.037 361.507 406.531 360.9C408.071 360.293 409.471 359.383 410.731 358.17L416.541 364.47C414.814 366.43 412.644 367.947 410.031 369.02C407.417 370.047 404.407 370.56 401.001 370.56ZM441.871 370.56C437.437 370.56 433.984 369.44 431.511 367.2C429.037 364.913 427.801 361.53 427.801 357.05V324.01H438.721V356.91C438.721 358.497 439.141 359.733 439.981 360.62C440.821 361.46 441.964 361.88 443.411 361.88C445.137 361.88 446.607 361.413 447.821 360.48L450.761 368.18C449.641 368.973 448.287 369.58 446.701 370C445.161 370.373 443.551 370.56 441.871 370.56ZM421.991 341.58V333.18H448.101V341.58H421.991ZM455.001 341.3L459.621 324.5L461.161 330.87C459.154 330.87 457.497 330.287 456.191 329.12C454.931 327.907 454.301 326.273 454.301 324.22C454.301 322.213 454.954 320.603 456.261 319.39C457.567 318.13 459.177 317.5 461.091 317.5C463.051 317.5 464.661 318.13 465.921 319.39C467.181 320.603 467.811 322.213 467.811 324.22C467.811 324.827 467.764 325.433 467.671 326.04C467.624 326.6 467.461 327.277 467.181 328.07C466.947 328.863 466.551 329.913 465.991 331.22L461.931 341.3H455.001ZM486.65 370.56C483.43 370.56 480.327 370.187 477.34 369.44C474.4 368.647 472.067 367.667 470.34 366.5L473.98 358.66C475.707 359.733 477.737 360.62 480.07 361.32C482.45 361.973 484.784 362.3 487.07 362.3C489.59 362.3 491.364 361.997 492.39 361.39C493.464 360.783 494 359.943 494 358.87C494 357.983 493.58 357.33 492.74 356.91C491.947 356.443 490.874 356.093 489.52 355.86C488.167 355.627 486.674 355.393 485.04 355.16C483.454 354.927 481.844 354.623 480.21 354.25C478.577 353.83 477.084 353.223 475.73 352.43C474.377 351.637 473.28 350.563 472.44 349.21C471.647 347.857 471.25 346.107 471.25 343.96C471.25 341.58 471.927 339.48 473.28 337.66C474.68 335.84 476.687 334.417 479.3 333.39C481.914 332.317 485.04 331.78 488.68 331.78C491.247 331.78 493.86 332.06 496.52 332.62C499.18 333.18 501.397 333.997 503.17 335.07L499.53 342.84C497.71 341.767 495.867 341.043 494 340.67C492.18 340.25 490.407 340.04 488.68 340.04C486.254 340.04 484.48 340.367 483.36 341.02C482.24 341.673 481.68 342.513 481.68 343.54C481.68 344.473 482.077 345.173 482.87 345.64C483.71 346.107 484.807 346.48 486.16 346.76C487.514 347.04 488.984 347.297 490.57 347.53C492.204 347.717 493.837 348.02 495.47 348.44C497.104 348.86 498.574 349.467 499.88 350.26C501.234 351.007 502.33 352.057 503.17 353.41C504.01 354.717 504.43 356.443 504.43 358.59C504.43 360.923 503.73 363 502.33 364.82C500.93 366.593 498.9 367.993 496.24 369.02C493.627 370.047 490.43 370.56 486.65 370.56ZM549.192 370.56C545.132 370.56 541.515 369.743 538.342 368.11C535.169 366.43 532.672 364.12 530.852 361.18C529.079 358.24 528.192 354.903 528.192 351.17C528.192 347.39 529.079 344.053 530.852 341.16C532.672 338.22 535.169 335.933 538.342 334.3C541.515 332.62 545.132 331.78 549.192 331.78C553.159 331.78 556.612 332.62 559.552 334.3C562.492 335.933 564.662 338.29 566.062 341.37L557.592 345.92C556.612 344.147 555.375 342.84 553.882 342C552.435 341.16 550.849 340.74 549.122 340.74C547.255 340.74 545.575 341.16 544.082 342C542.589 342.84 541.399 344.03 540.512 345.57C539.672 347.11 539.252 348.977 539.252 351.17C539.252 353.363 539.672 355.23 540.512 356.77C541.399 358.31 542.589 359.5 544.082 360.34C545.575 361.18 547.255 361.6 549.122 361.6C550.849 361.6 552.435 361.203 553.882 360.41C555.375 359.57 556.612 358.24 557.592 356.42L566.062 361.04C564.662 364.073 562.492 366.43 559.552 368.11C556.612 369.743 553.159 370.56 549.192 370.56ZM595.034 331.78C598.021 331.78 600.681 332.387 603.014 333.6C605.394 334.767 607.261 336.587 608.614 339.06C609.968 341.487 610.644 344.613 610.644 348.44V370H599.724V350.12C599.724 347.087 599.048 344.847 597.694 343.4C596.388 341.953 594.521 341.23 592.094 341.23C590.368 341.23 588.804 341.603 587.404 342.35C586.051 343.05 584.978 344.147 584.184 345.64C583.438 347.133 583.064 349.047 583.064 351.38V370H572.144V318.06H583.064V342.77L580.614 339.62C581.968 337.1 583.904 335.163 586.424 333.81C588.944 332.457 591.814 331.78 595.034 331.78ZM643.643 370V362.65L642.943 361.04V347.88C642.943 345.547 642.22 343.727 640.773 342.42C639.373 341.113 637.203 340.46 634.263 340.46C632.256 340.46 630.273 340.787 628.313 341.44C626.4 342.047 624.766 342.887 623.413 343.96L619.493 336.33C621.546 334.883 624.02 333.763 626.913 332.97C629.806 332.177 632.746 331.78 635.733 331.78C641.473 331.78 645.93 333.133 649.103 335.84C652.276 338.547 653.863 342.77 653.863 348.51V370H643.643ZM632.163 370.56C629.223 370.56 626.703 370.07 624.603 369.09C622.503 368.063 620.893 366.687 619.773 364.96C618.653 363.233 618.093 361.297 618.093 359.15C618.093 356.91 618.63 354.95 619.703 353.27C620.823 351.59 622.573 350.283 624.953 349.35C627.333 348.37 630.436 347.88 634.263 347.88H644.273V354.25H635.453C632.886 354.25 631.113 354.67 630.133 355.51C629.2 356.35 628.733 357.4 628.733 358.66C628.733 360.06 629.27 361.18 630.343 362.02C631.463 362.813 632.98 363.21 634.893 363.21C636.713 363.21 638.346 362.79 639.793 361.95C641.24 361.063 642.29 359.78 642.943 358.1L644.623 363.14C643.83 365.567 642.383 367.41 640.283 368.67C638.183 369.93 635.476 370.56 632.163 370.56ZM679.146 370.56C674.713 370.56 671.259 369.44 668.786 367.2C666.313 364.913 665.076 361.53 665.076 357.05V324.01H675.996V356.91C675.996 358.497 676.416 359.733 677.256 360.62C678.096 361.46 679.239 361.88 680.686 361.88C682.413 361.88 683.883 361.413 685.096 360.48L688.036 368.18C686.916 368.973 685.563 369.58 683.976 370C682.436 370.373 680.826 370.56 679.146 370.56ZM659.266 341.58V333.18H685.376V341.58H659.266ZM698.98 370.56C697.113 370.56 695.503 369.93 694.15 368.67C692.843 367.363 692.19 365.707 692.19 363.7C692.19 361.693 692.843 360.083 694.15 358.87C695.503 357.61 697.113 356.98 698.98 356.98C700.893 356.98 702.503 357.61 703.81 358.87C705.116 360.083 705.77 361.693 705.77 363.7C705.77 365.707 705.116 367.363 703.81 368.67C702.503 369.93 700.893 370.56 698.98 370.56ZM717.3 370.56C715.433 370.56 713.823 369.93 712.47 368.67C711.163 367.363 710.51 365.707 710.51 363.7C710.51 361.693 711.163 360.083 712.47 358.87C713.823 357.61 715.433 356.98 717.3 356.98C719.213 356.98 720.823 357.61 722.13 358.87C723.437 360.083 724.09 361.693 724.09 363.7C724.09 365.707 723.437 367.363 722.13 368.67C720.823 369.93 719.213 370.56 717.3 370.56ZM735.62 370.56C733.754 370.56 732.144 369.93 730.79 368.67C729.484 367.363 728.83 365.707 728.83 363.7C728.83 361.693 729.484 360.083 730.79 358.87C732.144 357.61 733.754 356.98 735.62 356.98C737.534 356.98 739.144 357.61 740.45 358.87C741.757 360.083 742.41 361.693 742.41 363.7C742.41 365.707 741.757 367.363 740.45 368.67C739.144 369.93 737.534 370.56 735.62 370.56Z" fill="#FFC107"/>
</g>
<defs>
<clipPath id="clip0_902_2">
<rect width="1080" height="608" fill="white"/>
</clipPath>
</defs>
</svg>
