<svg width="94" height="40" viewBox="0 0 94 40" fill="none" xmlns="http://www.w3.org/2000/svg">
<rect width="94" height="40" fill="#157A6E"/>
<path d="M16.232 21L16.2 15.064L13.32 19.896H11.912L9.048 15.224V21H6.12V9.8H8.728L12.664 16.264L16.504 9.8H19.112L19.144 21H16.232ZM30.1056 16.68C30.1056 16.7013 30.0896 16.952 30.0576 17.432H23.7536C23.8816 17.88 24.127 18.2267 24.4896 18.472C24.863 18.7067 25.327 18.824 25.8816 18.824C26.2976 18.824 26.655 18.7653 26.9536 18.648C27.263 18.5307 27.5723 18.3387 27.8816 18.072L29.4816 19.736C28.639 20.6747 27.407 21.144 25.7856 21.144C24.7723 21.144 23.8816 20.952 23.1136 20.568C22.3456 20.184 21.7483 19.6507 21.3216 18.968C20.9056 18.2853 20.6976 17.512 20.6976 16.648C20.6976 15.7947 20.9003 15.032 21.3056 14.36C21.7216 13.6773 22.2923 13.144 23.0176 12.76C23.743 12.376 24.559 12.184 25.4656 12.184C26.3296 12.184 27.1136 12.3653 27.8176 12.728C28.5216 13.08 29.0763 13.5973 29.4816 14.28C29.8976 14.952 30.1056 15.752 30.1056 16.68ZM25.4816 14.344C25.0123 14.344 24.6176 14.4773 24.2976 14.744C23.9883 15.0107 23.791 15.3733 23.7056 15.832H27.2576C27.1723 15.3733 26.9696 15.0107 26.6496 14.744C26.3403 14.4773 25.951 14.344 25.4816 14.344ZM40.7233 9.128V21H37.8273V20.136C37.2619 20.808 36.4139 21.144 35.2833 21.144C34.4939 21.144 33.7739 20.9627 33.1233 20.6C32.4726 20.2267 31.9553 19.6987 31.5713 19.016C31.1979 18.3333 31.0113 17.544 31.0113 16.648C31.0113 15.752 31.1979 14.968 31.5713 14.296C31.9553 13.6133 32.4726 13.0907 33.1233 12.728C33.7739 12.3653 34.4939 12.184 35.2833 12.184C36.3179 12.184 37.1179 12.4827 37.6833 13.08V9.128H40.7233ZM35.9233 18.728C36.4459 18.728 36.8779 18.5467 37.2193 18.184C37.5606 17.8107 37.7313 17.2987 37.7313 16.648C37.7313 16.008 37.5606 15.5067 37.2193 15.144C36.8886 14.7813 36.4566 14.6 35.9233 14.6C35.3899 14.6 34.9526 14.7813 34.6113 15.144C34.2699 15.5067 34.0993 16.008 34.0993 16.648C34.0993 17.2987 34.2699 17.8107 34.6113 18.184C34.9526 18.5467 35.3899 18.728 35.9233 18.728ZM42.4711 15.272H47.1431V17.608H42.4711V15.272ZM57.6343 15.16C58.2743 15.384 58.7756 15.736 59.1383 16.216C59.5009 16.6853 59.6823 17.256 59.6823 17.928C59.6823 18.9093 59.2876 19.6667 58.4983 20.2C57.7089 20.7333 56.5676 21 55.0743 21H49.0263V9.8H54.7543C56.1836 9.8 57.2716 10.0667 58.0183 10.6C58.7649 11.1227 59.1383 11.832 59.1383 12.728C59.1383 13.2613 59.0049 13.7413 58.7383 14.168C58.4823 14.584 58.1143 14.9147 57.6343 15.16ZM52.1623 12.088V14.248H54.3383C55.4049 14.248 55.9383 13.8853 55.9383 13.16C55.9383 12.4453 55.4049 12.088 54.3383 12.088H52.1623ZM54.8183 18.712C55.9276 18.712 56.4823 18.3333 56.4823 17.576C56.4823 16.8187 55.9276 16.44 54.8183 16.44H52.1623V18.712H54.8183ZM61.1791 9.128H64.2191V21H61.1791V9.128ZM70.5468 21.144C69.6188 21.144 68.7814 20.952 68.0348 20.568C67.2881 20.184 66.7014 19.6507 66.2747 18.968C65.8588 18.2853 65.6508 17.512 65.6508 16.648C65.6508 15.7947 65.8588 15.0267 66.2747 14.344C66.7014 13.6613 67.2828 13.1333 68.0188 12.76C68.7654 12.376 69.6081 12.184 70.5468 12.184C71.4854 12.184 72.3281 12.376 73.0748 12.76C73.8214 13.1333 74.4028 13.6613 74.8188 14.344C75.2348 15.016 75.4428 15.784 75.4428 16.648C75.4428 17.512 75.2348 18.2853 74.8188 18.968C74.4028 19.6507 73.8214 20.184 73.0748 20.568C72.3281 20.952 71.4854 21.144 70.5468 21.144ZM70.5468 18.728C71.0801 18.728 71.5174 18.5467 71.8588 18.184C72.2001 17.8107 72.3708 17.2987 72.3708 16.648C72.3708 16.008 72.2001 15.5067 71.8588 15.144C71.5174 14.7813 71.0801 14.6 70.5468 14.6C70.0134 14.6 69.5761 14.7813 69.2348 15.144C68.8934 15.5067 68.7228 16.008 68.7228 16.648C68.7228 17.2987 68.8934 17.8107 69.2348 18.184C69.5761 18.5467 70.0134 18.728 70.5468 18.728ZM86.179 12.328V19.416C86.179 21.0267 85.7417 22.232 84.867 23.032C83.9923 23.8427 82.7337 24.248 81.091 24.248C80.2377 24.248 79.4377 24.152 78.691 23.96C77.9443 23.768 77.3097 23.4853 76.787 23.112L77.891 20.984C78.243 21.272 78.6857 21.496 79.219 21.656C79.763 21.8267 80.2963 21.912 80.819 21.912C81.619 21.912 82.2057 21.736 82.579 21.384C82.9523 21.032 83.139 20.5093 83.139 19.816V19.528C82.5523 20.2107 81.6937 20.552 80.563 20.552C79.795 20.552 79.0857 20.3813 78.435 20.04C77.7843 19.688 77.267 19.1973 76.883 18.568C76.499 17.928 76.307 17.192 76.307 16.36C76.307 15.5387 76.499 14.8133 76.883 14.184C77.267 13.544 77.7843 13.0533 78.435 12.712C79.0857 12.36 79.795 12.184 80.563 12.184C81.8003 12.184 82.707 12.584 83.283 13.384V12.328H86.179ZM81.283 18.136C81.827 18.136 82.275 17.9707 82.627 17.64C82.9897 17.3093 83.171 16.8827 83.171 16.36C83.171 15.8373 82.995 15.416 82.643 15.096C82.291 14.7653 81.8377 14.6 81.283 14.6C80.7283 14.6 80.2697 14.7653 79.907 15.096C79.555 15.416 79.379 15.8373 79.379 16.36C79.379 16.8827 79.5603 17.3093 79.923 17.64C80.2857 17.9707 80.739 18.136 81.283 18.136Z" fill="white"/>
<path d="M11.1107 28.4V34H9.52666V31.816H7.36666V34H5.78266V28.4H7.36666V30.504H9.52666V28.4H11.1107ZM16.588 31.84C16.588 31.8507 16.58 31.976 16.564 32.216H13.412C13.476 32.44 13.5986 32.6133 13.78 32.736C13.9666 32.8533 14.1986 32.912 14.476 32.912C14.684 32.912 14.8626 32.8827 15.012 32.824C15.1666 32.7653 15.3213 32.6693 15.476 32.536L16.276 33.368C15.8546 33.8373 15.2386 34.072 14.428 34.072C13.9213 34.072 13.476 33.976 13.092 33.784C12.708 33.592 12.4093 33.3253 12.196 32.984C11.988 32.6427 11.884 32.256 11.884 31.824C11.884 31.3973 11.9853 31.016 12.188 30.68C12.396 30.3387 12.6813 30.072 13.044 29.88C13.4066 29.688 13.8146 29.592 14.268 29.592C14.7 29.592 15.092 29.6827 15.444 29.864C15.796 30.04 16.0733 30.2987 16.276 30.64C16.484 30.976 16.588 31.376 16.588 31.84ZM14.276 30.672C14.0413 30.672 13.844 30.7387 13.684 30.872C13.5293 31.0053 13.4306 31.1867 13.388 31.416H15.164C15.1213 31.1867 15.02 31.0053 14.86 30.872C14.7053 30.7387 14.5106 30.672 14.276 30.672ZM19.0196 29.592C19.7396 29.592 20.2889 29.7573 20.6676 30.088C21.0463 30.4133 21.2356 30.9147 21.2356 31.592V34H19.8196V33.44C19.6009 33.8613 19.1743 34.072 18.5396 34.072C18.2036 34.072 17.9129 34.0133 17.6676 33.896C17.4223 33.7787 17.2356 33.6213 17.1076 33.424C16.9849 33.2213 16.9236 32.992 16.9236 32.736C16.9236 32.3253 17.0809 32.008 17.3956 31.784C17.7103 31.5547 18.1956 31.44 18.8516 31.44H19.7156C19.6889 30.9813 19.3823 30.752 18.7956 30.752C18.5876 30.752 18.3769 30.7867 18.1636 30.856C17.9503 30.92 17.7689 31.0107 17.6196 31.128L17.1076 30.096C17.3476 29.936 17.6383 29.8133 17.9796 29.728C18.3263 29.6373 18.6729 29.592 19.0196 29.592ZM18.9636 33.112C19.1396 33.112 19.2943 33.0693 19.4276 32.984C19.5609 32.8987 19.6569 32.7733 19.7156 32.608V32.232H19.0596C18.6169 32.232 18.3956 32.3787 18.3956 32.672C18.3956 32.8053 18.4463 32.912 18.5476 32.992C18.6489 33.072 18.7876 33.112 18.9636 33.112ZM22.195 28.064H23.715V34H22.195V28.064ZM28.1245 33.824C27.9965 33.904 27.8392 33.9653 27.6525 34.008C27.4712 34.0507 27.2765 34.072 27.0685 34.072C26.5032 34.072 26.0685 33.9333 25.7645 33.656C25.4605 33.3787 25.3085 32.9653 25.3085 32.416V30.96H24.6765V29.824H25.3085V28.696H26.8285V29.824H27.8205V30.96H26.8285V32.4C26.8285 32.5547 26.8685 32.6773 26.9485 32.768C27.0339 32.8533 27.1459 32.896 27.2845 32.896C27.4605 32.896 27.6152 32.8507 27.7485 32.76L28.1245 33.824ZM31.5347 29.592C32.0733 29.592 32.5053 29.752 32.8307 30.072C33.1613 30.392 33.3267 30.8747 33.3267 31.52V34H31.8067V31.768C31.8067 31.176 31.5693 30.88 31.0947 30.88C30.8333 30.88 30.6227 30.9653 30.4627 31.136C30.308 31.3067 30.2307 31.5627 30.2307 31.904V34H28.7107V28.064H30.2307V30.064C30.396 29.9093 30.5907 29.792 30.8147 29.712C31.0387 29.632 31.2787 29.592 31.5347 29.592ZM41.1131 34.096L40.4811 33.536C40.2198 33.7227 39.9291 33.8667 39.6091 33.968C39.2891 34.064 38.9531 34.112 38.6011 34.112C38.1798 34.112 37.7984 34.0453 37.4571 33.912C37.1158 33.7733 36.8491 33.584 36.6571 33.344C36.4651 33.104 36.3691 32.8347 36.3691 32.536C36.3691 32.184 36.4624 31.8773 36.6491 31.616C36.8358 31.3493 37.1318 31.1067 37.5371 30.888C37.1798 30.5253 37.0011 30.1493 37.0011 29.76C37.0011 29.4773 37.0784 29.2267 37.2331 29.008C37.3878 28.7893 37.6064 28.6213 37.8891 28.504C38.1771 28.3813 38.5078 28.32 38.8811 28.32C39.3984 28.32 39.8144 28.4427 40.1291 28.688C40.4491 28.928 40.6091 29.2533 40.6091 29.664C40.6091 29.952 40.5238 30.208 40.3531 30.432C40.1878 30.656 39.9264 30.8667 39.5691 31.064L40.3851 31.792C40.4918 31.5573 40.5744 31.2907 40.6331 30.992L41.8571 31.36C41.7504 31.84 41.5771 32.264 41.3371 32.632L41.9291 33.16L41.1131 34.096ZM38.8811 29.32C38.7264 29.32 38.6038 29.36 38.5131 29.44C38.4278 29.5147 38.3851 29.6133 38.3851 29.736C38.3851 29.8267 38.4091 29.9147 38.4571 30C38.5104 30.08 38.6064 30.1867 38.7451 30.32C38.9584 30.208 39.1078 30.104 39.1931 30.008C39.2838 29.9067 39.3291 29.8027 39.3291 29.696C39.3291 29.5787 39.2891 29.488 39.2091 29.424C39.1344 29.3547 39.0251 29.32 38.8811 29.32ZM38.7131 32.952C39.0224 32.952 39.3078 32.8747 39.5691 32.72L38.3611 31.648C38.1851 31.7547 38.0571 31.8667 37.9771 31.984C37.8971 32.096 37.8571 32.224 37.8571 32.368C37.8571 32.5387 37.9344 32.68 38.0891 32.792C38.2438 32.8987 38.4518 32.952 38.7131 32.952ZM49.5208 32.776V34H45.0248V28.4H49.4168V29.624H46.5928V30.568H49.0808V31.752H46.5928V32.776H49.5208ZM54.9202 28.064V34H53.4722V33.568C53.1896 33.904 52.7656 34.072 52.2002 34.072C51.8056 34.072 51.4456 33.9813 51.1202 33.8C50.7949 33.6133 50.5362 33.3493 50.3442 33.008C50.1576 32.6667 50.0642 32.272 50.0642 31.824C50.0642 31.376 50.1576 30.984 50.3442 30.648C50.5362 30.3067 50.7949 30.0453 51.1202 29.864C51.4456 29.6827 51.8056 29.592 52.2002 29.592C52.7176 29.592 53.1176 29.7413 53.4002 30.04V28.064H54.9202ZM52.5202 32.864C52.7816 32.864 52.9976 32.7733 53.1682 32.592C53.3389 32.4053 53.4242 32.1493 53.4242 31.824C53.4242 31.504 53.3389 31.2533 53.1682 31.072C53.0029 30.8907 52.7869 30.8 52.5202 30.8C52.2536 30.8 52.0349 30.8907 51.8642 31.072C51.6936 31.2533 51.6082 31.504 51.6082 31.824C51.6082 32.1493 51.6936 32.4053 51.8642 32.592C52.0349 32.7733 52.2536 32.864 52.5202 32.864ZM60.4582 29.664V34H59.0102V33.536C58.8502 33.712 58.6582 33.8453 58.4342 33.936C58.2102 34.0267 57.9728 34.072 57.7222 34.072C57.1622 34.072 56.7142 33.9067 56.3782 33.576C56.0475 33.2453 55.8822 32.7493 55.8822 32.088V29.664H57.4022V31.84C57.4022 32.1653 57.4635 32.4027 57.5862 32.552C57.7088 32.7013 57.8875 32.776 58.1222 32.776C58.3622 32.776 58.5568 32.6933 58.7062 32.528C58.8608 32.3573 58.9382 32.0987 58.9382 31.752V29.664H60.4582ZM63.6532 34.072C63.1732 34.072 62.7439 33.976 62.3652 33.784C61.9866 33.592 61.6906 33.3253 61.4772 32.984C61.2692 32.6427 61.1652 32.256 61.1652 31.824C61.1652 31.392 61.2692 31.008 61.4772 30.672C61.6906 30.3307 61.9866 30.0667 62.3652 29.88C62.7439 29.688 63.1732 29.592 63.6532 29.592C64.1439 29.592 64.5679 29.6987 64.9252 29.912C65.2826 30.12 65.5359 30.4107 65.6852 30.784L64.5092 31.384C64.3119 30.9947 64.0239 30.8 63.6452 30.8C63.3732 30.8 63.1466 30.8907 62.9652 31.072C62.7892 31.2533 62.7012 31.504 62.7012 31.824C62.7012 32.1493 62.7892 32.4053 62.9652 32.592C63.1466 32.7733 63.3732 32.864 63.6452 32.864C64.0239 32.864 64.3119 32.6693 64.5092 32.28L65.6852 32.88C65.5359 33.2533 65.2826 33.5467 64.9252 33.76C64.5679 33.968 64.1439 34.072 63.6532 34.072ZM68.1055 29.592C68.8255 29.592 69.3749 29.7573 69.7535 30.088C70.1322 30.4133 70.3215 30.9147 70.3215 31.592V34H68.9055V33.44C68.6869 33.8613 68.2602 34.072 67.6255 34.072C67.2895 34.072 66.9989 34.0133 66.7535 33.896C66.5082 33.7787 66.3215 33.6213 66.1935 33.424C66.0709 33.2213 66.0095 32.992 66.0095 32.736C66.0095 32.3253 66.1669 32.008 66.4815 31.784C66.7962 31.5547 67.2815 31.44 67.9375 31.44H68.8015C68.7749 30.9813 68.4682 30.752 67.8815 30.752C67.6735 30.752 67.4629 30.7867 67.2495 30.856C67.0362 30.92 66.8549 31.0107 66.7055 31.128L66.1935 30.096C66.4335 29.936 66.7242 29.8133 67.0655 29.728C67.4122 29.6373 67.7589 29.592 68.1055 29.592ZM68.0495 33.112C68.2255 33.112 68.3802 33.0693 68.5135 32.984C68.6469 32.8987 68.7429 32.7733 68.8015 32.608V32.232H68.1455C67.7029 32.232 67.4815 32.3787 67.4815 32.672C67.4815 32.8053 67.5322 32.912 67.6335 32.992C67.7349 33.072 67.8735 33.112 68.0495 33.112ZM74.273 33.824C74.145 33.904 73.9876 33.9653 73.801 34.008C73.6196 34.0507 73.425 34.072 73.217 34.072C72.6516 34.072 72.217 33.9333 71.913 33.656C71.609 33.3787 71.457 32.9653 71.457 32.416V30.96H70.825V29.824H71.457V28.696H72.977V29.824H73.969V30.96H72.977V32.4C72.977 32.5547 73.017 32.6773 73.097 32.768C73.1823 32.8533 73.2943 32.896 73.433 32.896C73.609 32.896 73.7636 32.8507 73.897 32.76L74.273 33.824ZM74.8591 29.664H76.3791V34H74.8591V29.664ZM75.6191 29.184C75.3418 29.184 75.1178 29.1067 74.9471 28.952C74.7764 28.7973 74.6911 28.6053 74.6911 28.376C74.6911 28.1467 74.7764 27.9547 74.9471 27.8C75.1178 27.6453 75.3418 27.568 75.6191 27.568C75.8964 27.568 76.1204 27.6427 76.2911 27.792C76.4618 27.936 76.5471 28.1227 76.5471 28.352C76.5471 28.592 76.4618 28.792 76.2911 28.952C76.1204 29.1067 75.8964 29.184 75.6191 29.184ZM79.5429 34.072C79.0789 34.072 78.6602 33.976 78.2869 33.784C77.9136 33.592 77.6202 33.3253 77.4069 32.984C77.1989 32.6427 77.0949 32.256 77.0949 31.824C77.0949 31.3973 77.1989 31.0133 77.4069 30.672C77.6202 30.3307 77.9109 30.0667 78.2789 29.88C78.6522 29.688 79.0736 29.592 79.5429 29.592C80.0122 29.592 80.4336 29.688 80.8069 29.88C81.1802 30.0667 81.4709 30.3307 81.6789 30.672C81.8869 31.008 81.9909 31.392 81.9909 31.824C81.9909 32.256 81.8869 32.6427 81.6789 32.984C81.4709 33.3253 81.1802 33.592 80.8069 33.784C80.4336 33.976 80.0122 34.072 79.5429 34.072ZM79.5429 32.864C79.8096 32.864 80.0282 32.7733 80.1989 32.592C80.3696 32.4053 80.4549 32.1493 80.4549 31.824C80.4549 31.504 80.3696 31.2533 80.1989 31.072C80.0282 30.8907 79.8096 30.8 79.5429 30.8C79.2762 30.8 79.0576 30.8907 78.8869 31.072C78.7162 31.2533 78.6309 31.504 78.6309 31.824C78.6309 32.1493 78.7162 32.4053 78.8869 32.592C79.0576 32.7733 79.2762 32.864 79.5429 32.864ZM85.519 29.592C86.0577 29.592 86.4897 29.752 86.815 30.072C87.1457 30.392 87.311 30.8747 87.311 31.52V34H85.791V31.768C85.791 31.176 85.5537 30.88 85.079 30.88C84.8177 30.88 84.607 30.9653 84.447 31.136C84.2924 31.3067 84.215 31.5627 84.215 31.904V34H82.695V29.664H84.143V30.136C84.3137 29.96 84.5164 29.8267 84.751 29.736C84.9857 29.64 85.2417 29.592 85.519 29.592Z" fill="white"/>
</svg>
