<svg width="400" height="111" viewBox="0 0 400 111" fill="none" xmlns="http://www.w3.org/2000/svg">
<rect width="400" height="111" fill="white"/>
<path d="M88.304 52.672C85.616 52.672 83.136 52.24 80.864 51.376C78.592 50.512 76.608 49.296 74.912 47.728C73.248 46.128 71.952 44.272 71.024 42.16C70.096 40.048 69.632 37.728 69.632 35.2C69.632 32.672 70.096 30.352 71.024 28.24C71.952 26.128 73.248 24.288 74.912 22.72C76.608 21.12 78.592 19.888 80.864 19.024C83.136 18.16 85.616 17.728 88.304 17.728C91.024 17.728 93.504 18.16 95.744 19.024C98.016 19.888 99.984 21.104 101.648 22.672C103.312 24.24 104.608 26.096 105.536 28.24C106.496 30.352 106.976 32.672 106.976 35.2C106.976 37.728 106.496 40.064 105.536 42.208C104.608 44.32 103.312 46.16 101.648 47.728C99.984 49.296 98.016 50.512 95.744 51.376C93.504 52.24 91.024 52.672 88.304 52.672ZM99.296 60.112C97.856 60.112 96.512 59.952 95.264 59.632C94.016 59.344 92.784 58.864 91.568 58.192C90.384 57.52 89.136 56.608 87.824 55.456C86.544 54.304 85.104 52.88 83.504 51.184L93.44 48.688C94.24 49.872 94.96 50.8 95.6 51.472C96.24 52.144 96.864 52.624 97.472 52.912C98.112 53.2 98.784 53.344 99.488 53.344C101.344 53.344 103.04 52.56 104.576 50.992L108.704 55.888C106.368 58.704 103.232 60.112 99.296 60.112ZM88.304 44.8C89.584 44.8 90.768 44.576 91.856 44.128C92.976 43.68 93.936 43.04 94.736 42.208C95.568 41.344 96.208 40.32 96.656 39.136C97.136 37.952 97.376 36.64 97.376 35.2C97.376 33.728 97.136 32.416 96.656 31.264C96.208 30.08 95.568 29.072 94.736 28.24C93.936 27.376 92.976 26.72 91.856 26.272C90.768 25.824 89.584 25.6 88.304 25.6C87.024 25.6 85.824 25.824 84.704 26.272C83.616 26.72 82.656 27.376 81.824 28.24C81.024 29.072 80.384 30.08 79.904 31.264C79.456 32.416 79.232 33.728 79.232 35.2C79.232 36.64 79.456 37.952 79.904 39.136C80.384 40.32 81.024 41.344 81.824 42.208C82.656 43.04 83.616 43.68 84.704 44.128C85.824 44.576 87.024 44.8 88.304 44.8ZM122.466 52.432C120.354 52.432 118.45 52.016 116.754 51.184C115.09 50.352 113.778 49.056 112.818 47.296C111.89 45.504 111.426 43.248 111.426 40.528V25.984H120.546V39.04C120.546 41.056 120.914 42.496 121.65 43.36C122.418 44.224 123.49 44.656 124.866 44.656C125.762 44.656 126.578 44.448 127.314 44.032C128.05 43.616 128.642 42.96 129.09 42.064C129.538 41.136 129.762 39.952 129.762 38.512V25.984H138.882V52H130.194V44.656L131.874 46.72C130.978 48.64 129.682 50.08 127.986 51.04C126.29 51.968 124.45 52.432 122.466 52.432ZM144.756 52V25.984H153.876V52H144.756ZM149.316 23.104C147.652 23.104 146.308 22.64 145.284 21.712C144.26 20.784 143.748 19.632 143.748 18.256C143.748 16.88 144.26 15.728 145.284 14.8C146.308 13.872 147.652 13.408 149.316 13.408C150.98 13.408 152.324 13.856 153.348 14.752C154.372 15.616 154.884 16.736 154.884 18.112C154.884 19.552 154.372 20.752 153.348 21.712C152.356 22.64 151.012 23.104 149.316 23.104ZM158.459 52V46.624L173.051 29.824L174.587 32.752H158.795V25.984H181.979V31.312L167.339 48.16L165.803 45.184H182.459V52H158.459ZM185.335 41.824V34.816H199.351V41.824H185.335ZM205.001 52V18.4H222.185C226.601 18.4 229.897 19.216 232.073 20.848C234.249 22.448 235.337 24.56 235.337 27.184C235.337 28.912 234.873 30.432 233.945 31.744C233.049 33.024 231.769 34.048 230.105 34.816C228.473 35.552 226.521 35.92 224.249 35.92L225.209 33.616C227.577 33.616 229.641 33.984 231.401 34.72C233.161 35.424 234.521 36.464 235.481 37.84C236.473 39.184 236.969 40.832 236.969 42.784C236.969 45.696 235.785 47.968 233.417 49.6C231.081 51.2 227.657 52 223.145 52H205.001ZM214.409 45.136H222.377C224.009 45.136 225.241 44.864 226.073 44.32C226.937 43.744 227.369 42.88 227.369 41.728C227.369 40.576 226.937 39.728 226.073 39.184C225.241 38.608 224.009 38.32 222.377 38.32H213.737V31.744H220.937C222.537 31.744 223.737 31.472 224.537 30.928C225.337 30.384 225.737 29.568 225.737 28.48C225.737 27.392 225.337 26.592 224.537 26.08C223.737 25.536 222.537 25.264 220.937 25.264H214.409V45.136ZM241.459 52V16.384H250.579V52H241.459ZM269.562 52.432C266.714 52.432 264.186 51.856 261.978 50.704C259.77 49.552 258.026 47.968 256.746 45.952C255.498 43.904 254.874 41.568 254.874 38.944C254.874 36.32 255.498 34 256.746 31.984C258.026 29.968 259.77 28.4 261.978 27.28C264.186 26.128 266.714 25.552 269.562 25.552C272.41 25.552 274.938 26.128 277.146 27.28C279.386 28.4 281.13 29.968 282.378 31.984C283.626 34 284.25 36.32 284.25 38.944C284.25 41.568 283.626 43.904 282.378 45.952C281.13 47.968 279.386 49.552 277.146 50.704C274.938 51.856 272.41 52.432 269.562 52.432ZM269.562 45.184C270.618 45.184 271.546 44.944 272.346 44.464C273.178 43.984 273.834 43.28 274.314 42.352C274.794 41.392 275.034 40.256 275.034 38.944C275.034 37.632 274.794 36.528 274.314 35.632C273.834 34.704 273.178 34 272.346 33.52C271.546 33.04 270.618 32.8 269.562 32.8C268.538 32.8 267.61 33.04 266.778 33.52C265.978 34 265.322 34.704 264.81 35.632C264.33 36.528 264.09 37.632 264.09 38.944C264.09 40.256 264.33 41.392 264.81 42.352C265.322 43.28 265.978 43.984 266.778 44.464C267.61 44.944 268.538 45.184 269.562 45.184ZM301.195 61.744C298.699 61.744 296.315 61.456 294.043 60.88C291.803 60.304 289.883 59.456 288.283 58.336L291.595 51.952C292.683 52.816 294.027 53.488 295.627 53.968C297.259 54.48 298.843 54.736 300.379 54.736C302.843 54.736 304.619 54.192 305.707 53.104C306.795 52.048 307.339 50.496 307.339 48.448V45.376L307.819 38.08L307.771 30.736V25.984H316.459V47.248C316.459 52.176 315.131 55.824 312.475 58.192C309.819 60.56 306.059 61.744 301.195 61.744ZM299.611 50.656C297.307 50.656 295.179 50.144 293.227 49.12C291.307 48.064 289.755 46.608 288.571 44.752C287.419 42.864 286.843 40.64 286.843 38.08C286.843 35.52 287.419 33.312 288.571 31.456C289.755 29.568 291.307 28.112 293.227 27.088C295.179 26.064 297.307 25.552 299.611 25.552C301.819 25.552 303.707 26 305.275 26.896C306.843 27.76 308.027 29.12 308.827 30.976C309.659 32.832 310.075 35.2 310.075 38.08C310.075 40.96 309.659 43.328 308.827 45.184C308.027 47.04 306.843 48.416 305.275 49.312C303.707 50.208 301.819 50.656 299.611 50.656ZM301.771 43.408C302.859 43.408 303.819 43.184 304.651 42.736C305.515 42.288 306.187 41.664 306.667 40.864C307.179 40.064 307.435 39.136 307.435 38.08C307.435 37.024 307.179 36.096 306.667 35.296C306.187 34.496 305.515 33.888 304.651 33.472C303.819 33.024 302.859 32.8 301.771 32.8C300.683 32.8 299.707 33.024 298.843 33.472C297.979 33.888 297.291 34.496 296.779 35.296C296.299 36.096 296.059 37.024 296.059 38.08C296.059 39.136 296.299 40.064 296.779 40.864C297.291 41.664 297.979 42.288 298.843 42.736C299.707 43.184 300.683 43.408 301.771 43.408Z" fill="#157A6E"/>
<path d="M93.2871 91.336C91.9271 91.336 90.6071 91.168 89.3271 90.832C88.0471 90.496 87.0071 90.048 86.2071 89.488L87.7671 85.984C88.5191 86.48 89.3911 86.88 90.3831 87.184C91.3751 87.488 92.3511 87.64 93.3111 87.64C95.1351 87.64 96.0471 87.184 96.0471 86.272C96.0471 85.792 95.7831 85.44 95.2551 85.216C94.7431 84.976 93.9111 84.728 92.7591 84.472C91.4951 84.2 90.4391 83.912 89.5911 83.608C88.7431 83.288 88.0151 82.784 87.4071 82.096C86.7991 81.408 86.4951 80.48 86.4951 79.312C86.4951 78.288 86.7751 77.368 87.3351 76.552C87.8951 75.72 88.7271 75.064 89.8311 74.584C90.9511 74.104 92.3191 73.864 93.9351 73.864C95.0391 73.864 96.1271 73.992 97.1991 74.248C98.2711 74.488 99.2151 74.848 100.031 75.328L98.5671 78.856C96.9671 77.992 95.4151 77.56 93.9111 77.56C92.9671 77.56 92.2791 77.704 91.8471 77.992C91.4151 78.264 91.1991 78.624 91.1991 79.072C91.1991 79.52 91.4551 79.856 91.9671 80.08C92.4791 80.304 93.3031 80.536 94.4391 80.776C95.7191 81.048 96.7751 81.344 97.6071 81.664C98.4551 81.968 99.1831 82.464 99.7911 83.152C100.415 83.824 100.727 84.744 100.727 85.912C100.727 86.92 100.447 87.832 99.8871 88.648C99.3271 89.464 98.4871 90.12 97.3671 90.616C96.2471 91.096 94.8871 91.336 93.2871 91.336ZM108.61 86.44L107.266 87.808V91H102.706V73.192H107.266V82.528L111.922 77.992H117.322L111.922 83.56L117.778 91H112.258L108.61 86.44ZM119.112 77.992H123.672V91H119.112V77.992ZM121.392 76.552C120.56 76.552 119.888 76.32 119.376 75.856C118.864 75.392 118.608 74.816 118.608 74.128C118.608 73.44 118.864 72.864 119.376 72.4C119.888 71.936 120.56 71.704 121.392 71.704C122.224 71.704 122.896 71.928 123.408 72.376C123.92 72.808 124.176 73.368 124.176 74.056C124.176 74.776 123.92 75.376 123.408 75.856C122.896 76.32 122.224 76.552 121.392 76.552ZM126.636 73.192H131.196V91H126.636V73.192ZM134.159 73.192H138.719V91H134.159V73.192ZM146.411 91.216C145.323 91.216 144.251 91.096 143.195 90.856C142.139 90.6 141.291 90.272 140.651 89.872L142.019 86.752C142.611 87.12 143.315 87.416 144.131 87.64C144.947 87.848 145.755 87.952 146.555 87.952C147.291 87.952 147.811 87.88 148.115 87.736C148.435 87.576 148.595 87.352 148.595 87.064C148.595 86.776 148.403 86.576 148.019 86.464C147.651 86.336 147.059 86.216 146.243 86.104C145.203 85.976 144.315 85.808 143.579 85.6C142.859 85.392 142.235 85.008 141.707 84.448C141.179 83.888 140.915 83.104 140.915 82.096C140.915 81.264 141.163 80.528 141.659 79.888C142.155 79.232 142.875 78.72 143.819 78.352C144.779 77.968 145.923 77.776 147.251 77.776C148.195 77.776 149.131 77.872 150.059 78.064C150.987 78.256 151.763 78.528 152.387 78.88L151.019 81.976C149.867 81.336 148.619 81.016 147.275 81.016C146.555 81.016 146.027 81.104 145.691 81.28C145.355 81.44 145.187 81.656 145.187 81.928C145.187 82.232 145.371 82.448 145.739 82.576C146.107 82.688 146.715 82.808 147.563 82.936C148.635 83.096 149.523 83.28 150.227 83.488C150.931 83.696 151.539 84.08 152.051 84.64C152.579 85.184 152.843 85.952 152.843 86.944C152.843 87.76 152.595 88.496 152.099 89.152C151.603 89.792 150.867 90.296 149.891 90.664C148.931 91.032 147.771 91.216 146.411 91.216ZM175.304 91.288L173.408 89.608C172.624 90.168 171.752 90.6 170.792 90.904C169.832 91.192 168.824 91.336 167.768 91.336C166.504 91.336 165.36 91.136 164.336 90.736C163.312 90.32 162.512 89.752 161.936 89.032C161.36 88.312 161.072 87.504 161.072 86.608C161.072 85.552 161.352 84.632 161.912 83.848C162.472 83.048 163.36 82.32 164.576 81.664C163.504 80.576 162.968 79.448 162.968 78.28C162.968 77.432 163.2 76.68 163.664 76.024C164.128 75.368 164.784 74.864 165.632 74.512C166.496 74.144 167.488 73.96 168.608 73.96C170.16 73.96 171.408 74.328 172.352 75.064C173.312 75.784 173.792 76.76 173.792 77.992C173.792 78.856 173.536 79.624 173.024 80.296C172.528 80.968 171.744 81.6 170.672 82.192L173.12 84.376C173.44 83.672 173.688 82.872 173.864 81.976L177.536 83.08C177.216 84.52 176.696 85.792 175.976 86.896L177.752 88.48L175.304 91.288ZM168.608 76.96C168.144 76.96 167.776 77.08 167.504 77.32C167.248 77.544 167.12 77.84 167.12 78.208C167.12 78.48 167.192 78.744 167.336 79C167.496 79.24 167.784 79.56 168.2 79.96C168.84 79.624 169.288 79.312 169.544 79.024C169.816 78.72 169.952 78.408 169.952 78.088C169.952 77.736 169.832 77.464 169.592 77.272C169.368 77.064 169.04 76.96 168.608 76.96ZM168.104 87.856C169.032 87.856 169.888 87.624 170.672 87.16L167.048 83.944C166.52 84.264 166.136 84.6 165.896 84.952C165.656 85.288 165.536 85.672 165.536 86.104C165.536 86.616 165.768 87.04 166.232 87.376C166.696 87.696 167.32 87.856 168.104 87.856ZM200.527 87.328V91H187.039V74.2H200.215V77.872H191.743V80.704H199.207V84.256H191.743V87.328H200.527ZM216.726 73.192V91H212.382V89.704C211.534 90.712 210.262 91.216 208.566 91.216C207.382 91.216 206.302 90.944 205.326 90.4C204.35 89.84 203.574 89.048 202.998 88.024C202.438 87 202.158 85.816 202.158 84.472C202.158 83.128 202.438 81.952 202.998 80.944C203.574 79.92 204.35 79.136 205.326 78.592C206.302 78.048 207.382 77.776 208.566 77.776C210.118 77.776 211.318 78.224 212.166 79.12V73.192H216.726ZM209.526 87.592C210.31 87.592 210.958 87.32 211.47 86.776C211.982 86.216 212.238 85.448 212.238 84.472C212.238 83.512 211.982 82.76 211.47 82.216C210.974 81.672 210.326 81.4 209.526 81.4C208.726 81.4 208.07 81.672 207.558 82.216C207.046 82.76 206.79 83.512 206.79 84.472C206.79 85.448 207.046 86.216 207.558 86.776C208.07 87.32 208.726 87.592 209.526 87.592ZM233.339 77.992V91H228.995V89.608C228.515 90.136 227.939 90.536 227.267 90.808C226.595 91.08 225.883 91.216 225.131 91.216C223.451 91.216 222.107 90.72 221.099 89.728C220.107 88.736 219.611 87.248 219.611 85.264V77.992H224.171V84.52C224.171 85.496 224.355 86.208 224.723 86.656C225.091 87.104 225.627 87.328 226.331 87.328C227.051 87.328 227.635 87.08 228.083 86.584C228.547 86.072 228.779 85.296 228.779 84.256V77.992H233.339ZM242.925 91.216C241.485 91.216 240.197 90.928 239.061 90.352C237.925 89.776 237.037 88.976 236.396 87.952C235.773 86.928 235.461 85.768 235.461 84.472C235.461 83.176 235.773 82.024 236.396 81.016C237.037 79.992 237.925 79.2 239.061 78.64C240.197 78.064 241.485 77.776 242.925 77.776C244.397 77.776 245.669 78.096 246.741 78.736C247.813 79.36 248.573 80.232 249.021 81.352L245.493 83.152C244.901 81.984 244.037 81.4 242.901 81.4C242.085 81.4 241.405 81.672 240.861 82.216C240.333 82.76 240.069 83.512 240.069 84.472C240.069 85.448 240.333 86.216 240.861 86.776C241.405 87.32 242.085 87.592 242.901 87.592C244.037 87.592 244.901 87.008 245.493 85.84L249.021 87.64C248.573 88.76 247.813 89.64 246.741 90.28C245.669 90.904 244.397 91.216 242.925 91.216ZM256.281 77.776C258.441 77.776 260.089 78.272 261.225 79.264C262.361 80.24 262.929 81.744 262.929 83.776V91H258.681V89.32C258.025 90.584 256.745 91.216 254.841 91.216C253.833 91.216 252.961 91.04 252.225 90.688C251.489 90.336 250.929 89.864 250.545 89.272C250.177 88.664 249.993 87.976 249.993 87.208C249.993 85.976 250.465 85.024 251.409 84.352C252.353 83.664 253.809 83.32 255.777 83.32H258.369C258.289 81.944 257.369 81.256 255.609 81.256C254.985 81.256 254.353 81.36 253.713 81.568C253.073 81.76 252.529 82.032 252.081 82.384L250.545 79.288C251.265 78.808 252.137 78.44 253.161 78.184C254.201 77.912 255.241 77.776 256.281 77.776ZM256.113 88.336C256.641 88.336 257.105 88.208 257.505 87.952C257.905 87.696 258.193 87.32 258.369 86.824V85.696H256.401C255.073 85.696 254.409 86.136 254.409 87.016C254.409 87.416 254.561 87.736 254.865 87.976C255.169 88.216 255.585 88.336 256.113 88.336ZM274.784 90.472C274.4 90.712 273.928 90.896 273.368 91.024C272.824 91.152 272.24 91.216 271.616 91.216C269.92 91.216 268.616 90.8 267.704 89.968C266.792 89.136 266.336 87.896 266.336 86.248V81.88H264.44V78.472H266.336V75.088H270.896V78.472H273.872V81.88H270.896V86.2C270.896 86.664 271.016 87.032 271.256 87.304C271.512 87.56 271.848 87.688 272.264 87.688C272.792 87.688 273.256 87.552 273.656 87.28L274.784 90.472ZM276.542 77.992H281.102V91H276.542V77.992ZM278.822 76.552C277.99 76.552 277.318 76.32 276.806 75.856C276.294 75.392 276.038 74.816 276.038 74.128C276.038 73.44 276.294 72.864 276.806 72.4C277.318 71.936 277.99 71.704 278.822 71.704C279.654 71.704 280.326 71.928 280.838 72.376C281.35 72.808 281.606 73.368 281.606 74.056C281.606 74.776 281.35 75.376 280.838 75.856C280.326 76.32 279.654 76.552 278.822 76.552ZM290.594 91.216C289.202 91.216 287.946 90.928 286.826 90.352C285.706 89.776 284.826 88.976 284.186 87.952C283.562 86.928 283.25 85.768 283.25 84.472C283.25 83.192 283.562 82.04 284.186 81.016C284.826 79.992 285.698 79.2 286.802 78.64C287.922 78.064 289.186 77.776 290.594 77.776C292.002 77.776 293.266 78.064 294.386 78.64C295.506 79.2 296.378 79.992 297.002 81.016C297.626 82.024 297.938 83.176 297.938 84.472C297.938 85.768 297.626 86.928 297.002 87.952C296.378 88.976 295.506 89.776 294.386 90.352C293.266 90.928 292.002 91.216 290.594 91.216ZM290.594 87.592C291.394 87.592 292.05 87.32 292.562 86.776C293.074 86.216 293.33 85.448 293.33 84.472C293.33 83.512 293.074 82.76 292.562 82.216C292.05 81.672 291.394 81.4 290.594 81.4C289.794 81.4 289.138 81.672 288.626 82.216C288.114 82.76 287.858 83.512 287.858 84.472C287.858 85.448 288.114 86.216 288.626 86.776C289.138 87.32 289.794 87.592 290.594 87.592ZM308.522 77.776C310.138 77.776 311.434 78.256 312.41 79.216C313.402 80.176 313.898 81.624 313.898 83.56V91H309.338V84.304C309.338 82.528 308.626 81.64 307.202 81.64C306.418 81.64 305.786 81.896 305.306 82.408C304.842 82.92 304.61 83.688 304.61 84.712V91H300.05V77.992H304.394V79.408C304.906 78.88 305.514 78.48 306.218 78.208C306.922 77.92 307.69 77.776 308.522 77.776Z" fill="#157A6E"/>
</svg>
