<svg width="512" height="512" viewBox="0 0 512 512" fill="none" xmlns="http://www.w3.org/2000/svg">
<path d="M256 0C114.844 0 0 114.844 0 256C0 397.156 114.844 512 256 512C397.156 512 512 397.156 512 256C512 114.844 397.156 0 256 0ZM256 490.667C126.604 490.667 21.333 385.397 21.333 256C21.333 126.606 126.604 21.333 256 21.333C385.396 21.333 490.667 126.605 490.667 256C490.667 385.397 385.396 490.667 256 490.667Z" fill="#039FBE"/>
<path d="M404.229 246.053H94.896V267.386H404.229V246.053Z" fill="#039FBE"/>
</svg>
