<svg width="491" height="491" viewBox="0 0 491 491" fill="none" xmlns="http://www.w3.org/2000/svg">
<g clip-path="url(#clip0_1_2)">
<path d="M418.5 418.5C514.1 322.9 514.1 167.3 418.5 71.7C322.9 -23.9 167.3 -23.9 71.7 71.7C-23.9 167.3 -23.9 322.9 71.7 418.5C167.3 514.1 322.9 514.1 418.5 418.5ZM89 89C175.1 2.9 315.1 2.9 401.2 89C487.3 175.1 487.3 315.1 401.2 401.2C315.1 487.3 175.1 487.3 89 401.2C2.9 315.1 3 175.1 89 89Z" fill="#039FBE"/>
<path d="M245.1 336.9C248.5 336.9 251.5 335.5 253.8 333.3C256 331.1 257.4 328 257.4 324.6V257.3H324.7C328.1 257.3 331.1 255.9 333.4 253.7C335.6 251.5 337 248.4 337 245C337 238.2 331.5 232.7 324.8 232.8H257.5V165.5C257.5 158.7 252 153.2 245.3 153.3C238.5 153.3 233 158.8 233.1 165.5V232.8H165.8C159 232.8 153.5 238.3 153.6 245C153.6 251.8 159.1 257.3 165.8 257.2H233.1V324.5C232.8 331.4 238.3 336.9 245.1 336.9Z" fill="#039FBE"/>
</g>
<defs>
<clipPath id="clip0_1_2">
<rect width="490.2" height="490.2" fill="white"/>
</clipPath>
</defs>
</svg>
