<svg width="94" height="40" viewBox="0 0 94 40" fill="none" xmlns="http://www.w3.org/2000/svg">
<rect width="94" height="40" fill="#157A6E"/>
<path d="M18.568 22.296C18.1947 22.7547 17.736 23.1013 17.192 23.336C16.6587 23.5813 16.072 23.704 15.432 23.704C14.8133 23.704 14.2533 23.624 13.752 23.464C13.2507 23.304 12.744 23.0373 12.232 22.664C11.7307 22.3013 11.1653 21.7893 10.536 21.128C9.56533 20.968 8.70133 20.6213 7.944 20.088C7.18667 19.5547 6.59467 18.8827 6.168 18.072C5.752 17.2613 5.544 16.3707 5.544 15.4C5.544 14.2907 5.81067 13.2933 6.344 12.408C6.888 11.5227 7.62933 10.8293 8.568 10.328C9.51733 9.82667 10.584 9.576 11.768 9.576C12.952 9.576 14.0133 9.82667 14.952 10.328C15.9013 10.8293 16.6427 11.5227 17.176 12.408C17.72 13.2933 17.992 14.2907 17.992 15.4C17.992 16.6587 17.6453 17.7733 16.952 18.744C16.2693 19.704 15.3467 20.392 14.184 20.808C14.3973 21.0427 14.6053 21.208 14.808 21.304C15.0213 21.4 15.2507 21.448 15.496 21.448C16.1253 21.448 16.6907 21.1867 17.192 20.664L18.568 22.296ZM8.744 15.4C8.744 16.0293 8.87733 16.5893 9.144 17.08C9.41067 17.56 9.77333 17.9333 10.232 18.2C10.6907 18.4667 11.2027 18.6 11.768 18.6C12.3333 18.6 12.8453 18.4667 13.304 18.2C13.7627 17.9333 14.1253 17.56 14.392 17.08C14.6587 16.5893 14.792 16.0293 14.792 15.4C14.792 14.7707 14.6587 14.216 14.392 13.736C14.1253 13.2453 13.7627 12.8667 13.304 12.6C12.8453 12.3333 12.3333 12.2 11.768 12.2C11.2027 12.2 10.6907 12.3333 10.232 12.6C9.77333 12.8667 9.41067 13.2453 9.144 13.736C8.87733 14.216 8.744 14.7707 8.744 15.4ZM28.6273 12.328V21H25.7313V20.072C25.4113 20.424 25.0273 20.6907 24.5793 20.872C24.1313 21.0533 23.6566 21.144 23.1553 21.144C22.0353 21.144 21.1393 20.8133 20.4673 20.152C19.8059 19.4907 19.4753 18.4987 19.4753 17.176V12.328H22.5153V16.68C22.5153 17.3307 22.6379 17.8053 22.8833 18.104C23.1286 18.4027 23.4859 18.552 23.9553 18.552C24.4353 18.552 24.8246 18.3867 25.1233 18.056C25.4326 17.7147 25.5873 17.1973 25.5873 16.504V12.328H28.6273ZM30.5854 12.328H33.6254V21H30.5854V12.328ZM32.1054 11.368C31.5507 11.368 31.1027 11.2133 30.7614 10.904C30.42 10.5947 30.2494 10.2107 30.2494 9.752C30.2494 9.29333 30.42 8.90933 30.7614 8.6C31.1027 8.29067 31.5507 8.136 32.1054 8.136C32.66 8.136 33.108 8.28533 33.4494 8.584C33.7907 8.872 33.9614 9.24533 33.9614 9.704C33.9614 10.184 33.7907 10.584 33.4494 10.904C33.108 11.2133 32.66 11.368 32.1054 11.368ZM43.153 18.728V21H35.153V19.208L39.169 14.584H35.265V12.328H42.993V14.104L38.977 18.728H43.153ZM44.1118 15.272H48.7838V17.608H44.1118V15.272ZM59.2749 15.16C59.9149 15.384 60.4162 15.736 60.7789 16.216C61.1415 16.6853 61.3229 17.256 61.3229 17.928C61.3229 18.9093 60.9282 19.6667 60.1389 20.2C59.3495 20.7333 58.2082 21 56.7149 21H50.6669V9.8H56.3949C57.8242 9.8 58.9122 10.0667 59.6589 10.6C60.4055 11.1227 60.7789 11.832 60.7789 12.728C60.7789 13.2613 60.6455 13.7413 60.3789 14.168C60.1229 14.584 59.7549 14.9147 59.2749 15.16ZM53.8029 12.088V14.248H55.9789C57.0455 14.248 57.5789 13.8853 57.5789 13.16C57.5789 12.4453 57.0455 12.088 55.9789 12.088H53.8029ZM56.4589 18.712C57.5682 18.712 58.1229 18.3333 58.1229 17.576C58.1229 16.8187 57.5682 16.44 56.4589 16.44H53.8029V18.712H56.4589ZM62.8198 9.128H65.8598V21H62.8198V9.128ZM72.1874 21.144C71.2594 21.144 70.422 20.952 69.6754 20.568C68.9287 20.184 68.342 19.6507 67.9154 18.968C67.4994 18.2853 67.2914 17.512 67.2914 16.648C67.2914 15.7947 67.4994 15.0267 67.9154 14.344C68.342 13.6613 68.9234 13.1333 69.6594 12.76C70.406 12.376 71.2487 12.184 72.1874 12.184C73.126 12.184 73.9687 12.376 74.7154 12.76C75.462 13.1333 76.0434 13.6613 76.4594 14.344C76.8754 15.016 77.0834 15.784 77.0834 16.648C77.0834 17.512 76.8754 18.2853 76.4594 18.968C76.0434 19.6507 75.462 20.184 74.7154 20.568C73.9687 20.952 73.126 21.144 72.1874 21.144ZM72.1874 18.728C72.7207 18.728 73.158 18.5467 73.4994 18.184C73.8407 17.8107 74.0114 17.2987 74.0114 16.648C74.0114 16.008 73.8407 15.5067 73.4994 15.144C73.158 14.7813 72.7207 14.6 72.1874 14.6C71.654 14.6 71.2167 14.7813 70.8754 15.144C70.534 15.5067 70.3634 16.008 70.3634 16.648C70.3634 17.2987 70.534 17.8107 70.8754 18.184C71.2167 18.5467 71.654 18.728 72.1874 18.728ZM87.8196 12.328V19.416C87.8196 21.0267 87.3823 22.232 86.5076 23.032C85.633 23.8427 84.3743 24.248 82.7316 24.248C81.8783 24.248 81.0783 24.152 80.3316 23.96C79.585 23.768 78.9503 23.4853 78.4276 23.112L79.5316 20.984C79.8836 21.272 80.3263 21.496 80.8596 21.656C81.4036 21.8267 81.937 21.912 82.4596 21.912C83.2596 21.912 83.8463 21.736 84.2196 21.384C84.593 21.032 84.7796 20.5093 84.7796 19.816V19.528C84.193 20.2107 83.3343 20.552 82.2036 20.552C81.4356 20.552 80.7263 20.3813 80.0756 20.04C79.425 19.688 78.9076 19.1973 78.5236 18.568C78.1396 17.928 77.9476 17.192 77.9476 16.36C77.9476 15.5387 78.1396 14.8133 78.5236 14.184C78.9076 13.544 79.425 13.0533 80.0756 12.712C80.7263 12.36 81.4356 12.184 82.2036 12.184C83.441 12.184 84.3476 12.584 84.9236 13.384V12.328H87.8196ZM82.9236 18.136C83.4676 18.136 83.9156 17.9707 84.2676 17.64C84.6303 17.3093 84.8116 16.8827 84.8116 16.36C84.8116 15.8373 84.6356 15.416 84.2836 15.096C83.9316 14.7653 83.4783 14.6 82.9236 14.6C82.369 14.6 81.9103 14.7653 81.5476 15.096C81.1956 15.416 81.0196 15.8373 81.0196 16.36C81.0196 16.8827 81.201 17.3093 81.5636 17.64C81.9263 17.9707 82.3796 18.136 82.9236 18.136Z" fill="white"/>
<path d="M10.7624 34.112C10.309 34.112 9.86904 34.056 9.44238 33.944C9.01571 33.832 8.66904 33.6827 8.40238 33.496L8.92238 32.328C9.17304 32.4933 9.46371 32.6267 9.79438 32.728C10.125 32.8293 10.4504 32.88 10.7704 32.88C11.3784 32.88 11.6824 32.728 11.6824 32.424C11.6824 32.264 11.5944 32.1467 11.4184 32.072C11.2477 31.992 10.9704 31.9093 10.5864 31.824C10.165 31.7333 9.81304 31.6373 9.53038 31.536C9.24771 31.4293 9.00504 31.2613 8.80238 31.032C8.59971 30.8027 8.49837 30.4933 8.49837 30.104C8.49837 29.7627 8.59171 29.456 8.77838 29.184C8.96504 28.9067 9.24238 28.688 9.61038 28.528C9.98371 28.368 10.4397 28.288 10.9784 28.288C11.3464 28.288 11.709 28.3307 12.0664 28.416C12.4237 28.496 12.7384 28.616 13.0104 28.776L12.5224 29.952C11.989 29.664 11.4717 29.52 10.9704 29.52C10.6557 29.52 10.4264 29.568 10.2824 29.664C10.1384 29.7547 10.0664 29.8747 10.0664 30.024C10.0664 30.1733 10.1517 30.2853 10.3224 30.36C10.493 30.4347 10.7677 30.512 11.1464 30.592C11.573 30.6827 11.925 30.7813 12.2024 30.888C12.485 30.9893 12.7277 31.1547 12.9304 31.384C13.1384 31.608 13.2424 31.9147 13.2424 32.304C13.2424 32.64 13.149 32.944 12.9624 33.216C12.7757 33.488 12.4957 33.7067 12.1224 33.872C11.749 34.032 11.2957 34.112 10.7624 34.112ZM15.8701 32.48L15.4221 32.936V34H13.9021V28.064H15.4221V31.176L16.9741 29.664H18.7741L16.9741 31.52L18.9261 34H17.0861L15.8701 32.48ZM19.3708 29.664H20.8908V34H19.3708V29.664ZM20.1308 29.184C19.8535 29.184 19.6295 29.1067 19.4588 28.952C19.2881 28.7973 19.2028 28.6053 19.2028 28.376C19.2028 28.1467 19.2881 27.9547 19.4588 27.8C19.6295 27.6453 19.8535 27.568 20.1308 27.568C20.4081 27.568 20.6321 27.6427 20.8028 27.792C20.9735 27.936 21.0588 28.1227 21.0588 28.352C21.0588 28.592 20.9735 28.792 20.8028 28.952C20.6321 29.1067 20.4081 29.184 20.1308 29.184ZM21.8786 28.064H23.3986V34H21.8786V28.064ZM24.3864 28.064H25.9064V34H24.3864V28.064ZM28.4703 34.072C28.1076 34.072 27.7503 34.032 27.3983 33.952C27.0463 33.8667 26.7636 33.7573 26.5503 33.624L27.0063 32.584C27.2036 32.7067 27.4383 32.8053 27.7103 32.88C27.9823 32.9493 28.2516 32.984 28.5182 32.984C28.7636 32.984 28.9369 32.96 29.0383 32.912C29.1449 32.8587 29.1983 32.784 29.1983 32.688C29.1983 32.592 29.1343 32.5253 29.0063 32.488C28.8836 32.4453 28.6863 32.4053 28.4143 32.368C28.0676 32.3253 27.7716 32.2693 27.5263 32.2C27.2863 32.1307 27.0783 32.0027 26.9023 31.816C26.7263 31.6293 26.6383 31.368 26.6383 31.032C26.6383 30.7547 26.7209 30.5093 26.8863 30.296C27.0516 30.0773 27.2916 29.9067 27.6063 29.784C27.9263 29.656 28.3076 29.592 28.7503 29.592C29.0649 29.592 29.3769 29.624 29.6863 29.688C29.9956 29.752 30.2543 29.8427 30.4623 29.96L30.0063 30.992C29.6223 30.7787 29.2063 30.672 28.7582 30.672C28.5183 30.672 28.3423 30.7013 28.2303 30.76C28.1183 30.8133 28.0623 30.8853 28.0623 30.976C28.0623 31.0773 28.1236 31.1493 28.2463 31.192C28.3689 31.2293 28.5716 31.2693 28.8543 31.312C29.2116 31.3653 29.5076 31.4267 29.7423 31.496C29.9769 31.5653 30.1796 31.6933 30.3503 31.88C30.5263 32.0613 30.6143 32.3173 30.6143 32.648C30.6143 32.92 30.5316 33.1653 30.3663 33.384C30.2009 33.5973 29.9556 33.7653 29.6303 33.888C29.3103 34.0107 28.9236 34.072 28.4703 34.072ZM38.1014 34.096L37.4694 33.536C37.208 33.7227 36.9174 33.8667 36.5974 33.968C36.2774 34.064 35.9414 34.112 35.5894 34.112C35.168 34.112 34.7867 34.0453 34.4454 33.912C34.104 33.7733 33.8374 33.584 33.6454 33.344C33.4534 33.104 33.3574 32.8347 33.3574 32.536C33.3574 32.184 33.4507 31.8773 33.6374 31.616C33.824 31.3493 34.12 31.1067 34.5254 30.888C34.168 30.5253 33.9894 30.1493 33.9894 29.76C33.9894 29.4773 34.0667 29.2267 34.2214 29.008C34.376 28.7893 34.5947 28.6213 34.8774 28.504C35.1654 28.3813 35.496 28.32 35.8694 28.32C36.3867 28.32 36.8027 28.4427 37.1174 28.688C37.4374 28.928 37.5974 29.2533 37.5974 29.664C37.5974 29.952 37.512 30.208 37.3414 30.432C37.176 30.656 36.9147 30.8667 36.5574 31.064L37.3734 31.792C37.48 31.5573 37.5627 31.2907 37.6214 30.992L38.8454 31.36C38.7387 31.84 38.5654 32.264 38.3254 32.632L38.9174 33.16L38.1014 34.096ZM35.8694 29.32C35.7147 29.32 35.592 29.36 35.5014 29.44C35.416 29.5147 35.3734 29.6133 35.3734 29.736C35.3734 29.8267 35.3974 29.9147 35.4454 30C35.4987 30.08 35.5947 30.1867 35.7334 30.32C35.9467 30.208 36.096 30.104 36.1814 30.008C36.272 29.9067 36.3174 29.8027 36.3174 29.696C36.3174 29.5787 36.2774 29.488 36.1974 29.424C36.1227 29.3547 36.0134 29.32 35.8694 29.32ZM35.7014 32.952C36.0107 32.952 36.296 32.8747 36.5574 32.72L35.3494 31.648C35.1734 31.7547 35.0454 31.8667 34.9654 31.984C34.8854 32.096 34.8454 32.224 34.8454 32.368C34.8454 32.5387 34.9227 32.68 35.0774 32.792C35.232 32.8987 35.44 32.952 35.7014 32.952ZM46.5091 32.776V34H42.0131V28.4H46.4051V29.624H43.5811V30.568H46.0691V31.752H43.5811V32.776H46.5091ZM51.9085 28.064V34H50.4605V33.568C50.1778 33.904 49.7538 34.072 49.1885 34.072C48.7938 34.072 48.4338 33.9813 48.1085 33.8C47.7832 33.6133 47.5245 33.3493 47.3325 33.008C47.1458 32.6667 47.0525 32.272 47.0525 31.824C47.0525 31.376 47.1458 30.984 47.3325 30.648C47.5245 30.3067 47.7832 30.0453 48.1085 29.864C48.4338 29.6827 48.7938 29.592 49.1885 29.592C49.7058 29.592 50.1058 29.7413 50.3885 30.04V28.064H51.9085ZM49.5085 32.864C49.7698 32.864 49.9858 32.7733 50.1565 32.592C50.3272 32.4053 50.4125 32.1493 50.4125 31.824C50.4125 31.504 50.3272 31.2533 50.1565 31.072C49.9912 30.8907 49.7752 30.8 49.5085 30.8C49.2418 30.8 49.0232 30.8907 48.8525 31.072C48.6818 31.2533 48.5965 31.504 48.5965 31.824C48.5965 32.1493 48.6818 32.4053 48.8525 32.592C49.0232 32.7733 49.2418 32.864 49.5085 32.864ZM57.4464 29.664V34H55.9984V33.536C55.8384 33.712 55.6464 33.8453 55.4224 33.936C55.1984 34.0267 54.9611 34.072 54.7104 34.072C54.1504 34.072 53.7024 33.9067 53.3664 33.576C53.0358 33.2453 52.8704 32.7493 52.8704 32.088V29.664H54.3904V31.84C54.3904 32.1653 54.4518 32.4027 54.5744 32.552C54.6971 32.7013 54.8758 32.776 55.1104 32.776C55.3504 32.776 55.5451 32.6933 55.6944 32.528C55.8491 32.3573 55.9264 32.0987 55.9264 31.752V29.664H57.4464ZM60.6415 34.072C60.1615 34.072 59.7322 33.976 59.3535 33.784C58.9748 33.592 58.6788 33.3253 58.4655 32.984C58.2575 32.6427 58.1535 32.256 58.1535 31.824C58.1535 31.392 58.2575 31.008 58.4655 30.672C58.6788 30.3307 58.9748 30.0667 59.3535 29.88C59.7322 29.688 60.1615 29.592 60.6415 29.592C61.1322 29.592 61.5562 29.6987 61.9135 29.912C62.2708 30.12 62.5242 30.4107 62.6735 30.784L61.4975 31.384C61.3002 30.9947 61.0122 30.8 60.6335 30.8C60.3615 30.8 60.1348 30.8907 59.9535 31.072C59.7775 31.2533 59.6895 31.504 59.6895 31.824C59.6895 32.1493 59.7775 32.4053 59.9535 32.592C60.1348 32.7733 60.3615 32.864 60.6335 32.864C61.0122 32.864 61.3002 32.6693 61.4975 32.28L62.6735 32.88C62.5242 33.2533 62.2708 33.5467 61.9135 33.76C61.5562 33.968 61.1322 34.072 60.6415 34.072ZM65.0938 29.592C65.8138 29.592 66.3631 29.7573 66.7418 30.088C67.1205 30.4133 67.3098 30.9147 67.3098 31.592V34H65.8938V33.44C65.6751 33.8613 65.2485 34.072 64.6138 34.072C64.2778 34.072 63.9871 34.0133 63.7418 33.896C63.4965 33.7787 63.3098 33.6213 63.1818 33.424C63.0591 33.2213 62.9978 32.992 62.9978 32.736C62.9978 32.3253 63.1551 32.008 63.4698 31.784C63.7845 31.5547 64.2698 31.44 64.9258 31.44H65.7898C65.7631 30.9813 65.4565 30.752 64.8698 30.752C64.6618 30.752 64.4511 30.7867 64.2378 30.856C64.0245 30.92 63.8431 31.0107 63.6938 31.128L63.1818 30.096C63.4218 29.936 63.7125 29.8133 64.0538 29.728C64.4005 29.6373 64.7471 29.592 65.0938 29.592ZM65.0378 33.112C65.2138 33.112 65.3685 33.0693 65.5018 32.984C65.6351 32.8987 65.7311 32.7733 65.7898 32.608V32.232H65.1338C64.6911 32.232 64.4698 32.3787 64.4698 32.672C64.4698 32.8053 64.5205 32.912 64.6218 32.992C64.7231 33.072 64.8618 33.112 65.0378 33.112ZM71.2613 33.824C71.1333 33.904 70.9759 33.9653 70.7893 34.008C70.6079 34.0507 70.4133 34.072 70.2053 34.072C69.6399 34.072 69.2053 33.9333 68.9013 33.656C68.5973 33.3787 68.4453 32.9653 68.4453 32.416V30.96H67.8133V29.824H68.4453V28.696H69.9653V29.824H70.9573V30.96H69.9653V32.4C69.9653 32.5547 70.0053 32.6773 70.0853 32.768C70.1706 32.8533 70.2826 32.896 70.4213 32.896C70.5973 32.896 70.7519 32.8507 70.8853 32.76L71.2613 33.824ZM71.8474 29.664H73.3674V34H71.8474V29.664ZM72.6074 29.184C72.33 29.184 72.106 29.1067 71.9354 28.952C71.7647 28.7973 71.6794 28.6053 71.6794 28.376C71.6794 28.1467 71.7647 27.9547 71.9354 27.8C72.106 27.6453 72.33 27.568 72.6074 27.568C72.8847 27.568 73.1087 27.6427 73.2794 27.792C73.45 27.936 73.5354 28.1227 73.5354 28.352C73.5354 28.592 73.45 28.792 73.2794 28.952C73.1087 29.1067 72.8847 29.184 72.6074 29.184ZM76.5312 34.072C76.0672 34.072 75.6485 33.976 75.2752 33.784C74.9019 33.592 74.6085 33.3253 74.3952 32.984C74.1872 32.6427 74.0832 32.256 74.0832 31.824C74.0832 31.3973 74.1872 31.0133 74.3952 30.672C74.6085 30.3307 74.8992 30.0667 75.2672 29.88C75.6405 29.688 76.0619 29.592 76.5312 29.592C77.0005 29.592 77.4219 29.688 77.7952 29.88C78.1685 30.0667 78.4592 30.3307 78.6672 30.672C78.8752 31.008 78.9792 31.392 78.9792 31.824C78.9792 32.256 78.8752 32.6427 78.6672 32.984C78.4592 33.3253 78.1685 33.592 77.7952 33.784C77.4219 33.976 77.0005 34.072 76.5312 34.072ZM76.5312 32.864C76.7979 32.864 77.0165 32.7733 77.1872 32.592C77.3579 32.4053 77.4432 32.1493 77.4432 31.824C77.4432 31.504 77.3579 31.2533 77.1872 31.072C77.0165 30.8907 76.7979 30.8 76.5312 30.8C76.2645 30.8 76.0459 30.8907 75.8752 31.072C75.7045 31.2533 75.6192 31.504 75.6192 31.824C75.6192 32.1493 75.7045 32.4053 75.8752 32.592C76.0459 32.7733 76.2645 32.864 76.5312 32.864ZM82.5073 29.592C83.046 29.592 83.478 29.752 83.8033 30.072C84.134 30.392 84.2993 30.8747 84.2993 31.52V34H82.7793V31.768C82.7793 31.176 82.542 30.88 82.0673 30.88C81.806 30.88 81.5953 30.9653 81.4353 31.136C81.2806 31.3067 81.2033 31.5627 81.2033 31.904V34H79.6833V29.664H81.1313V30.136C81.302 29.96 81.5046 29.8267 81.7393 29.736C81.974 29.64 82.23 29.592 82.5073 29.592Z" fill="white"/>
</svg>
