<svg width="130" height="120" viewBox="0 0 130 120" fill="none" xmlns="http://www.w3.org/2000/svg">
<rect width="130" height="120" rx="20" fill="#157A6E"/>
<path d="M25.656 53.782C25.1427 54.4127 24.512 54.8893 23.764 55.212C23.0307 55.5493 22.224 55.718 21.344 55.718C20.4933 55.718 19.7233 55.608 19.034 55.388C18.3447 55.168 17.648 54.8013 16.944 54.288C16.2547 53.7893 15.4773 53.0853 14.612 52.176C13.2773 51.956 12.0893 51.4793 11.048 50.746C10.0067 50.0127 9.19267 49.0887 8.606 47.974C8.034 46.8593 7.748 45.6347 7.748 44.3C7.748 42.7747 8.11467 41.4033 8.848 40.186C9.596 38.9687 10.6153 38.0153 11.906 37.326C13.2113 36.6367 14.678 36.292 16.306 36.292C17.934 36.292 19.3933 36.6367 20.684 37.326C21.9893 38.0153 23.0087 38.9687 23.742 40.186C24.49 41.4033 24.864 42.7747 24.864 44.3C24.864 46.0307 24.3873 47.5633 23.434 48.898C22.4953 50.218 21.2267 51.164 19.628 51.736C19.9213 52.0587 20.2073 52.286 20.486 52.418C20.7793 52.55 21.0947 52.616 21.432 52.616C22.2973 52.616 23.0747 52.2567 23.764 51.538L25.656 53.782ZM12.148 44.3C12.148 45.1653 12.3313 45.9353 12.698 46.61C13.0647 47.27 13.5633 47.7833 14.194 48.15C14.8247 48.5167 15.5287 48.7 16.306 48.7C17.0833 48.7 17.7873 48.5167 18.418 48.15C19.0487 47.7833 19.5473 47.27 19.914 46.61C20.2807 45.9353 20.464 45.1653 20.464 44.3C20.464 43.4347 20.2807 42.672 19.914 42.012C19.5473 41.3373 19.0487 40.8167 18.418 40.45C17.7873 40.0833 17.0833 39.9 16.306 39.9C15.5287 39.9 14.8247 40.0833 14.194 40.45C13.5633 40.8167 13.0647 41.3373 12.698 42.012C12.3313 42.672 12.148 43.4347 12.148 44.3ZM39.4875 40.076V52H35.5055V50.724C35.0655 51.208 34.5375 51.5747 33.9215 51.824C33.3055 52.0733 32.6528 52.198 31.9635 52.198C30.4235 52.198 29.1915 51.7433 28.2675 50.834C27.3581 49.9247 26.9035 48.5607 26.9035 46.742V40.076H31.0835V46.06C31.0835 46.9547 31.2521 47.6073 31.5895 48.018C31.9268 48.4287 32.4181 48.634 33.0635 48.634C33.7235 48.634 34.2588 48.4067 34.6695 47.952C35.0948 47.4827 35.3075 46.7713 35.3075 45.818V40.076H39.4875ZM42.1799 40.076H46.3599V52H42.1799V40.076ZM44.2699 38.756C43.5072 38.756 42.8912 38.5433 42.4219 38.118C41.9526 37.6927 41.7179 37.1647 41.7179 36.534C41.7179 35.9033 41.9526 35.3753 42.4219 34.95C42.8912 34.5247 43.5072 34.312 44.2699 34.312C45.0326 34.312 45.6486 34.5173 46.1179 34.928C46.5872 35.324 46.8219 35.8373 46.8219 36.468C46.8219 37.128 46.5872 37.678 46.1179 38.118C45.6486 38.5433 45.0326 38.756 44.2699 38.756ZM59.4604 48.876V52H48.4604V49.536L53.9824 43.178H48.6144V40.076H59.2404V42.518L53.7184 48.876H59.4604ZM60.7787 44.124H67.2027V47.336H60.7787V44.124ZM81.628 43.97C82.508 44.278 83.1973 44.762 83.696 45.422C84.1946 46.0673 84.444 46.852 84.444 47.776C84.444 49.1253 83.9013 50.1667 82.816 50.9C81.7306 51.6333 80.1613 52 78.108 52H69.792V36.6H77.668C79.6333 36.6 81.1293 36.9667 82.156 37.7C83.1826 38.4187 83.696 39.394 83.696 40.626C83.696 41.3593 83.5126 42.0193 83.146 42.606C82.794 43.178 82.288 43.6327 81.628 43.97ZM74.104 39.746V42.716H77.096C78.5626 42.716 79.296 42.2173 79.296 41.22C79.296 40.2373 78.5626 39.746 77.096 39.746H74.104ZM77.756 48.854C79.2813 48.854 80.044 48.3333 80.044 47.292C80.044 46.2507 79.2813 45.73 77.756 45.73H74.104V48.854H77.756ZM86.5022 35.676H90.6822V52H86.5022V35.676ZM99.3826 52.198C98.1066 52.198 96.9553 51.934 95.9286 51.406C94.902 50.878 94.0953 50.1447 93.5086 49.206C92.9366 48.2673 92.6506 47.204 92.6506 46.016C92.6506 44.8427 92.9366 43.7867 93.5086 42.848C94.0953 41.9093 94.8946 41.1833 95.9066 40.67C96.9333 40.142 98.092 39.878 99.3826 39.878C100.673 39.878 101.832 40.142 102.859 40.67C103.885 41.1833 104.685 41.9093 105.257 42.848C105.829 43.772 106.115 44.828 106.115 46.016C106.115 47.204 105.829 48.2673 105.257 49.206C104.685 50.1447 103.885 50.878 102.859 51.406C101.832 51.934 100.673 52.198 99.3826 52.198ZM99.3826 48.876C100.116 48.876 100.717 48.6267 101.187 48.128C101.656 47.6147 101.891 46.9107 101.891 46.016C101.891 45.136 101.656 44.4467 101.187 43.948C100.717 43.4493 100.116 43.2 99.3826 43.2C98.6493 43.2 98.048 43.4493 97.5786 43.948C97.1093 44.4467 96.8746 45.136 96.8746 46.016C96.8746 46.9107 97.1093 47.6147 97.5786 48.128C98.048 48.6267 98.6493 48.876 99.3826 48.876ZM120.877 40.076V49.822C120.877 52.0367 120.276 53.694 119.073 54.794C117.87 55.9087 116.14 56.466 113.881 56.466C112.708 56.466 111.608 56.334 110.581 56.07C109.554 55.806 108.682 55.4173 107.963 54.904L109.481 51.978C109.965 52.374 110.574 52.682 111.307 52.902C112.055 53.1367 112.788 53.254 113.507 53.254C114.607 53.254 115.414 53.012 115.927 52.528C116.44 52.044 116.697 51.3253 116.697 50.372V49.976C115.89 50.9147 114.71 51.384 113.155 51.384C112.099 51.384 111.124 51.1493 110.229 50.68C109.334 50.196 108.623 49.5213 108.095 48.656C107.567 47.776 107.303 46.764 107.303 45.62C107.303 44.4907 107.567 43.4933 108.095 42.628C108.623 41.748 109.334 41.0733 110.229 40.604C111.124 40.12 112.099 39.878 113.155 39.878C114.856 39.878 116.103 40.428 116.895 41.528V40.076H120.877ZM114.145 48.062C114.893 48.062 115.509 47.8347 115.993 47.38C116.492 46.9253 116.741 46.3387 116.741 45.62C116.741 44.9013 116.499 44.322 116.015 43.882C115.531 43.4273 114.908 43.2 114.145 43.2C113.382 43.2 112.752 43.4273 112.253 43.882C111.769 44.322 111.527 44.9013 111.527 45.62C111.527 46.3387 111.776 46.9253 112.275 47.38C112.774 47.8347 113.397 48.062 114.145 48.062Z" fill="white"/>
<path d="M11.8936 83.168C11.2136 83.168 10.5536 83.084 9.91356 82.916C9.27356 82.748 8.75356 82.524 8.35356 82.244L9.13356 80.492C9.50956 80.74 9.94556 80.94 10.4416 81.092C10.9376 81.244 11.4256 81.32 11.9056 81.32C12.8176 81.32 13.2736 81.092 13.2736 80.636C13.2736 80.396 13.1416 80.22 12.8776 80.108C12.6216 79.988 12.2056 79.864 11.6296 79.736C10.9976 79.6 10.4696 79.456 10.0456 79.304C9.62156 79.144 9.25756 78.892 8.95356 78.548C8.64956 78.204 8.49756 77.74 8.49756 77.156C8.49756 76.644 8.63756 76.184 8.91756 75.776C9.19756 75.36 9.61356 75.032 10.1656 74.792C10.7256 74.552 11.4096 74.432 12.2176 74.432C12.7696 74.432 13.3136 74.496 13.8496 74.624C14.3856 74.744 14.8576 74.924 15.2656 75.164L14.5336 76.928C13.7336 76.496 12.9576 76.28 12.2056 76.28C11.7336 76.28 11.3896 76.352 11.1736 76.496C10.9576 76.632 10.8496 76.812 10.8496 77.036C10.8496 77.26 10.9776 77.428 11.2336 77.54C11.4896 77.652 11.9016 77.768 12.4696 77.888C13.1096 78.024 13.6376 78.172 14.0536 78.332C14.4776 78.484 14.8416 78.732 15.1456 79.076C15.4576 79.412 15.6136 79.872 15.6136 80.456C15.6136 80.96 15.4736 81.416 15.1936 81.824C14.9136 82.232 14.4936 82.56 13.9336 82.808C13.3736 83.048 12.6936 83.168 11.8936 83.168ZM19.5551 80.72L18.8831 81.404V83H16.6031V74.096H18.8831V78.764L21.2111 76.496H23.9111L21.2111 79.28L24.1391 83H21.3791L19.5551 80.72ZM24.8062 76.496H27.0862V83H24.8062V76.496ZM25.9462 75.776C25.5302 75.776 25.1942 75.66 24.9382 75.428C24.6822 75.196 24.5542 74.908 24.5542 74.564C24.5542 74.22 24.6822 73.932 24.9382 73.7C25.1942 73.468 25.5302 73.352 25.9462 73.352C26.3622 73.352 26.6982 73.464 26.9542 73.688C27.2102 73.904 27.3382 74.184 27.3382 74.528C27.3382 74.888 27.2102 75.188 26.9542 75.428C26.6982 75.66 26.3622 75.776 25.9462 75.776ZM28.5679 74.096H30.8479V83H28.5679V74.096ZM32.3297 74.096H34.6097V83H32.3297V74.096ZM38.4554 83.108C37.9114 83.108 37.3754 83.048 36.8474 82.928C36.3194 82.8 35.8954 82.636 35.5754 82.436L36.2594 80.876C36.5554 81.06 36.9074 81.208 37.3154 81.32C37.7234 81.424 38.1274 81.476 38.5274 81.476C38.8954 81.476 39.1554 81.44 39.3074 81.368C39.4674 81.288 39.5474 81.176 39.5474 81.032C39.5474 80.888 39.4514 80.788 39.2594 80.732C39.0754 80.668 38.7794 80.608 38.3714 80.552C37.8514 80.488 37.4074 80.404 37.0394 80.3C36.6794 80.196 36.3674 80.004 36.1034 79.724C35.8394 79.444 35.7074 79.052 35.7074 78.548C35.7074 78.132 35.8314 77.764 36.0794 77.444C36.3274 77.116 36.6874 76.86 37.1594 76.676C37.6394 76.484 38.2114 76.388 38.8754 76.388C39.3474 76.388 39.8154 76.436 40.2794 76.532C40.7434 76.628 41.1314 76.764 41.4434 76.94L40.7594 78.488C40.1834 78.168 39.5594 78.008 38.8874 78.008C38.5274 78.008 38.2634 78.052 38.0954 78.14C37.9274 78.22 37.8434 78.328 37.8434 78.464C37.8434 78.616 37.9354 78.724 38.1194 78.788C38.3034 78.844 38.6074 78.904 39.0314 78.968C39.5674 79.048 40.0114 79.14 40.3634 79.244C40.7154 79.348 41.0194 79.54 41.2754 79.82C41.5394 80.092 41.6714 80.476 41.6714 80.972C41.6714 81.38 41.5474 81.748 41.2994 82.076C41.0514 82.396 40.6834 82.648 40.1954 82.832C39.7154 83.016 39.1354 83.108 38.4554 83.108ZM52.9021 83.144L51.9541 82.304C51.5621 82.584 51.1261 82.8 50.6461 82.952C50.1661 83.096 49.6621 83.168 49.1341 83.168C48.5021 83.168 47.9301 83.068 47.4181 82.868C46.9061 82.66 46.5061 82.376 46.2181 82.016C45.9301 81.656 45.7861 81.252 45.7861 80.804C45.7861 80.276 45.9261 79.816 46.2061 79.424C46.4861 79.024 46.9301 78.66 47.5381 78.332C47.0021 77.788 46.7341 77.224 46.7341 76.64C46.7341 76.216 46.8501 75.84 47.0821 75.512C47.3141 75.184 47.6421 74.932 48.0661 74.756C48.4981 74.572 48.9941 74.48 49.5541 74.48C50.3301 74.48 50.9541 74.664 51.4261 75.032C51.9061 75.392 52.1461 75.88 52.1461 76.496C52.1461 76.928 52.0181 77.312 51.7621 77.648C51.5141 77.984 51.1221 78.3 50.5861 78.596L51.8101 79.688C51.9701 79.336 52.0941 78.936 52.1821 78.488L54.0181 79.04C53.8581 79.76 53.5981 80.396 53.2381 80.948L54.1261 81.74L52.9021 83.144ZM49.5541 75.98C49.3221 75.98 49.1381 76.04 49.0021 76.16C48.8741 76.272 48.8101 76.42 48.8101 76.604C48.8101 76.74 48.8461 76.872 48.9181 77C48.9981 77.12 49.1421 77.28 49.3501 77.48C49.6701 77.312 49.8941 77.156 50.0221 77.012C50.1581 76.86 50.2261 76.704 50.2261 76.544C50.2261 76.368 50.1661 76.232 50.0461 76.136C49.9341 76.032 49.7701 75.98 49.5541 75.98ZM49.3021 81.428C49.7661 81.428 50.1941 81.312 50.5861 81.08L48.7741 79.472C48.5101 79.632 48.3181 79.8 48.1981 79.976C48.0781 80.144 48.0181 80.336 48.0181 80.552C48.0181 80.808 48.1341 81.02 48.3661 81.188C48.5981 81.348 48.9101 81.428 49.3021 81.428ZM65.5137 81.164V83H58.7697V74.6H65.3577V76.436H61.1217V77.852H64.8537V79.628H61.1217V81.164H65.5137ZM73.6128 74.096V83H71.4408V82.352C71.0168 82.856 70.3808 83.108 69.5328 83.108C68.9408 83.108 68.4008 82.972 67.9128 82.7C67.4248 82.42 67.0368 82.024 66.7488 81.512C66.4688 81 66.3288 80.408 66.3288 79.736C66.3288 79.064 66.4688 78.476 66.7488 77.972C67.0368 77.46 67.4248 77.068 67.9128 76.796C68.4008 76.524 68.9408 76.388 69.5328 76.388C70.3088 76.388 70.9088 76.612 71.3328 77.06V74.096H73.6128ZM70.0128 81.296C70.4048 81.296 70.7288 81.16 70.9848 80.888C71.2408 80.608 71.3688 80.224 71.3688 79.736C71.3688 79.256 71.2408 78.88 70.9848 78.608C70.7368 78.336 70.4128 78.2 70.0128 78.2C69.6128 78.2 69.2848 78.336 69.0288 78.608C68.7728 78.88 68.6448 79.256 68.6448 79.736C68.6448 80.224 68.7728 80.608 69.0288 80.888C69.2848 81.16 69.6128 81.296 70.0128 81.296ZM81.9197 76.496V83H79.7477V82.304C79.5077 82.568 79.2197 82.768 78.8837 82.904C78.5477 83.04 78.1917 83.108 77.8157 83.108C76.9757 83.108 76.3037 82.86 75.7997 82.364C75.3037 81.868 75.0557 81.124 75.0557 80.132V76.496H77.3357V79.76C77.3357 80.248 77.4277 80.604 77.6117 80.828C77.7957 81.052 78.0637 81.164 78.4157 81.164C78.7757 81.164 79.0677 81.04 79.2917 80.792C79.5237 80.536 79.6397 80.148 79.6397 79.628V76.496H81.9197ZM86.7123 83.108C85.9923 83.108 85.3483 82.964 84.7803 82.676C84.2123 82.388 83.7683 81.988 83.4482 81.476C83.1363 80.964 82.9803 80.384 82.9803 79.736C82.9803 79.088 83.1363 78.512 83.4482 78.008C83.7683 77.496 84.2123 77.1 84.7803 76.82C85.3483 76.532 85.9923 76.388 86.7123 76.388C87.4483 76.388 88.0843 76.548 88.6203 76.868C89.1563 77.18 89.5363 77.616 89.7603 78.176L87.9963 79.076C87.7003 78.492 87.2683 78.2 86.7003 78.2C86.2923 78.2 85.9523 78.336 85.6803 78.608C85.4163 78.88 85.2843 79.256 85.2843 79.736C85.2843 80.224 85.4163 80.608 85.6803 80.888C85.9523 81.16 86.2923 81.296 86.7003 81.296C87.2683 81.296 87.7003 81.004 87.9963 80.42L89.7603 81.32C89.5363 81.88 89.1563 82.32 88.6203 82.64C88.0843 82.952 87.4483 83.108 86.7123 83.108ZM93.3907 76.388C94.4707 76.388 95.2947 76.636 95.8627 77.132C96.4307 77.62 96.7147 78.372 96.7147 79.388V83H94.5907V82.16C94.2627 82.792 93.6227 83.108 92.6707 83.108C92.1667 83.108 91.7307 83.02 91.3627 82.844C90.9947 82.668 90.7147 82.432 90.5227 82.136C90.3387 81.832 90.2467 81.488 90.2467 81.104C90.2467 80.488 90.4827 80.012 90.9547 79.676C91.4267 79.332 92.1547 79.16 93.1387 79.16H94.4347C94.3947 78.472 93.9347 78.128 93.0547 78.128C92.7427 78.128 92.4267 78.18 92.1067 78.284C91.7867 78.38 91.5147 78.516 91.2907 78.692L90.5227 77.144C90.8827 76.904 91.3187 76.72 91.8307 76.592C92.3507 76.456 92.8707 76.388 93.3907 76.388ZM93.3067 81.668C93.5707 81.668 93.8027 81.604 94.0027 81.476C94.2027 81.348 94.3467 81.16 94.4347 80.912V80.348H93.4507C92.7867 80.348 92.4547 80.568 92.4547 81.008C92.4547 81.208 92.5307 81.368 92.6827 81.488C92.8347 81.608 93.0427 81.668 93.3067 81.668ZM102.642 82.736C102.45 82.856 102.214 82.948 101.934 83.012C101.662 83.076 101.37 83.108 101.058 83.108C100.21 83.108 99.5579 82.9 99.1019 82.484C98.6459 82.068 98.4179 81.448 98.4179 80.624V78.44H97.4699V76.736H98.4179V75.044H100.698V76.736H102.186V78.44H100.698V80.6C100.698 80.832 100.758 81.016 100.878 81.152C101.006 81.28 101.174 81.344 101.382 81.344C101.646 81.344 101.878 81.276 102.078 81.14L102.642 82.736ZM103.521 76.496H105.801V83H103.521V76.496ZM104.661 75.776C104.245 75.776 103.909 75.66 103.653 75.428C103.397 75.196 103.269 74.908 103.269 74.564C103.269 74.22 103.397 73.932 103.653 73.7C103.909 73.468 104.245 73.352 104.661 73.352C105.077 73.352 105.413 73.464 105.669 73.688C105.925 73.904 106.053 74.184 106.053 74.528C106.053 74.888 105.925 75.188 105.669 75.428C105.413 75.66 105.077 75.776 104.661 75.776ZM110.547 83.108C109.851 83.108 109.223 82.964 108.663 82.676C108.103 82.388 107.663 81.988 107.343 81.476C107.031 80.964 106.875 80.384 106.875 79.736C106.875 79.096 107.031 78.52 107.343 78.008C107.663 77.496 108.099 77.1 108.651 76.82C109.211 76.532 109.843 76.388 110.547 76.388C111.251 76.388 111.883 76.532 112.443 76.82C113.003 77.1 113.439 77.496 113.751 78.008C114.063 78.512 114.219 79.088 114.219 79.736C114.219 80.384 114.063 80.964 113.751 81.476C113.439 81.988 113.003 82.388 112.443 82.676C111.883 82.964 111.251 83.108 110.547 83.108ZM110.547 81.296C110.947 81.296 111.275 81.16 111.531 80.888C111.787 80.608 111.915 80.224 111.915 79.736C111.915 79.256 111.787 78.88 111.531 78.608C111.275 78.336 110.947 78.2 110.547 78.2C110.147 78.2 109.819 78.336 109.563 78.608C109.307 78.88 109.179 79.256 109.179 79.736C109.179 80.224 109.307 80.608 109.563 80.888C109.819 81.16 110.147 81.296 110.547 81.296ZM119.511 76.388C120.319 76.388 120.967 76.628 121.455 77.108C121.951 77.588 122.199 78.312 122.199 79.28V83H119.919V79.652C119.919 78.764 119.563 78.32 118.851 78.32C118.459 78.32 118.143 78.448 117.903 78.704C117.671 78.96 117.555 79.344 117.555 79.856V83H115.275V76.496H117.447V77.204C117.703 76.94 118.007 76.74 118.359 76.604C118.711 76.46 119.095 76.388 119.511 76.388Z" fill="white"/>
</svg>
