<svg width="920" height="400" viewBox="0 0 920 400" fill="none" xmlns="http://www.w3.org/2000/svg">
<g clip-path="url(#clip0_16_52)">
<path d="M505 280C517.703 280 528 271.941 528 262C528 252.059 517.703 244 505 244C492.297 244 482 252.059 482 262C482 271.941 492.297 280 505 280Z" fill="#157A6E"/>
<path d="M760.651 397.205C790.264 391.589 821.748 385.733 845.233 372.382C866.22 360.452 880.389 342.234 871.694 324.342C863.018 306.487 837.029 294.582 810.197 288.66C794.978 285.302 779.057 283.438 763.142 281.975C745.84 280.384 728.463 279.08 711.093 277.826C640.762 272.746 570.167 269.643 499.307 268.516C464.342 267.96 429.384 267.974 394.415 268.294C363.184 268.581 330.293 268.573 301.321 260.192C278.791 253.674 258.343 241.816 252.066 226.233C244.819 208.245 258.185 189.927 277.359 176.899C287.465 170.032 299.277 164.253 311.462 158.938C324.681 153.173 338.361 147.816 352.338 142.815C379.864 132.971 408.643 124.594 438.374 117.769C453.041 114.401 467.926 111.496 482.94 108.816C495.617 106.552 508.335 104.286 520.587 101.202C544.273 95.241 566.802 85.1434 572.824 68.5892C578.532 52.8998 568.908 35.8677 552.036 24.2123C532.517 10.7279 503.085 4.81677 474.868 3.86037C443.19 2.78664 412.242 7.79299 382.467 14.1467C350.711 20.9234 319.639 28.7154 287.211 34.2045C255.055 39.6423 222.276 43.4899 189.173 45.7121C172.968 46.8018 156.273 48.0321 139.972 47.1979C126.31 46.4988 112.718 43.9616 102.649 37.839C94.0153 32.5891 88.8723 25.374 90.6405 17.7599C90.9616 16.377 94.2886 16.965 93.9694 18.3395C91.8171 27.608 101.794 36.1486 114.089 40.5235C128.299 45.5798 145.589 45.5867 161.409 45.0084C195.712 43.7002 229.782 40.5901 263.267 35.7105C296.169 30.9651 327.896 24.1813 359.588 16.9346C389.686 10.0521 420.458 3.33477 452.614 1.84406C480.514 0.55057 509.865 3.1173 534.171 12.3246C555.533 20.4166 571.242 33.9113 576.247 49.3968C581.139 64.529 574.364 79.7599 556.225 90.3196C537.443 101.253 511.69 105.927 487.691 110.232C457.251 115.693 427.464 122.075 398.632 130.363C369.407 138.739 341.379 148.69 314.858 160.103C289.259 171.15 263.995 185.049 255.898 204.757C252.127 213.936 252.823 223.673 259.134 232.344C264.745 240.053 273.986 246.538 284.751 251.541C310.437 263.475 342.809 265.926 373.835 266.17C408.681 266.443 443.528 265.701 478.385 266.062C549.423 266.798 620.316 269.529 691.063 274.253C708.79 275.438 726.495 276.748 744.178 278.182C760.083 279.473 776.042 280.755 791.679 283.047C819.483 287.122 846.539 294.958 863.821 309.844C871.491 316.297 876.242 323.943 877.569 331.968C878.778 340.342 875.532 348.731 869.536 356.18C856.266 372.668 831.408 383.156 805.011 390.046C790.872 393.736 776.206 396.532 761.568 399.307C759.436 399.712 758.525 397.609 760.651 397.205L760.651 397.205Z" fill="#F2F2F2"/>
<path d="M92.8696 35.3955C108.122 35.3955 120.487 27.5875 120.487 17.9559C120.487 8.32432 108.122 0.516357 92.8696 0.516357C77.6168 0.516357 65.2519 8.32432 65.2519 17.9559C65.2519 27.5875 77.6168 35.3955 92.8696 35.3955Z" fill="#F2F2F2"/>
<path d="M284.468 68.4582C299.72 68.4582 312.085 60.6503 312.085 51.0187C312.085 41.3871 299.72 33.5791 284.468 33.5791C269.215 33.5791 256.85 41.3871 256.85 51.0187C256.85 60.6503 269.215 68.4582 284.468 68.4582Z" fill="#F2F2F2"/>
<path d="M446.722 2.33323C461.974 2.33323 474.339 -5.47473 474.339 -15.1063C474.339 -24.7379 461.974 -32.5459 446.722 -32.5459C431.469 -32.5459 419.104 -24.7379 419.104 -15.1063C419.104 -5.47473 431.469 2.33323 446.722 2.33323Z" fill="#F2F2F2"/>
<path d="M547.987 76.4514C563.239 76.4514 575.604 68.6434 575.604 59.0118C575.604 49.3802 563.239 41.5723 547.987 41.5723C532.734 41.5723 520.369 49.3802 520.369 59.0118C520.369 68.6434 532.734 76.4514 547.987 76.4514Z" fill="#F2F2F2"/>
<path d="M411.049 162.196C426.302 162.196 438.666 154.388 438.666 144.756C438.666 135.125 426.302 127.317 411.049 127.317C395.796 127.317 383.431 135.125 383.431 144.756C383.431 154.388 395.796 162.196 411.049 162.196Z" fill="#F2F2F2"/>
<path d="M237.287 203.615C252.54 203.615 264.905 195.807 264.905 186.175C264.905 176.544 252.54 168.736 237.287 168.736C222.034 168.736 209.67 176.544 209.67 186.175C209.67 195.807 222.034 203.615 237.287 203.615Z" fill="#F2F2F2"/>
<path d="M421.405 268.287C436.658 268.287 449.023 260.479 449.023 250.847C449.023 241.215 436.658 233.407 421.405 233.407C406.152 233.407 393.788 241.215 393.788 250.847C393.788 260.479 406.152 268.287 421.405 268.287Z" fill="#F2F2F2"/>
<path d="M619.332 304.619C634.585 304.619 646.95 296.811 646.95 287.18C646.95 277.548 634.585 269.74 619.332 269.74C604.079 269.74 591.715 277.548 591.715 287.18C591.715 296.811 604.079 304.619 619.332 304.619Z" fill="#F2F2F2"/>
<path d="M850.631 296.626C865.883 296.626 878.248 288.818 878.248 279.186C878.248 269.555 865.883 261.747 850.631 261.747C835.378 261.747 823.013 269.555 823.013 279.186C823.013 288.818 835.378 296.626 850.631 296.626Z" fill="#F2F2F2"/>
<path d="M499.048 72.0014C465.201 72.2013 437.487 95.2069 437.006 123.515C437.002 123.776 437 125.614 437 128.017C437 131.541 438.674 134.921 441.653 137.413C444.633 139.905 448.673 141.305 452.887 141.306H452.887C454.976 141.305 457.044 140.961 458.973 140.292C460.903 139.622 462.655 138.642 464.132 137.406C465.608 136.17 466.778 134.703 467.576 133.088C468.374 131.474 468.784 129.744 468.782 127.997C468.78 126.362 468.78 125.23 468.78 125.161C468.778 120.786 470.139 116.486 472.727 112.684C475.316 108.882 479.043 105.71 483.542 103.478C488.041 101.247 493.157 100.033 498.387 99.957C503.617 99.8808 508.78 100.945 513.37 103.044C517.959 105.143 521.816 108.205 524.561 111.929C527.306 115.653 528.845 119.911 529.026 124.283C529.207 128.655 528.024 132.992 525.593 136.866C523.163 140.74 519.568 144.018 515.164 146.377L515.169 146.383C515.169 146.383 492.557 158.559 485.663 175.261L485.669 175.262C484.457 178.684 483.843 182.234 483.845 185.803C483.845 187.27 483.949 200.106 484.148 210.524C484.218 214.118 485.974 217.546 489.038 220.067C492.103 222.588 496.229 224.001 500.528 224H500.528C502.687 224 504.826 223.643 506.82 222.949C508.814 222.255 510.624 221.238 512.147 219.957C513.669 218.675 514.874 217.155 515.691 215.483C516.508 213.811 516.922 212.02 516.909 210.213C516.84 200.672 516.802 189.563 516.802 188.756C516.802 178.501 528.631 168.282 538.348 161.618C549.537 153.944 557.589 143.487 560.823 131.691C561.539 129.262 561.934 126.775 562 124.275C562 117.378 560.368 110.55 557.199 104.183C554.03 97.816 549.386 92.0366 543.534 87.1776C537.683 82.3186 530.739 78.4761 523.104 75.8715C515.47 73.2668 507.294 71.9515 499.048 72.0014V72.0014Z" fill="#157A6E"/>
<path d="M918.63 400H-50.6298C-50.9925 399.999 -51.34 399.908 -51.5961 399.746C-51.8522 399.584 -51.996 399.364 -51.996 399.135C-51.996 398.906 -51.8522 398.686 -51.5961 398.524C-51.34 398.362 -50.9925 398.27 -50.6298 398.27H918.63C918.993 398.27 919.342 398.361 919.599 398.523C919.856 398.685 920 398.905 920 399.135C920 399.364 919.856 399.584 919.599 399.747C919.342 399.909 918.993 400 918.63 400V400Z" fill="#3F3D56"/>
<path d="M770 88C789.33 88 805 75.2401 805 59.5C805 43.7599 789.33 31 770 31C750.67 31 735 43.7599 735 59.5C735 75.2401 750.67 88 770 88Z" fill="#2F2E41"/>
<path d="M701.997 382H688.447L682 337H702L701.997 382Z" fill="#A0616A"/>
<path d="M677.773 379H706V393H660C660 391.161 660.46 389.341 661.353 387.642C662.246 385.944 663.555 384.401 665.205 383.101C666.856 381.801 668.815 380.769 670.971 380.066C673.128 379.362 675.439 379 677.773 379Z" fill="#2F2E41"/>
<path d="M816.996 382H802.092L795 337H817L816.996 382Z" fill="#A0616A"/>
<path d="M791.159 379H820V393H773C773 391.161 773.47 389.341 774.382 387.642C775.295 385.944 776.632 384.401 778.319 383.101C780.005 381.801 782.007 380.769 784.21 380.066C786.413 379.362 788.774 379 791.159 379V379Z" fill="#2F2E41"/>
<path d="M764 88C780.016 88 793 77.4787 793 64.5C793 51.5213 780.016 41 764 41C747.984 41 735 51.5213 735 64.5C735 77.4787 747.984 88 764 88Z" fill="#A0616A"/>
<path d="M781.446 163.657L794.517 139.644C797.691 134.011 798.601 127.728 797.12 121.664C795.64 115.6 791.842 110.052 786.251 105.787C785.102 104.88 783.883 104.032 782.599 103.248C776.15 99.2139 768.201 97.0151 760.013 97C754.507 97.0171 749.071 97.9838 744.075 99.8341C743.647 99.9862 743.231 100.148 742.802 100.31C741.982 100.623 741.173 100.966 740.388 101.318C735.268 103.668 730.91 106.949 727.667 110.893C724.423 114.838 722.384 119.337 721.715 124.028L715.946 162.677C714.495 165.711 662.734 275.269 680.836 358.911C681.029 359.804 681.574 360.625 682.391 361.253C683.208 361.881 684.256 362.283 685.379 362.401L703.732 364.398C705.072 364.545 706.432 364.28 707.537 363.657C708.643 363.034 709.412 362.1 709.69 361.041L740.483 243.676C740.675 242.947 741.167 242.29 741.881 241.811C742.595 241.331 743.489 241.057 744.42 241.032C745.351 241.007 746.267 241.232 747.019 241.672C747.772 242.111 748.318 242.74 748.571 243.457L792.079 366.881C792.389 367.777 793.058 368.568 793.984 369.132C794.91 369.695 796.041 370 797.205 370C797.552 369.998 797.898 369.973 798.24 369.924L820.659 366.472C821.963 366.277 823.128 365.7 823.927 364.854C824.726 364.007 825.1 362.953 824.977 361.897C821.682 332.52 804.175 185.369 781.446 163.657Z" fill="#2F2E41"/>
<path d="M650.08 84.4617C649.879 85.8341 650.058 87.2249 650.604 88.5362C651.15 89.8475 652.051 91.0473 653.241 92.0512C654.432 93.0552 655.885 93.8387 657.497 94.3467C659.108 94.8547 660.84 95.0748 662.57 94.9915L678.756 126L691 111.531L673.752 84.3033C673.384 81.9956 671.967 79.8758 669.769 78.3455C667.571 76.8152 664.746 75.9808 661.828 76.0003C658.91 76.0199 656.102 76.892 653.937 78.4515C651.772 80.0109 650.399 82.1494 650.08 84.4617L650.08 84.4617Z" fill="#A0616A"/>
<path d="M761.785 194.926C763.554 194.762 765.255 194.301 766.768 193.574C768.281 192.847 769.57 191.872 770.544 190.718C771.517 189.564 772.152 188.259 772.403 186.895C772.654 185.531 772.515 184.141 771.996 182.822L807 163.104L785.926 157L755.917 176.661C753.111 177.482 750.793 179.07 749.4 181.125C748.008 183.179 747.638 185.558 748.362 187.809C749.085 190.061 750.851 192.028 753.325 193.34C755.799 194.652 758.809 195.216 761.785 194.926V194.926Z" fill="#A0616A"/>
<path d="M706.16 147C704.845 146.999 703.533 146.895 702.243 146.69C699.123 146.212 696.196 145.125 693.722 143.523C691.248 141.922 689.301 139.856 688.054 137.507L665.212 115.112C664.729 114.638 664.378 114.087 664.181 113.496C663.984 112.904 663.947 112.285 664.072 111.681C664.197 111.077 664.481 110.502 664.905 109.993C665.33 109.484 665.884 109.055 666.531 108.732L682.783 100.644C683.383 100.345 684.05 100.145 684.747 100.055C685.444 99.9644 686.156 99.9861 686.842 100.118C687.528 100.251 688.175 100.491 688.745 100.825C689.315 101.16 689.797 101.582 690.164 102.067L706.263 123.393L737.094 105.072C739.549 104.037 742.385 103.747 745.084 104.254C747.783 104.762 750.165 106.033 751.794 107.836C753.424 109.639 754.192 111.853 753.959 114.074C753.726 116.295 752.507 118.374 750.525 119.932L719.753 142.502C716.137 145.385 711.251 147.001 706.16 147Z" fill="#2F2E41"/>
<path d="M790.529 181C790.488 181 790.447 181 790.405 180.999C789.666 180.984 788.939 180.843 788.27 180.583C787.602 180.324 787.008 179.952 786.526 179.493L772.27 165.881C771.784 165.417 771.424 164.875 771.214 164.289C771.004 163.703 770.948 163.087 771.049 162.482C771.151 161.877 771.409 161.297 771.805 160.78C772.202 160.262 772.727 159.82 773.348 159.481L800.043 144.915L775.859 121.119C774.453 119.199 773.936 116.93 774.405 114.724C774.874 112.519 776.297 110.526 778.414 109.108C780.53 107.69 783.199 106.943 785.933 107.003C788.667 107.063 791.283 107.927 793.304 109.435L822.696 132.944C825.01 134.674 826.776 136.837 827.843 139.248C828.91 141.659 829.246 144.246 828.822 146.787C828.399 149.328 827.228 151.747 825.411 153.836C823.594 155.925 821.185 157.622 818.39 158.781L794.367 179.645C793.873 180.072 793.279 180.413 792.619 180.646C791.959 180.879 791.248 181 790.529 181Z" fill="#2F2E41"/>
<path d="M756.912 131C756.683 131 756.455 130.988 756.228 130.964C755.236 130.865 754.299 130.534 753.528 130.009C752.758 129.485 752.187 128.79 751.882 128.007L741.175 100.999C740.907 100.316 740.948 99.5762 741.291 98.9165C741.634 98.2567 742.256 97.7215 743.042 97.4098L743.389 97.2747C743.704 97.1515 744.016 97.0296 744.335 96.9129C749.328 95.0078 754.763 94.0141 760.266 94C767.411 94.0109 774.396 95.7378 780.365 98.9689C781.165 99.4071 781.724 100.086 781.922 100.86C782.119 101.634 781.939 102.441 781.421 103.107L761.335 128.996C760.864 129.611 760.211 130.117 759.438 130.468C758.664 130.818 757.795 131.001 756.912 131V131Z" fill="#E6E6E6"/>
<path d="M797.5 47C803.851 47 809 42.7467 809 37.5C809 32.2533 803.851 28 797.5 28C791.149 28 786 32.2533 786 37.5C786 42.7467 791.149 47 797.5 47Z" fill="#2F2E41"/>
<path d="M757.952 27C749.743 27 741.87 29.5912 736.066 34.2036C730.261 38.8159 727 45.0717 727 51.5945V62H743.106L750.81 51.5946L753.121 62H802L788.905 51.5945C788.905 45.0717 785.644 38.8159 779.839 34.2036C774.034 29.5912 766.161 27 757.952 27V27Z" fill="#2F2E41"/>
<path d="M803 31.0208C804.3 27.792 806.991 25.0306 810.601 23.2221C814.21 21.4136 818.507 20.6738 822.735 21.1327C830.227 22.1275 836.15 26.9107 839.679 32.253C843.208 37.5954 844.838 43.5745 847.21 49.3058C849.583 55.037 852.947 60.7995 858.937 64.5095C864.926 68.2195 874.117 69.2258 880 65.4093C879.328 69.3868 877.099 73.0958 873.628 76.0117C870.156 78.9276 865.619 80.9028 860.657 81.6581C855.695 82.4133 850.56 81.9103 845.978 80.2202C841.395 78.5301 837.598 75.7384 835.122 72.24C832.018 67.8534 831.217 62.7122 830.297 57.7336C829.376 52.7549 828.18 47.6036 824.475 43.5225C820.769 39.4413 813.832 36.7758 807.945 38.6347L803 31.0208Z" fill="#2F2E41"/>
<path d="M457.475 135.658C453.286 135.657 449.269 134.248 446.307 131.739C443.345 129.23 441.681 125.828 441.681 122.281C441.68 119.861 441.682 118.011 441.687 117.748C441.82 109.461 444.284 101.319 448.875 94C441.332 102.746 437.184 113.261 437.006 124.09C437.002 124.354 437 126.203 437 128.623C437 132.171 438.664 135.573 441.626 138.081C444.588 140.59 448.605 142 452.794 142V142C456.236 141.999 459.584 141.046 462.328 139.287C465.073 137.528 467.064 135.058 468 132.252C465.108 134.449 461.359 135.662 457.475 135.658V135.658Z" fill="#3F3D56"/>
<path d="M500.471 100.4C505.361 100.597 510.122 101.79 514.345 103.878C518.567 105.966 522.125 108.886 524.713 112.387C527.3 115.888 528.84 119.866 529.201 123.979C529.561 128.092 528.731 132.217 526.781 136C529.601 133.211 531.674 129.942 532.858 126.417C534.041 122.892 534.309 119.194 533.642 115.574C532.975 111.954 531.389 108.497 528.993 105.44C526.596 102.383 523.445 99.7974 519.755 97.859C516.064 95.9207 511.921 94.6754 507.607 94.2082C503.293 93.7409 498.91 94.0625 494.757 95.1512C490.605 96.2399 486.779 98.07 483.542 100.517C480.305 102.964 477.733 105.969 476 109.329C478.995 106.362 482.759 104.014 487.001 102.466C491.244 100.917 495.852 100.211 500.471 100.4V100.4Z" fill="#3F3D56"/>
<path d="M509.101 217.809C504.459 217.809 500.002 216.421 496.693 213.944C493.384 211.467 491.487 208.098 491.411 204.566C491.196 194.329 491.085 181.715 491.085 180.274C491.082 176.767 491.745 173.278 493.054 169.916L493.048 169.915C493.821 168.227 494.755 166.584 495.842 165C492.505 168.384 489.85 172.127 487.963 176.106L487.97 176.107C486.66 179.47 485.997 182.958 486 186.465C486 187.907 486.111 200.52 486.327 210.757C486.402 214.29 488.299 217.658 491.608 220.135C494.918 222.613 499.374 224.001 504.016 224V224C507.844 223.999 511.568 223.055 514.63 221.307C517.692 219.559 519.927 217.103 521 214.307C517.747 216.564 513.503 217.813 509.101 217.809V217.809Z" fill="#3F3D56"/>
<path d="M94.0033 388L107.553 387.999L114 340L94 340.001L94.0033 388Z" fill="#FFB8B8"/>
<path d="M134.931 399.059L90.5925 399.061L90.5917 384.046L117.8 384.045C122.343 384.045 126.7 385.627 129.913 388.442C133.126 391.258 134.931 395.077 134.931 399.059V399.059L134.931 399.059Z" fill="#2F2E41"/>
<path d="M43.0035 388L57.2306 387.999L64 340L43 340.001L43.0035 388Z" fill="#FFB8B8"/>
<path d="M84.2988 399.059L39.96 399.061L39.9592 384.046L67.1671 384.045C71.7105 384.045 76.0679 385.627 79.2807 388.442C82.4935 391.258 84.2986 395.077 84.2988 399.059V399.059L84.2988 399.059Z" fill="#2F2E41"/>
<path d="M54.9449 372.993L41.1143 372.356C40.4011 372.323 39.7025 372.166 39.0589 371.895C38.4152 371.624 37.8394 371.244 37.3648 370.776C36.8901 370.309 36.5261 369.764 36.2937 369.172C36.0613 368.58 35.9653 367.954 36.0111 367.33L52.5416 207L128.666 224.995L136 223.242L113.065 365.177C112.869 366.245 112.264 367.222 111.349 367.948C110.434 368.673 109.263 369.104 108.031 369.168L93.1219 369.777C92.3764 369.813 91.6304 369.713 90.9311 369.484C90.2318 369.255 89.5944 368.901 89.0591 368.445C88.5238 367.989 88.1023 367.441 87.8213 366.835C87.5402 366.229 87.4057 365.578 87.4263 364.925L90.1277 279.738C90.1403 279.344 89.9841 278.96 89.6898 278.662C89.3955 278.364 88.9844 278.173 88.5376 278.128C88.0908 278.082 87.6406 278.185 87.2758 278.415C86.911 278.646 86.6581 278.988 86.5667 279.373L60.5145 369.231C60.2686 370.297 59.6082 371.255 58.6459 371.943C57.6836 372.63 56.479 373.004 55.2374 373C55.1405 373 55.043 372.998 54.9449 372.993Z" fill="#2F2E41"/>
<path d="M96 77C111.464 77 124 65.8071 124 52C124 38.1929 111.464 27 96 27C80.536 27 68 38.1929 68 52C68 65.8071 80.536 77 96 77Z" fill="#FFB8B8"/>
<path d="M49.0496 124.239L52.1604 182.995L53.2849 204.371C53.3297 205.302 53.6906 206.199 54.3215 206.949C54.9523 207.699 55.8244 208.268 56.8262 208.581L129.783 231.717C130.372 231.909 130.997 232.005 131.625 232C132.344 232.003 133.056 231.879 133.719 231.636C134.381 231.393 134.981 231.035 135.483 230.585C135.984 230.134 136.377 229.599 136.637 229.013C136.897 228.427 137.02 227.8 136.997 227.172L134.006 121.527C133.81 112.859 130.165 104.523 123.701 97.9558C117.236 91.3885 108.356 87.0013 98.5928 85.5507C97.8871 85.4565 97.1691 85.3622 96.4512 85.2784C90.397 84.6205 84.2516 85.132 78.4474 86.7768C72.6433 88.4216 67.3214 91.1598 62.8561 94.7987C58.2324 98.5215 54.5993 103.088 52.2135 108.175C49.8278 113.262 48.7477 118.746 49.0496 124.239L49.0496 124.239Z" fill="#CCCCCC"/>
<path d="M164.862 220.52C163.14 220.05 161.567 219.23 160.268 218.128C158.969 217.026 157.98 215.672 157.38 214.174C156.781 212.675 156.587 211.074 156.814 209.498C157.042 207.921 157.684 206.414 158.69 205.095L134 176.162L155.306 175L175.486 202.653C177.647 204.125 179.15 206.221 179.732 208.572C180.315 210.923 179.94 213.38 178.672 215.511C177.405 217.643 175.326 219.313 172.801 220.229C170.276 221.145 167.465 221.248 164.862 220.52H164.862Z" fill="#FFB8B8"/>
<path d="M147.14 199.647C146.488 199.415 145.894 199.071 145.394 198.635C144.894 198.199 144.497 197.681 144.226 197.11L107.118 119.428C106.39 117.907 106.01 116.275 106 114.625C105.99 112.975 106.351 111.339 107.06 109.811C107.77 108.284 108.816 106.894 110.137 105.722C111.458 104.549 113.03 103.617 114.761 102.979C116.493 102.34 118.351 102.008 120.229 102C122.107 101.993 123.968 102.311 125.706 102.935C127.444 103.56 129.025 104.48 130.358 105.642C131.691 106.804 132.751 108.185 133.476 109.707L170.584 187.39C171.133 188.542 171.139 189.838 170.601 190.994C170.064 192.149 169.026 193.071 167.717 193.555L151.243 199.63C150.594 199.871 149.898 199.997 149.193 200C148.489 200.003 147.791 199.883 147.14 199.647L147.14 199.647Z" fill="#CCCCCC"/>
<path d="M86.6355 196.92L122.441 136.649C123.131 135.489 124.317 134.618 125.737 134.227C127.157 133.835 128.696 133.954 130.016 134.559L181.987 158.421C183.306 159.028 184.296 160.07 184.742 161.318C185.188 162.567 185.052 163.919 184.364 165.08L148.559 225.351C147.869 226.51 146.683 227.382 145.263 227.773C143.843 228.165 142.304 228.046 140.984 227.441L89.0128 203.579C87.6943 202.972 86.7035 201.93 86.2579 200.682C85.8122 199.433 85.948 198.081 86.6355 196.92Z" fill="#3F3D56"/>
<path d="M111.228 169.887C110.591 168.378 109.568 167.023 108.241 165.929C106.913 164.836 105.318 164.035 103.582 163.59C101.846 163.144 100.017 163.067 98.2413 163.365C96.4658 163.662 94.7928 164.326 93.3558 165.302L59.0583 145L59 164.085L91.5784 180.439C93.3767 182.279 95.8436 183.495 98.5464 183.874C101.249 184.253 104.015 183.771 106.359 182.512C108.704 181.253 110.476 179.298 111.366 176.989C112.257 174.681 112.207 172.166 111.228 169.887V169.887Z" fill="#FFB8B8"/>
<path d="M67.3875 173.98L39.4372 154.481C36.4135 153.587 33.6814 152.06 31.4753 150.032C29.2692 148.003 27.6551 145.533 26.7715 142.834C25.8879 140.135 25.7612 137.287 26.4023 134.535C27.0434 131.784 28.4331 129.21 30.4521 127.036L55.8303 97.7445C57.5938 95.8466 60.0741 94.571 62.8176 94.1509C65.5611 93.7309 68.3846 94.1944 70.7721 95.4567C73.1595 96.7191 74.9514 98.696 75.8201 101.026C76.6888 103.356 76.5763 105.884 75.5033 108.147L55.4234 137.074L84.9324 149.4C85.6186 149.687 86.228 150.099 86.7202 150.608C87.2124 151.117 87.5762 151.713 87.7877 152.355C87.9992 152.998 88.0535 153.672 87.947 154.335C87.8404 154.997 87.5756 155.632 87.1699 156.197L75.2581 172.799C74.8555 173.359 74.3236 173.839 73.6971 174.207C73.0706 174.575 72.3634 174.822 71.6212 174.934C71.5918 174.939 71.5621 174.943 71.5324 174.947C70.8032 175.044 70.0591 175.008 69.3462 174.842C68.6332 174.675 67.9666 174.382 67.3875 173.98V173.98Z" fill="#CCCCCC"/>
<path d="M74.8818 68.0984C74.7607 67.7898 74.7223 67.4611 74.7695 67.1376C74.8167 66.814 74.9484 66.5041 75.1544 66.2317C75.3604 65.9593 75.6352 65.7316 75.9579 65.566C76.2806 65.4004 76.6425 65.3013 77.0159 65.2763C77.7807 65.3125 78.5291 65.4833 79.2159 65.7784C79.9027 66.0735 80.5138 66.4867 81.0121 66.9931C82.034 68.0191 83.2236 68.9086 84.5428 69.6331C85.9087 70.2327 87.7611 70.1472 88.5398 69.0042C89.271 67.9308 88.77 66.4934 88.3273 65.2466C87.2009 62.0745 86.5706 58.7846 86.4536 55.4659C86.326 51.7615 86.9262 47.8955 89.2813 45.0063C92.3207 41.2774 97.7556 39.8618 102.899 39.9645C108.042 40.0671 113.102 41.4497 118.197 42.3237C119.956 42.6254 122.023 42.7797 123.2 41.5927C124.45 40.3305 123.991 38.2876 123.459 36.5834C122.078 32.1611 120.614 27.5889 117.406 24.0174C113.938 20.3062 108.983 17.8773 103.541 17.2197C98.3155 16.6561 93.0113 17.1805 88.0642 18.7498C80.0041 20.962 72.9117 25.2646 67.7357 31.0819C62.4 37.2685 60.0944 45.0431 61.323 52.7059C62.5234 59.3798 66.5846 65.4093 72.6879 69.579L74.8818 68.0984Z" fill="#2F2E41"/>
<path d="M497.212 275.373C494.083 274.244 491.313 272.527 489.122 270.358C486.93 268.19 485.377 265.628 484.584 262.877C483.792 260.125 483.781 257.259 484.554 254.504C485.327 251.748 486.862 249.179 489.038 247C486.515 248.527 484.413 250.48 482.871 252.732C481.329 254.983 480.382 257.481 480.094 260.059C479.806 262.636 480.182 265.236 481.198 267.684C482.215 270.132 483.847 272.373 485.989 274.258C488.13 276.143 490.73 277.629 493.617 278.617C496.504 279.605 499.611 280.074 502.733 279.991C505.855 279.908 508.92 279.275 511.725 278.135C514.529 276.995 517.009 275.374 519 273.379C515.895 275.26 512.25 276.434 508.427 276.784C504.604 277.134 500.738 276.647 497.212 275.373V275.373Z" fill="#3F3D56"/>
</g>
<defs>
<clipPath id="clip0_16_52">
<rect width="920" height="400" fill="white"/>
</clipPath>
</defs>
</svg>
