<svg width="625" height="282" viewBox="0 0 625 282" fill="none" xmlns="http://www.w3.org/2000/svg">
<g clip-path="url(#clip0_516_2)">
<mask id="mask0_516_2" style="mask-type:luminance" maskUnits="userSpaceOnUse" x="0" y="0" width="625" height="282">
<path d="M625 0H0V282H625V0Z" fill="white"/>
</mask>
<g mask="url(#mask0_516_2)">
<path d="M343.071 197.4C351.701 197.4 358.696 191.718 358.696 184.71C358.696 177.702 351.701 172.02 343.071 172.02C334.441 172.02 327.446 177.702 327.446 184.71C327.446 191.718 334.441 197.4 343.071 197.4Z" fill="#157A6E"/>
<path d="M516.747 280.03C536.864 276.07 558.253 271.942 574.207 262.53C588.465 254.119 598.09 241.275 592.183 228.661C586.289 216.074 568.634 207.681 550.406 203.506C540.067 201.138 529.251 199.824 518.439 198.793C506.685 197.671 494.88 196.752 483.08 195.868C435.3 192.286 387.342 190.099 339.203 189.304C315.45 188.912 291.701 188.922 267.945 189.148C246.728 189.35 224.384 189.344 204.702 183.436C189.396 178.84 175.505 170.481 171.24 159.494C166.317 146.813 175.397 133.899 188.423 124.714C195.289 119.873 203.313 115.799 211.591 112.052C220.571 107.987 229.865 104.211 239.36 100.685C258.06 93.7448 277.611 87.839 297.808 83.0274C307.772 80.6529 317.885 78.6049 328.084 76.7155C336.696 75.1194 345.336 73.5219 353.66 71.3476C369.751 67.1451 385.056 60.0263 389.147 48.3556C393.024 37.2946 386.486 25.287 375.024 17.0699C361.764 7.5634 341.77 3.39605 322.601 2.72179C301.08 1.96481 280.056 5.49429 259.828 9.97365C238.255 14.7512 217.146 20.2446 195.116 24.1144C173.271 27.948 151.003 30.6606 128.514 32.2273C117.505 32.9955 106.164 33.8629 95.0897 33.2747C85.8084 32.7819 76.5747 30.9932 69.7344 26.6767C63.8691 22.9755 60.3752 17.8889 61.5764 12.521C61.7946 11.546 64.0548 11.9606 63.8379 12.9296C62.3757 19.4639 69.1535 25.485 77.5061 28.5693C87.1596 32.134 98.9056 32.1389 109.653 31.7311C132.957 30.8089 156.102 28.6162 178.85 25.1761C201.202 21.8306 222.755 17.048 244.285 11.9391C264.732 7.08696 285.637 2.35124 307.482 1.30029C326.436 0.388381 346.376 2.19793 362.888 8.68907C377.4 14.3939 388.072 23.9077 391.472 34.825C394.796 45.4932 390.193 56.231 377.87 63.6755C365.111 71.3836 347.616 74.6788 331.312 77.7138C310.632 81.5638 290.397 86.0631 270.81 91.9061C250.956 97.8112 231.915 104.827 213.898 112.873C196.507 120.661 179.344 130.46 173.844 144.354C171.282 150.825 171.755 157.69 176.042 163.803C179.854 169.238 186.132 173.81 193.445 177.337C210.895 185.75 232.887 187.478 253.964 187.65C277.637 187.843 301.31 187.319 324.99 187.574C373.249 188.093 421.41 190.018 469.472 193.349C481.515 194.184 493.543 195.108 505.556 196.119C516.361 197.029 527.202 197.932 537.825 199.548C556.714 202.421 575.094 207.946 586.835 218.44C592.046 222.99 595.273 228.38 596.175 234.038C596.996 239.941 594.791 245.856 590.717 251.107C581.702 262.731 564.815 270.125 546.882 274.983C537.277 277.584 527.314 279.555 517.37 281.512C515.921 281.797 515.302 280.315 516.747 280.03Z" fill="#F2F2F2"/>
<path d="M63.0911 24.9541C73.4528 24.9541 81.8529 19.4494 81.8529 12.6591C81.8529 5.86887 73.4528 0.364258 63.0911 0.364258C52.7292 0.364258 44.3291 5.86887 44.3291 12.6591C44.3291 19.4494 52.7292 24.9541 63.0911 24.9541Z" fill="#F2F2F2"/>
<path d="M193.253 48.2631C203.614 48.2631 212.014 42.7585 212.014 35.9683C212.014 29.178 203.614 23.6733 193.253 23.6733C182.891 23.6733 174.491 29.178 174.491 35.9683C174.491 42.7585 182.891 48.2631 193.253 48.2631Z" fill="#F2F2F2"/>
<path d="M303.48 1.64496C313.841 1.64496 322.242 -3.85965 322.242 -10.6499C322.242 -17.4402 313.841 -22.9448 303.48 -22.9448C293.118 -22.9448 284.718 -17.4402 284.718 -10.6499C284.718 -3.85965 293.118 1.64496 303.48 1.64496Z" fill="#F2F2F2"/>
<path d="M372.274 53.8984C382.635 53.8984 391.035 48.3937 391.035 41.6034C391.035 34.8132 382.635 29.3086 372.274 29.3086C361.912 29.3086 353.512 34.8132 353.512 41.6034C353.512 48.3937 361.912 53.8984 372.274 53.8984Z" fill="#F2F2F2"/>
<path d="M279.246 114.348C289.608 114.348 298.007 108.843 298.007 102.053C298.007 95.2629 289.608 89.7583 279.246 89.7583C268.884 89.7583 260.483 95.2629 260.483 102.053C260.483 108.843 268.884 114.348 279.246 114.348Z" fill="#F2F2F2"/>
<path d="M161.201 143.549C171.563 143.549 179.963 138.044 179.963 131.253C179.963 124.464 171.563 118.959 161.201 118.959C150.838 118.959 142.439 124.464 142.439 131.253C142.439 138.044 150.838 143.549 161.201 143.549Z" fill="#F2F2F2"/>
<path d="M286.281 189.142C296.643 189.142 305.043 183.638 305.043 176.847C305.043 170.056 296.643 164.552 286.281 164.552C275.919 164.552 267.519 170.056 267.519 176.847C267.519 183.638 275.919 189.142 286.281 189.142Z" fill="#F2F2F2"/>
<path d="M420.742 214.756C431.104 214.756 439.504 209.252 439.504 202.462C439.504 195.671 431.104 190.167 420.742 190.167C410.38 190.167 401.98 195.671 401.98 202.462C401.98 209.252 410.38 214.756 420.742 214.756Z" fill="#F2F2F2"/>
<path d="M577.875 209.121C588.236 209.121 596.636 203.617 596.636 196.826C596.636 190.036 588.236 184.532 577.875 184.532C567.512 184.532 559.112 190.036 559.112 196.826C559.112 203.617 567.512 209.121 577.875 209.121Z" fill="#F2F2F2"/>
<path d="M339.027 50.7612C316.033 50.9021 297.206 67.1211 296.879 87.0783C296.876 87.2623 296.875 88.5581 296.875 90.2522C296.875 92.7366 298.012 95.1195 300.036 96.8764C302.06 98.6332 304.805 99.6203 307.668 99.621C309.087 99.6203 310.492 99.3777 311.802 98.9061C313.113 98.4337 314.304 97.7428 315.307 96.8715C316.31 96.0001 317.105 94.9658 317.647 93.8273C318.189 92.6894 318.467 91.4697 318.466 90.2381C318.465 89.0854 318.465 88.2874 318.465 88.2387C318.463 85.1544 319.388 82.1229 321.146 79.4424C322.905 76.762 325.437 74.5258 328.493 72.9522C331.55 71.3794 335.025 70.5235 338.578 70.4699C342.131 70.4162 345.639 71.1665 348.757 72.6462C351.874 74.126 354.495 76.2848 356.359 78.9102C358.224 81.5356 359.27 84.5375 359.393 87.6197C359.516 90.702 358.712 93.7596 357.06 96.4908C355.41 99.2219 352.967 101.533 349.976 103.196L349.979 103.2C349.979 103.2 334.618 111.784 329.934 123.559L329.938 123.56C329.115 125.972 328.698 128.475 328.699 130.991C328.699 132.026 328.77 141.075 328.905 148.42C328.952 150.953 330.145 153.37 332.227 155.147C334.309 156.925 337.112 157.921 340.033 157.92C341.499 157.92 342.952 157.669 344.307 157.179C345.662 156.69 346.891 155.973 347.926 155.07C348.96 154.166 349.779 153.095 350.334 151.916C350.889 150.737 351.17 149.474 351.161 148.2C351.114 141.474 351.088 133.642 351.088 133.073C351.088 125.843 359.124 118.639 365.726 113.941C373.327 108.531 378.797 101.159 380.994 92.8424C381.48 91.1299 381.749 89.3766 381.793 87.6141C381.793 82.7517 380.685 77.938 378.532 73.4492C376.379 68.9605 373.224 64.886 369.249 61.4604C365.274 58.0348 360.556 55.3259 355.37 53.4896C350.183 51.6533 344.629 50.726 339.027 50.7612Z" fill="#157A6E"/>
<path d="M624.069 282H-34.3951C-34.6415 281.999 -34.8776 281.935 -35.0516 281.821C-35.2256 281.707 -35.3232 281.552 -35.3232 281.39C-35.3232 281.229 -35.2256 281.074 -35.0516 280.959C-34.8776 280.845 -34.6415 280.78 -34.3951 280.78H624.069C624.316 280.78 624.553 280.844 624.728 280.959C624.902 281.073 625 281.228 625 281.39C625 281.552 624.902 281.707 624.728 281.822C624.553 281.936 624.316 282 624.069 282Z" fill="#3F3D56"/>
<path d="M523.098 62.04C536.23 62.04 546.875 53.0443 546.875 41.9475C546.875 30.8507 536.23 21.855 523.098 21.855C509.966 21.855 499.321 30.8507 499.321 41.9475C499.321 53.0443 509.966 62.04 523.098 62.04Z" fill="#2F2E41"/>
<path d="M476.9 269.31H467.695L463.315 237.585H476.902L476.9 269.31Z" fill="#A0616A"/>
<path d="M460.444 267.195H479.62V277.065H448.37C448.37 275.768 448.682 274.485 449.289 273.287C449.895 272.09 450.785 271.003 451.906 270.086C453.027 269.17 454.358 268.442 455.823 267.946C457.288 267.45 458.858 267.195 460.444 267.195Z" fill="#2F2E41"/>
<path d="M555.024 269.31H544.899L540.082 237.585H555.027L555.024 269.31Z" fill="#A0616A"/>
<path d="M537.472 267.195H557.065V277.065H525.136C525.136 275.768 525.455 274.485 526.075 273.287C526.695 272.09 527.603 271.003 528.749 270.086C529.895 269.17 531.255 268.442 532.751 267.946C534.248 267.45 535.852 267.195 537.472 267.195Z" fill="#2F2E41"/>
<path d="M519.022 62.0403C529.902 62.0403 538.723 54.6228 538.723 45.4728C538.723 36.3228 529.902 28.9053 519.022 28.9053C508.141 28.9053 499.321 36.3228 499.321 45.4728C499.321 54.6228 508.141 62.0403 519.022 62.0403Z" fill="#A0616A"/>
<path d="M530.874 115.378L539.753 98.4493C541.91 94.478 542.528 90.0485 541.522 85.7734C540.516 81.4983 537.936 77.5869 534.138 74.5801C533.357 73.9407 532.529 73.3428 531.657 72.7901C527.276 69.9461 521.876 68.3959 516.313 68.3853C512.573 68.3973 508.88 69.0788 505.486 70.3833C505.195 70.4905 504.912 70.6046 504.621 70.7188C504.064 70.9395 503.514 71.1813 502.981 71.4294C499.503 73.0862 496.542 75.3993 494.339 78.1798C492.135 80.961 490.75 84.1328 490.296 87.44L486.376 114.688C485.391 116.827 450.227 194.065 462.524 253.033C462.656 253.662 463.026 254.241 463.581 254.684C464.136 255.126 464.848 255.41 465.611 255.493L478.079 256.901C478.989 257.004 479.913 256.818 480.664 256.378C481.415 255.939 481.938 255.281 482.126 254.534L503.046 171.792C503.176 171.278 503.51 170.815 503.995 170.477C504.48 170.139 505.088 169.945 505.72 169.928C506.353 169.91 506.975 170.069 507.486 170.379C507.997 170.689 508.368 171.132 508.54 171.637L538.097 258.651C538.308 259.283 538.762 259.841 539.391 260.238C540.02 260.635 540.789 260.85 541.58 260.85C541.815 260.849 542.05 260.831 542.283 260.797L557.513 258.363C558.399 258.226 559.19 257.819 559.733 257.222C560.276 256.625 560.53 255.882 560.446 255.138C558.208 234.427 546.315 130.685 530.874 115.378Z" fill="#2F2E41"/>
<path d="M441.631 59.5456C441.494 60.5131 441.616 61.4937 441.986 62.4181C442.357 63.3426 442.97 64.1885 443.778 64.8962C444.587 65.604 445.574 66.1564 446.669 66.5145C447.764 66.8727 448.94 67.0278 450.116 66.9691L461.111 88.8301L469.429 78.6295L457.712 59.4339C457.462 57.807 456.499 56.3125 455.006 55.2337C453.513 54.1548 451.594 53.5666 449.611 53.5803C447.629 53.5941 445.722 54.209 444.251 55.3084C442.78 56.4078 441.847 57.9154 441.631 59.5456Z" fill="#A0616A"/>
<path d="M517.517 137.423C518.719 137.307 519.874 136.982 520.902 136.47C521.93 135.957 522.806 135.27 523.468 134.456C524.129 133.643 524.56 132.723 524.73 131.761C524.901 130.799 524.807 129.819 524.454 128.89L548.234 114.988L533.917 110.685L513.531 124.546C511.624 125.125 510.05 126.244 509.103 127.693C508.158 129.141 507.906 130.818 508.398 132.405C508.889 133.993 510.089 135.38 511.77 136.305C513.451 137.23 515.495 137.627 517.517 137.423Z" fill="#A0616A"/>
<path d="M479.728 103.635C478.835 103.634 477.944 103.561 477.067 103.416C474.948 103.079 472.959 102.313 471.279 101.184C469.598 100.055 468.275 98.5985 467.428 96.9424L451.911 81.1539C451.582 80.8198 451.344 80.4313 451.21 80.0147C451.076 79.5973 451.051 79.1609 451.136 78.7351C451.221 78.3093 451.414 77.9039 451.702 77.545C451.991 77.1862 452.367 76.8837 452.807 76.656L463.847 70.954C464.255 70.7432 464.708 70.6022 465.182 70.5387C465.655 70.4749 466.139 70.4902 466.605 70.5832C467.071 70.6769 467.51 70.8461 467.898 71.0816C468.285 71.3178 468.612 71.6153 468.862 71.9572L479.798 86.992L500.743 74.0757C502.411 73.3461 504.338 73.1416 506.171 73.499C508.005 73.8572 509.623 74.7532 510.73 76.0244C511.837 77.2955 512.359 78.8563 512.201 80.4221C512.042 81.9879 511.214 83.4536 509.868 84.552L488.963 100.464C486.506 102.496 483.187 103.636 479.728 103.635Z" fill="#2F2E41"/>
<path d="M537.044 127.605C537.016 127.605 536.989 127.605 536.96 127.604C536.458 127.594 535.964 127.494 535.51 127.311C535.056 127.128 534.652 126.866 534.325 126.542L524.64 116.946C524.31 116.619 524.065 116.237 523.923 115.824C523.78 115.41 523.742 114.976 523.811 114.55C523.88 114.123 524.055 113.714 524.324 113.35C524.594 112.985 524.95 112.673 525.372 112.434L543.508 102.165L527.078 85.3887C526.123 84.0351 525.772 82.4355 526.09 80.8802C526.409 79.3257 527.376 77.9207 528.814 76.921C530.251 75.9213 532.065 75.3946 533.922 75.4369C535.779 75.4792 537.556 76.0884 538.929 77.1515L558.897 93.7253C560.469 94.945 561.669 96.4699 562.393 98.1697C563.118 99.8694 563.347 101.693 563.058 103.485C562.771 105.276 561.976 106.981 560.741 108.454C559.507 109.927 557.87 111.123 555.972 111.94L539.652 126.65C539.316 126.951 538.912 127.191 538.464 127.355C538.016 127.52 537.533 127.605 537.044 127.605Z" fill="#2F2E41"/>
<path d="M514.207 92.355C514.051 92.355 513.896 92.3466 513.742 92.3296C513.068 92.2598 512.432 92.0265 511.908 91.6564C511.385 91.2869 510.997 90.797 510.79 90.245L503.516 71.2043C503.334 70.7228 503.362 70.2012 503.595 69.7361C503.828 69.271 504.25 68.8937 504.784 68.6739L505.02 68.5787C505.234 68.4918 505.446 68.4059 505.663 68.3236C509.055 66.9805 512.747 66.28 516.485 66.27C521.339 66.2777 526.084 67.4952 530.139 69.7731C530.683 70.082 531.063 70.5606 531.197 71.1063C531.331 71.652 531.209 72.2209 530.857 72.6905L517.211 90.9422C516.891 91.3758 516.448 91.7325 515.923 91.98C515.397 92.2267 514.807 92.3557 514.207 92.355Z" fill="#FFC107"/>
<path d="M541.78 33.1352C546.094 33.1352 549.592 30.1367 549.592 26.4377C549.592 22.7388 546.094 19.7402 541.78 19.7402C537.465 19.7402 533.967 22.7388 533.967 26.4377C533.967 30.1367 537.465 33.1352 541.78 33.1352Z" fill="#2F2E41"/>
<path d="M514.913 19.0352C509.336 19.0352 503.988 20.862 500.045 24.1137C496.101 27.3654 493.886 31.7757 493.886 36.3743V43.7102H504.827L510.061 36.3744L511.631 43.7102H544.837L535.941 36.3743C535.941 31.7757 533.725 27.3654 529.782 24.1137C525.838 20.862 520.49 19.0352 514.913 19.0352Z" fill="#2F2E41"/>
<path d="M545.517 21.8698C546.4 19.5935 548.228 17.6467 550.68 16.3717C553.132 15.0968 556.051 14.5752 558.924 14.8987C564.013 15.6001 568.037 18.9722 570.434 22.7385C572.832 26.5049 573.939 30.7202 575.551 34.7608C577.163 38.8013 579.448 42.8638 583.517 45.4794C587.586 48.0949 593.83 48.8044 597.826 46.1137C597.37 48.9179 595.856 51.5327 593.498 53.5884C591.139 55.6441 588.057 57.0366 584.686 57.5691C581.315 58.1015 577.826 57.7469 574.714 56.5554C571.6 55.3639 569.021 53.3957 567.339 50.9294C565.23 47.8368 564.686 44.2123 564.061 40.7024C563.435 37.1924 562.623 33.5607 560.106 30.6835C557.588 27.8063 552.875 25.9271 548.876 27.2376L545.517 21.8698Z" fill="#2F2E41"/>
<path d="M310.785 95.6389C307.939 95.6382 305.21 94.6449 303.198 92.876C301.185 91.1072 300.055 88.7088 300.055 86.2081C300.054 84.502 300.056 83.1978 300.059 83.0124C300.149 77.17 301.823 71.4299 304.942 66.27C299.818 72.4359 297 79.849 296.879 87.4835C296.876 87.6696 296.875 88.9731 296.875 90.6792C296.875 93.1806 298.005 95.579 300.018 97.3471C302.03 99.116 304.759 100.11 307.605 100.11C309.943 100.109 312.217 99.4375 314.082 98.1974C315.946 96.9573 317.299 95.2159 317.935 93.2377C315.97 94.7866 313.423 95.6417 310.785 95.6389Z" fill="#3F3D56"/>
<path d="M339.994 70.782C343.316 70.9209 346.55 71.7619 349.419 73.234C352.287 74.706 354.705 76.7646 356.463 79.2328C358.22 81.701 359.266 84.5055 359.512 87.4052C359.756 90.3049 359.192 93.213 357.868 95.88C359.783 93.9138 361.192 91.6091 361.996 89.124C362.8 86.6389 362.982 84.0318 362.529 81.4797C362.075 78.9276 360.998 76.4904 359.37 74.3352C357.742 72.18 355.601 70.3572 353.094 68.9906C350.587 67.6241 347.772 66.7462 344.842 66.4168C341.911 66.0873 338.933 66.3141 336.112 67.0816C333.291 67.8491 330.692 69.1393 328.493 70.8645C326.294 72.5896 324.547 74.7081 323.37 77.0769C325.404 74.9852 327.961 73.3299 330.843 72.2385C333.726 71.1465 336.856 70.6488 339.994 70.782Z" fill="#3F3D56"/>
<path d="M345.857 153.556C342.703 153.556 339.675 152.577 337.427 150.831C335.179 149.084 333.891 146.709 333.839 144.219C333.693 137.002 333.618 128.109 333.618 127.093C333.616 124.621 334.066 122.161 334.955 119.791L334.951 119.79C335.476 118.6 336.111 117.442 336.849 116.325C334.582 118.711 332.779 121.35 331.497 124.155L331.501 124.156C330.611 126.527 330.161 128.986 330.163 131.458C330.163 132.475 330.238 141.367 330.385 148.584C330.436 151.075 331.725 153.449 333.973 155.195C336.222 156.942 339.249 157.921 342.402 157.92C345.003 157.919 347.533 157.254 349.613 156.022C351.693 154.789 353.211 153.058 353.94 151.087C351.73 152.678 348.847 153.558 345.857 153.556Z" fill="#3F3D56"/>
<path d="M63.8611 273.54L73.0661 273.539L77.4458 239.7L63.8589 239.701L63.8611 273.54Z" fill="#FFB8B8"/>
<path d="M91.6653 281.337L61.544 281.338L61.5435 270.753L80.0274 270.752C83.1136 270.752 86.0735 271.867 88.2563 273.852C90.439 275.837 91.6653 278.529 91.6653 281.337Z" fill="#2F2E41"/>
<path d="M29.2143 273.54L38.8794 273.539L43.4782 239.7L29.2119 239.701L29.2143 273.54Z" fill="#FFB8B8"/>
<path d="M57.2685 281.337L27.147 281.338L27.1465 270.753L45.6301 270.752C48.7167 270.752 51.6769 271.867 53.8595 273.852C56.0421 275.837 57.2684 278.529 57.2685 281.337Z" fill="#2F2E41"/>
<path d="M37.3267 262.96L27.9309 262.511C27.4464 262.488 26.9718 262.377 26.5346 262.186C26.0973 261.995 25.7061 261.727 25.3837 261.397C25.0612 261.068 24.814 260.684 24.6561 260.266C24.4982 259.849 24.433 259.408 24.4641 258.968L35.6941 145.935L87.409 158.622L92.3913 157.386L76.8105 257.45C76.6773 258.203 76.2663 258.892 75.6447 259.403C75.0231 259.915 74.2276 260.218 73.3907 260.263L63.2622 260.693C62.7557 260.718 62.2489 260.648 61.7739 260.486C61.2988 260.325 60.8658 260.075 60.5021 259.754C60.1385 259.432 59.8521 259.046 59.6612 258.619C59.4703 258.191 59.3789 257.733 59.3929 257.272L61.2281 197.215C61.2367 196.938 61.1305 196.667 60.9306 196.457C60.7307 196.247 60.4514 196.112 60.1479 196.08C59.8443 196.048 59.5385 196.12 59.2907 196.283C59.0428 196.445 58.871 196.687 58.8089 196.958L41.1104 260.308C40.9434 261.059 40.4947 261.735 39.841 262.22C39.1873 262.704 38.3689 262.968 37.5254 262.965C37.4596 262.965 37.3934 262.964 37.3267 262.96Z" fill="#2F2E41"/>
<path d="M65.2175 54.2852C75.723 54.2852 84.2393 46.3942 84.2393 36.6602C84.2393 26.9262 75.723 19.0352 65.2175 19.0352C54.7121 19.0352 46.1958 26.9262 46.1958 36.6602C46.1958 46.3942 54.7121 54.2852 65.2175 54.2852Z" fill="#FFB8B8"/>
<path d="M33.3218 87.5883L35.4351 129.011L36.199 144.081C36.2294 144.738 36.4746 145.37 36.9032 145.899C37.3317 146.428 37.9242 146.829 38.6048 147.049L88.1678 163.36C88.568 163.496 88.9925 163.563 89.4192 163.56C89.9076 163.562 90.3913 163.475 90.8417 163.303C91.2915 163.132 91.6991 162.879 92.0401 162.562C92.3805 162.244 92.6474 161.867 92.8241 161.454C93.0007 161.041 93.0843 160.599 93.0686 160.156L91.0367 85.6763C90.9035 79.5654 88.4273 73.6885 84.036 69.0587C79.644 64.4287 73.6114 61.3357 66.9788 60.3131C66.4994 60.2466 66.0116 60.1802 65.5239 60.1211C61.411 59.6573 57.2362 60.0179 53.2931 61.1775C49.3501 62.337 45.7347 64.2675 42.7012 66.8329C39.5601 69.4575 37.0919 72.6769 35.4711 76.2632C33.8504 79.8495 33.1167 83.7157 33.3218 87.5883Z" fill="#FFC107"/>
<path d="M111.999 155.467C110.829 155.135 109.76 154.557 108.878 153.78C107.995 153.003 107.323 152.049 106.916 150.993C106.509 149.936 106.377 148.807 106.531 147.696C106.686 146.584 107.122 145.522 107.806 144.592L91.0327 124.194L105.507 123.375L119.216 142.87C120.684 143.908 121.705 145.386 122.101 147.043C122.497 148.701 122.242 150.433 121.381 151.935C120.52 153.438 119.107 154.616 117.392 155.261C115.677 155.907 113.767 155.98 111.999 155.467Z" fill="#FFB8B8"/>
<path d="M99.9592 140.751C99.5163 140.588 99.1128 140.345 98.7731 140.038C98.4334 139.731 98.1637 139.365 97.9796 138.963L72.7704 84.197C72.2758 83.1247 72.0177 81.9741 72.0109 80.8109C72.0041 79.6476 72.2493 78.4942 72.731 77.417C73.2133 76.3405 73.9239 75.3605 74.8213 74.5342C75.7188 73.7073 76.7867 73.0502 77.9626 72.6004C79.1393 72.1499 80.4015 71.9159 81.6773 71.9102C82.9531 71.9053 84.2174 72.1295 85.3981 72.5694C86.5788 73.01 87.6529 73.6586 88.5584 74.4778C89.464 75.2971 90.1841 76.2707 90.6766 77.3437L115.886 132.11C116.259 132.922 116.263 133.836 115.897 134.651C115.533 135.465 114.827 136.115 113.938 136.457L102.747 140.739C102.306 140.909 101.833 140.998 101.354 141C100.876 141.002 100.402 140.918 99.9592 140.751Z" fill="#FFC107"/>
<path d="M58.8556 138.829L83.18 96.3377C83.6487 95.5199 84.4544 94.9059 85.4191 94.6302C86.3838 94.3539 87.4293 94.4378 88.326 94.8643L123.632 111.687C124.528 112.115 125.201 112.85 125.504 113.729C125.807 114.61 125.715 115.563 125.247 116.382L100.923 158.873C100.454 159.69 99.6487 160.304 98.684 160.58C97.7194 160.857 96.6738 160.773 95.7771 160.346L60.4706 143.523C59.5749 143.095 58.9018 142.361 58.599 141.481C58.2963 140.6 58.3885 139.647 58.8556 138.829Z" fill="#157A6E"/>
<path d="M75.5625 119.77C75.1298 118.707 74.4348 117.751 73.5333 116.98C72.6311 116.209 71.5476 115.645 70.3682 115.331C69.1889 115.017 67.9464 114.962 66.74 115.172C65.5339 115.382 64.3973 115.85 63.4211 116.538L40.1211 102.225L40.0815 115.68L62.2136 127.21C63.4353 128.507 65.1112 129.364 66.9473 129.631C68.7833 129.898 70.6624 129.559 72.2548 128.671C73.8478 127.783 75.0516 126.405 75.6563 124.777C76.2616 123.15 76.2276 121.377 75.5625 119.77Z" fill="#FFB8B8"/>
<path d="M45.7796 122.656L26.7916 108.909C24.7375 108.279 22.8814 107.202 21.3827 105.773C19.884 104.342 18.7875 102.601 18.1872 100.698C17.5869 98.7952 17.5008 96.7874 17.9364 94.8472C18.3719 92.9077 19.316 91.0931 20.6876 89.5604L37.9282 68.9099C39.1263 67.5719 40.8112 66.6726 42.675 66.3764C44.5388 66.0803 46.457 66.4071 48.0789 67.297C49.7008 68.187 50.9181 69.5807 51.5082 71.2234C52.0984 72.866 52.022 74.6482 51.293 76.2437L37.6518 96.6372L57.6987 105.327C58.1648 105.529 58.5788 105.82 58.9132 106.179C59.2476 106.538 59.4947 106.958 59.6384 107.41C59.7821 107.864 59.819 108.339 59.7466 108.806C59.6742 109.273 59.4943 109.721 59.2187 110.119L51.1265 121.823C50.853 122.218 50.4916 122.557 50.066 122.816C49.6404 123.075 49.1599 123.25 48.6557 123.328C48.6358 123.332 48.6156 123.335 48.5954 123.338C48.1 123.406 47.5945 123.381 47.1102 123.264C46.6258 123.146 46.173 122.939 45.7796 122.656Z" fill="#FFC107"/>
<path d="M50.871 48.0092C50.7887 47.7917 50.7627 47.56 50.7947 47.3319C50.8268 47.1037 50.9163 46.8853 51.0562 46.6932C51.1962 46.5012 51.3828 46.3407 51.6021 46.2239C51.8213 46.1072 52.0671 46.0373 52.3208 46.0197C52.8404 46.0452 53.3488 46.1656 53.8154 46.3736C54.2819 46.5817 54.6971 46.873 55.0356 47.23C55.7298 47.9533 56.538 48.5804 57.4342 49.0912C58.3621 49.5139 59.6205 49.4537 60.1495 48.6478C60.6463 47.8911 60.3059 46.8777 60.0052 45.9987C59.24 43.7624 58.8118 41.443 58.7323 39.1033C58.6456 36.4917 59.0534 33.7662 60.6533 31.7293C62.7181 29.1004 66.4103 28.1024 69.9044 28.1748C73.3983 28.2472 76.8358 29.2219 80.2971 29.8381C81.4921 30.0508 82.8963 30.1596 83.6959 29.3227C84.5451 28.4329 84.2332 26.9926 83.8718 25.7912C82.9337 22.6735 81.9391 19.4501 79.7597 16.9321C77.4038 14.3157 74.0376 12.6034 70.3406 12.1398C66.7906 11.7424 63.1873 12.1121 59.8264 13.2185C54.3508 14.7781 49.5326 17.8114 46.0163 21.9126C42.3915 26.2742 40.8252 31.7553 41.6599 37.1575C42.4754 41.8626 45.2343 46.1134 49.3806 49.0531L50.871 48.0092Z" fill="#2F2E41"/>
<path d="M337.78 194.138C335.654 193.342 333.772 192.132 332.284 190.603C330.795 189.074 329.74 187.268 329.201 185.329C328.663 183.388 328.655 181.368 329.181 179.426C329.706 177.483 330.749 175.671 332.227 174.135C330.513 175.212 329.085 176.589 328.037 178.176C326.99 179.763 326.346 181.524 326.151 183.342C325.955 185.159 326.211 186.992 326.901 188.717C327.592 190.443 328.7 192.023 330.155 193.352C331.61 194.681 333.376 195.729 335.338 196.425C337.299 197.122 339.41 197.452 341.53 197.394C343.651 197.335 345.734 196.889 347.639 196.085C349.544 195.282 351.229 194.139 352.581 192.732C350.472 194.059 347.996 194.886 345.399 195.133C342.802 195.38 340.175 195.036 337.78 194.138Z" fill="#3F3D56"/>
</g>
</g>
<defs>
<clipPath id="clip0_516_2">
<rect width="625" height="282" fill="white"/>
</clipPath>
</defs>
</svg>
