<svg width="920" height="400" viewBox="0 0 920 400" fill="none" xmlns="http://www.w3.org/2000/svg">
<g clip-path="url(#clip0_16_98)">
<path d="M736.854 397.722H39.9527V399.964H736.854V397.722Z" fill="#3F3D56"/>
<path d="M798.418 0H0V352.438H798.418V0Z" fill="#3F3D56"/>
<path opacity="0.1" d="M798.418 27.1106V17.4282H773.868V0H763.194V17.4282H35.2243V0H24.5503V17.4282H0V27.1106H24.5503V325.327H0V335.009H24.5503V352.437H35.2243V335.009H763.194V352.437H773.868V335.009H798.418V325.327H773.868V27.1106H798.418ZM763.194 325.327H35.2243V27.1106H763.194L763.194 325.327Z" fill="black"/>
<path d="M478.789 46.4753H352.898V155.101H478.789V46.4753Z" fill="#D0CDE1"/>
<path d="M464.483 59.4519H367.204V126.931H464.483V59.4519Z" fill="#157A6E"/>
<path d="M422.714 70.5413H388.61V101.476H422.714V70.5413Z" fill="#F2F2F2"/>
<path d="M401.666 78.2771V115.841H443.077V78.2771H401.666ZM441.281 114.212H403.462V79.9065H441.281V114.212Z" fill="#3F3D56"/>
<path d="M420.021 133.628H367.108V136.155H420.021V133.628Z" fill="#F2F2F2"/>
<path d="M415.844 57.843C418.92 57.843 421.414 55.581 421.414 52.7906C421.414 50.0003 418.92 47.7383 415.844 47.7383C412.768 47.7383 410.274 50.0003 410.274 52.7906C410.274 55.581 412.768 57.843 415.844 57.843Z" fill="#3F3D56"/>
<path d="M526.269 203.146H400.378V311.772H526.269V203.146Z" fill="#D0CDE1"/>
<path d="M511.963 216.123H414.684V283.601H511.963V216.123Z" fill="#157A6E"/>
<path d="M467.501 291.562H414.587V294.088H467.501V291.562Z" fill="#F2F2F2"/>
<path d="M467.501 299.141H414.587V301.667H467.501V299.141Z" fill="#F2F2F2"/>
<path d="M431.993 259.985C438.145 259.985 443.133 255.461 443.133 249.881C443.133 244.3 438.145 239.776 431.993 239.776C425.841 239.776 420.854 244.3 420.854 249.881C420.854 255.461 425.841 259.985 431.993 259.985Z" fill="#3F3D56"/>
<path d="M463.323 259.985C469.476 259.985 474.463 255.461 474.463 249.881C474.463 244.3 469.476 239.776 463.323 239.776C457.171 239.776 452.184 244.3 452.184 249.881C452.184 255.461 457.171 259.985 463.323 259.985Z" fill="#F2F2F2"/>
<path d="M494.654 259.985C500.806 259.985 505.793 255.461 505.793 249.881C505.793 244.3 500.806 239.776 494.654 239.776C488.501 239.776 483.514 244.3 483.514 249.881C483.514 255.461 488.501 259.985 494.654 259.985Z" fill="#FF6584"/>
<path d="M463.323 214.514C466.4 214.514 468.893 212.252 468.893 209.462C468.893 206.671 466.4 204.409 463.323 204.409C460.247 204.409 457.754 206.671 457.754 209.462C457.754 212.252 460.247 214.514 463.323 214.514Z" fill="#3F3D56"/>
<path d="M333.6 169.206H207.709V277.832H333.6V169.206Z" fill="#D0CDE1"/>
<path d="M319.294 182.183H222.015V249.661H319.294V182.183Z" fill="#157A6E"/>
<path d="M264.178 245.232C277.221 245.232 287.795 235.64 287.795 223.808C287.795 211.976 277.221 202.385 264.178 202.385C251.134 202.385 240.56 211.976 240.56 223.808C240.56 235.64 251.134 245.232 264.178 245.232Z" fill="#F2F2F2"/>
<path d="M271.139 240.333C265.282 240.333 259.557 238.758 254.688 235.806C249.818 232.855 246.023 228.66 243.782 223.752C241.54 218.844 240.954 213.443 242.096 208.232C243.239 203.022 246.059 198.236 250.2 194.48C254.342 190.723 259.618 188.165 265.362 187.128C271.106 186.092 277.06 186.624 282.471 188.657C287.881 190.69 292.506 194.133 295.76 198.55C299.014 202.967 300.75 208.16 300.75 213.473C300.741 220.594 297.619 227.421 292.067 232.457C286.516 237.492 278.99 240.325 271.139 240.333V240.333ZM271.139 187.589C265.495 187.589 259.978 189.107 255.286 191.951C250.593 194.795 246.936 198.838 244.776 203.567C242.617 208.297 242.052 213.501 243.153 218.522C244.254 223.543 246.971 228.155 250.962 231.775C254.952 235.395 260.037 237.86 265.572 238.859C271.107 239.858 276.845 239.345 282.059 237.386C287.273 235.427 291.729 232.109 294.865 227.853C298 223.596 299.673 218.592 299.673 213.473C299.665 206.61 296.656 200.031 291.306 195.179C285.957 190.326 278.704 187.597 271.139 187.589V187.589Z" fill="#3F3D56"/>
<path d="M274.832 263.938H221.919V266.464H274.832V263.938Z" fill="#F2F2F2"/>
<path d="M295.719 256.359H221.919V258.886H295.719V256.359Z" fill="#F2F2F2"/>
<path d="M270.655 180.574C273.731 180.574 276.225 178.312 276.225 175.522C276.225 172.731 273.731 170.469 270.655 170.469C267.579 170.469 265.085 172.731 265.085 175.522C265.085 178.312 267.579 180.574 270.655 180.574Z" fill="#3F3D56"/>
<path d="M195.233 44.5388H69.3423V153.164H195.233V44.5388Z" fill="#D0CDE1"/>
<path d="M180.927 57.5154H83.6481V124.994H180.927V57.5154Z" fill="#157A6E"/>
<path d="M142.752 110.341H121.824V115.967H142.752V110.341Z" fill="#3F3D56"/>
<path d="M168.052 66.543H96.5237V68.9539H168.052V66.543Z" fill="#3F3D56"/>
<path d="M168.052 74.1775H96.5237V76.5884H168.052V74.1775Z" fill="#3F3D56"/>
<path d="M168.052 81.812H96.5237V84.2229H168.052V81.812Z" fill="#3F3D56"/>
<path d="M168.052 89.4465H96.5237V91.8575H168.052V89.4465Z" fill="#3F3D56"/>
<path d="M168.052 97.0813H96.5237V99.4922H168.052V97.0813Z" fill="#3F3D56"/>
<path d="M136.465 131.692H83.5518V134.218H136.465V131.692Z" fill="#F2F2F2"/>
<path d="M157.352 138.007H83.5518V140.533H157.352V138.007Z" fill="#F2F2F2"/>
<path d="M132.288 55.9067C135.364 55.9067 137.858 53.6447 137.858 50.8544C137.858 48.064 135.364 45.802 132.288 45.802C129.212 45.802 126.718 48.064 126.718 50.8544C126.718 53.6447 129.212 55.9067 132.288 55.9067Z" fill="#3F3D56"/>
<path d="M580.97 115.501L672.143 121.578L697.927 123.296L696.326 121.844L701.168 185.377L703.589 217.144C703.687 218.428 703.787 219.711 703.883 220.995C703.962 222.062 704.286 223.09 702.892 223.354C700.121 223.877 697.236 224.096 694.429 224.417C688.722 225.07 683.003 225.62 677.271 226.066C654.338 227.852 631.284 227.983 608.327 226.458C602.591 226.077 596.865 225.592 591.149 225.003C589.023 224.784 586.384 224.702 585.608 222.54C584.808 220.31 584.67 217.776 584.308 215.463C582.696 205.156 581.598 194.797 581.013 184.385C579.821 163.634 580.632 142.828 583.435 122.205C583.779 119.68 584.154 117.158 584.561 114.641C584.855 112.812 581.77 112.023 581.473 113.868C578.031 135.18 576.707 156.729 577.517 178.256C577.931 189.025 578.881 199.763 580.369 210.469C580.745 213.173 581.154 215.874 581.594 218.57C581.946 220.715 582.032 223.246 583.44 225.089C584.798 226.868 587.079 227.439 589.32 227.71C592.173 228.055 595.045 228.302 597.908 228.555C621.687 230.658 645.615 230.979 669.452 229.515C675.451 229.146 681.44 228.665 687.419 228.071C690.364 227.778 693.306 227.458 696.244 227.11C697.682 226.94 699.119 226.764 700.556 226.582C701.897 226.496 703.224 226.286 704.519 225.956C707.217 225.074 707.216 222.713 707.048 220.514L706.424 212.331L705.177 195.966L700.152 130.026L699.528 121.843C699.516 121.462 699.344 121.099 699.046 120.828C698.748 120.558 698.348 120.402 697.927 120.391L606.754 114.315L580.97 112.596C578.915 112.459 578.924 115.365 580.97 115.501V115.501Z" fill="#D0CDE1"/>
<path d="M620.042 149.793C620.502 148.684 619.345 151.073 619.926 150.016C620.081 149.735 620.225 149.451 620.389 149.175C620.715 148.624 621.076 148.092 621.471 147.58C621.864 147.069 622.461 146.872 621.299 147.76C621.54 147.537 621.765 147.3 621.973 147.051C622.516 146.512 623.094 146.003 623.705 145.528C624.144 145.186 624.975 144.896 623.488 145.652C623.782 145.503 624.055 145.279 624.336 145.107C624.912 144.756 625.506 144.431 626.118 144.132C626.424 143.983 626.734 143.84 627.047 143.704C627.58 143.473 628.467 143.394 626.79 143.783C627.51 143.616 628.206 143.307 628.926 143.122C629.537 142.964 630.156 142.832 630.781 142.724C631.34 142.629 632.353 142.701 630.446 142.741C630.787 142.733 631.136 142.674 631.477 142.653C632.165 142.61 632.855 142.601 633.543 142.625C633.888 142.637 634.23 142.668 634.573 142.686C635.715 142.748 632.845 142.399 634.573 142.697C635.25 142.814 635.92 142.967 636.578 143.156C636.896 143.28 637.224 143.384 637.558 143.468L636.672 143.122C636.89 143.208 637.105 143.297 637.318 143.391C637.953 143.669 638.57 143.982 639.164 144.327C639.46 144.499 639.743 144.685 640.033 144.864C640.945 145.427 638.812 143.918 640.104 144.946C640.543 145.295 640.964 145.661 641.366 146.045C641.608 146.275 641.843 146.51 642.072 146.752C642.456 147.158 642.75 147.899 641.948 146.57C642.682 147.787 643.599 148.89 644.29 150.144C644.879 151.214 643.753 148.816 644.2 149.942C644.321 150.245 644.451 150.545 644.565 150.851C644.792 151.463 644.989 152.084 645.154 152.713C645.32 153.343 645.401 153.987 645.554 154.618C645.134 152.882 645.441 153.886 645.482 154.357C645.52 154.787 645.542 155.216 645.55 155.647C645.56 156.184 645.545 156.722 645.507 157.259C645.484 157.573 645.407 157.907 645.411 158.221C645.387 156.591 645.541 157.403 645.43 157.95C645.301 158.584 645.135 159.211 644.933 159.829C644.831 160.139 644.72 160.446 644.601 160.75C644.494 161.019 644.382 161.287 644.264 161.553C644.608 160.825 644.635 160.756 644.346 161.345C642.578 164.554 640.374 167.545 638.635 170.765C634.319 178.793 632.868 187.84 634.482 196.65C634.927 198.111 635.983 199.357 637.426 200.122C638.921 200.9 640.695 201.11 642.361 200.708C645.971 199.648 647.39 196.789 646.834 193.561C646.638 192.424 646.936 194.575 646.808 193.43C646.753 192.939 646.698 192.449 646.66 191.957C646.584 190.973 646.553 189.987 646.567 189C646.579 188.154 646.624 187.309 646.701 186.466C646.704 185.972 646.76 185.479 646.87 184.994C646.868 184.997 646.663 186.162 646.803 185.492C646.86 185.215 646.901 184.935 646.956 184.657C647.324 182.783 647.856 180.939 648.546 179.141C648.7 178.742 648.868 178.348 649.03 177.951C649.458 176.904 648.585 178.791 649.102 177.778C649.563 176.875 650.04 175.983 650.565 175.108C652.77 171.434 655.264 167.992 656.87 164.04C658.095 160.94 658.579 157.64 658.291 154.357C657.697 147.582 654.53 140.707 648.627 136.32C645.577 134.017 641.97 132.4 638.101 131.6C634.231 130.8 630.208 130.841 626.359 131.718C622.136 132.644 618.226 134.494 614.972 137.107C611.718 139.719 609.218 143.014 607.691 146.704C606.508 149.554 609.003 153.198 612.164 153.851C615.807 154.603 618.775 152.844 620.042 149.793V149.793Z" fill="#D0CDE1"/>
<path d="M642.417 219.007C643.47 219.007 644.499 218.724 645.375 218.193C646.25 217.663 646.933 216.908 647.336 216.026C647.739 215.144 647.844 214.173 647.639 213.236C647.433 212.299 646.926 211.439 646.182 210.763C645.437 210.088 644.489 209.628 643.456 209.442C642.423 209.256 641.353 209.351 640.38 209.717C639.407 210.082 638.576 210.701 637.991 211.495C637.406 212.289 637.094 213.223 637.094 214.178C637.109 215.454 637.675 216.675 638.67 217.577C639.665 218.48 641.01 218.993 642.417 219.007V219.007Z" fill="#D0CDE1"/>
<path d="M65.191 387.919H35.3037V415.03H65.191V387.919Z" fill="#157A6E"/>
<path d="M83.3368 399.538H47.0451V366.618H83.3368V399.538ZM48.623 398.107H81.7589V368.049H48.623V398.107Z" fill="#3F3D56"/>
<path d="M720.227 178L717.435 184.885C717.435 184.885 699.984 201.522 712.549 203.817C725.114 206.112 726.51 186.032 726.51 186.032L730 180.295L720.227 178Z" fill="#FFB8B8"/>
<path d="M739.721 93.0035C739.721 93.0035 735.535 92.4175 734.14 106.481C732.744 120.544 732.047 145.154 732.047 145.154L716 179.726L736.233 185L746 145.74L739.721 93.0035Z" fill="#575A89"/>
<path d="M730.222 301L728 312H748L747.259 301H730.222Z" fill="#FFB8B8"/>
<path d="M792.445 313.2L791 328.8L804 330V312L792.445 313.2Z" fill="#FFB8B8"/>
<path d="M738.328 157.514L722 233.865L726.26 303.275H748.267V240.228L769.565 207.836L786.603 248.325L790.863 316L815 312.53L809.321 246.59C809.321 246.59 805.061 158.671 800.802 157.514C796.542 156.357 738.328 157.514 738.328 157.514Z" fill="#2F2E41"/>
<path d="M732.758 309.419C732.758 309.419 732.758 303.641 727.145 307.108C721.532 310.574 714.516 316.929 714.516 316.929C714.516 316.929 687.854 329.062 706.798 330.795C725.742 332.528 737.669 322.707 737.669 322.707L739.774 324.44C739.774 324.44 751 322.707 751 320.396C750.919 318.459 750.684 316.529 750.298 314.618C750.298 314.618 748.823 304.818 747.105 306.83C745.387 308.841 735.564 312.885 732.758 309.419Z" fill="#2F2E41"/>
<path d="M804.706 325.481C804.706 325.481 791.641 320.305 788.738 324.906C785.834 329.506 783.657 338.708 783.657 338.708C783.657 338.708 774.221 353.085 790.915 351.934C807.609 350.784 806.884 343.308 806.884 341.583C806.884 339.858 806.158 335.832 806.884 334.107C807.609 332.382 804.706 325.481 804.706 325.481Z" fill="#2F2E41"/>
<path d="M776.5 70C787.27 70 796 62.6127 796 53.5C796 44.3873 787.27 37 776.5 37C765.73 37 757 44.3873 757 53.5C757 62.6127 765.73 70 776.5 70Z" fill="#FFB8B8"/>
<path d="M763.694 62L763 83L788 81.25V62H763.694Z" fill="#FFB8B8"/>
<path d="M789.662 71C789.662 71 777.569 77.3923 774.012 78.5546C770.455 79.7168 762.63 73.9056 762.63 73.9056C762.63 73.9056 760.496 75.0679 760.496 76.2301C760.496 77.3923 759.073 82.0413 759.073 82.0413L742 127.95L743.423 160.493C743.423 160.493 795.353 164.561 801.044 159.331C806.735 154.1 798.198 79.1357 798.198 79.1357L789.662 71Z" fill="#D0CDE1"/>
<path opacity="0.1" d="M786 83C786 83 766.5 87.205 760 83.4205C760 83.4205 769.389 84.682 786 83Z" fill="black"/>
<path d="M835.829 209.654C828.106 213.743 802.831 219 802.831 219C802.831 219 800.072 169.553 790.194 161.755C780.372 153.992 764.337 98.0266 778.757 88.295C778.822 88.2448 778.89 88.198 778.961 88.1548L788.088 70.6309C788.088 70.6309 789.492 68.8785 792.3 71.215C794.572 73.2404 796.683 75.3867 798.619 77.6404L799.019 77.7748L818.277 84.0659L810.554 112.688C810.554 112.688 843.552 205.565 835.829 209.654Z" fill="#575A89"/>
<path opacity="0.1" d="M799 77.7761L793.754 94L779 88.298C779.064 88.2478 779.131 88.201 779.201 88.1577L788.21 70.631C788.21 70.631 789.596 68.8783 792.368 71.2152C794.61 73.2409 796.694 75.3876 798.605 77.6417L799 77.7761Z" fill="black"/>
<path d="M762 74L759.902 93.6205L759.79 94.515L743.813 220C743.813 220 729.824 215.96 724.927 211.344C720.031 206.727 736.119 155.368 736.119 155.368L737.518 90.7352C737.518 90.7352 749.927 83.5275 754.998 79.5688C756.187 78.6454 756.971 77.901 757.104 77.4625C757.803 75.1541 762 74 762 74Z" fill="#575A89"/>
<path opacity="0.1" d="M762 74L759.943 93.128L759.833 94L750 92.8467L755.136 79.429C756.302 78.5288 757.07 77.8031 757.2 77.3755C757.886 75.1252 762 74 762 74Z" fill="black"/>
<path d="M800.615 172L793 177.625C793 177.625 796.462 189.438 800.615 190C800.615 190 803.385 186.625 804.077 183.813C804.769 181 811 178.188 811 178.188L800.615 172Z" fill="#FFB8B8"/>
<path d="M809.493 83L818.726 84.1628C818.726 84.1628 849.264 126.605 845.713 141.721C842.162 156.837 813.755 183 813.755 183L796 171.372L822.277 142.302L808.783 107.419L809.493 83Z" fill="#575A89"/>
<path d="M757 55.9764C757 55.9764 757 41.4826 761.196 38.1886H766.231C766.231 38.1886 772.106 30.9417 779.658 33.5769C787.211 36.2122 799.799 40.8238 798.96 48.0707C798.121 55.3176 795.504 60 795.504 60C795.504 60 794.105 60 790.988 56.0604C786.822 50.796 796.443 52.437 783.855 50.4605C771.267 48.4841 763.714 45.8489 762.035 48.4841C760.357 51.1193 757 55.9764 757 55.9764Z" fill="#2F2E41"/>
<path d="M766 39C766 39 766.782 34.8859 770 34L766 39Z" fill="#2F2E41"/>
<path d="M765.794 40C765.794 40 763.367 35.8007 767 34L765.794 40Z" fill="#2F2E41"/>
</g>
<defs>
<clipPath id="clip0_16_98">
<rect width="920" height="400" fill="white"/>
</clipPath>
</defs>
</svg>
